M48
; DRILL file {KiCad 8.0.2-1} date 2024-05-17T13:08:15+0100
; FORMAT={-:-/ absolute / inch / decimal}
; #@! TF.CreationDate,2024-05-17T13:08:15+01:00
; #@! TF.GenerationSoftware,Kicad,Pcbnew,8.0.2-1
; #@! TF.FileFunction,Plated,1,4,PTH
FMAT,2
INCH
; #@! TA.AperFunction,Plated,PTH,ViaDrill
T1C0.0100
; #@! TA.AperFunction,Plated,PTH,ViaDrill
T2C0.0118
; #@! TA.AperFunction,Plated,PTH,ComponentDrill
T3C0.0236
; #@! TA.AperFunction,Plated,PTH,ComponentDrill
T4C0.0394
; #@! TA.AperFunction,Plated,PTH,ComponentDrill
T5C0.0472
; #@! TA.AperFunction,Plated,PTH,ComponentDrill
T6C0.0866
%
G90
G05
T1
X4.6205Y-4.167
X4.6705Y-3.512
X4.7155Y-4.317
X4.7505Y-3.422
X4.7505Y-3.567
X4.7505Y-4.302
X4.7755Y-4.167
X4.7855Y-3.387
X4.7955Y-3.362
X4.8105Y-4.167
X4.8455Y-4.167
X4.8786Y-4.167
X4.9155Y-3.622
X4.9155Y-3.717
X4.9805Y-3.747
X4.9905Y-4.522
X5.0155Y-3.747
X5.0195Y-4.127
X5.0405Y-4.582
X5.0956Y-3.3571
X5.1155Y-3.767
X5.1155Y-3.802
X5.1155Y-3.837
X5.1155Y-3.9417
X5.1155Y-3.9657
X5.1405Y-3.702
X5.1405Y-3.848
X5.1455Y-3.902
X5.1455Y-4.242
X5.1575Y-2.9429
X5.1705Y-3.737
X5.2455Y-3.177
X5.3105Y-3.702
X5.316Y-3.2225
X5.3655Y-4.417
X5.3955Y-4.037
X5.4505Y-3.992
X5.4649Y-3.6064
X5.4655Y-3.6917
X5.4755Y-4.417
X5.4955Y-3.167
X5.5505Y-3.7665
X5.5805Y-4.057
X5.6196Y-3.777
X5.6406Y-3.752
X5.6505Y-3.837
X5.6655Y-3.727
X5.6655Y-4.057
X5.7055Y-3.862
X5.7105Y-3.692
X5.8935Y-4.857
X5.8935Y-5.002
X5.8935Y-5.1939
X5.9011Y-4.0031
X5.9105Y-3.907
X5.9175Y-4.857
X5.9175Y-5.002
X5.9175Y-5.1939
X5.9251Y-4.0031
X5.9295Y-5.0296
X6.1205Y-3.347
X6.1555Y-2.517
X6.2405Y-3.562
X6.4605Y-3.6058
X6.6855Y-3.752
T2
X4.4937Y-4.2709
X4.5038Y-3.618
X4.519Y-4.3165
X4.5418Y-3.4822
X4.5444Y-4.122
X4.5472Y-4.0354
X4.5505Y-3.937
X4.5605Y-3.752
X4.5628Y-4.4506
X4.5755Y-3.3507
X4.5855Y-3.972
X4.5891Y-3.8469
X4.5968Y-4.1055
X4.6043Y-3.7183
X4.6063Y-4.2717
X4.6196Y-4.5797
X4.6548Y-4.3575
X4.6567Y-3.2249
X4.6594Y-4.2701
X4.6606Y-4.0016
X4.6622Y-3.9362
X4.6626Y-3.8713
X4.6705Y-3.472
X4.6888Y-4.7026
X4.7021Y-4.4781
X4.7055Y-3.2996
X4.7055Y-3.3906
X4.7055Y-4.126
X4.7071Y-3.7394
X4.7185Y-4.0567
X4.7189Y-3.8181
X4.7326Y-3.1059
X4.7331Y-4.3929
X4.7505Y-3.352
X4.7609Y-4.5935
X4.7697Y-4.8182
X4.7839Y-4.0571
X4.7846Y-3.8169
X4.787Y-3.237
X4.8197Y-2.9949
X4.828Y-3.7331
X4.8308Y-4.7025
X4.8331Y-3.4752
X4.8484Y-4.0567
X4.8496Y-3.8169
X4.85Y-3.6106
X4.861Y-3.1307
X4.8616Y-4.9253
X4.8746Y-4.1019
X4.8764Y-3.7134
X4.8972Y-3.8039
X4.9016Y-3.8583
X4.9051Y-3.4764
X4.911Y-4.8041
X4.9172Y-2.8931
X4.9205Y-3.3252
X4.9236Y-4.4201
X4.9255Y-4.352
X4.9266Y-4.2999
X4.9451Y-3.0322
X4.9567Y-3.5014
X4.9635Y-5.0229
X4.9803Y-3.9764
X4.9953Y-4.4331
X5.0005Y-4.167
X5.0007Y-4.8974
X5.0039Y-3.3146
X5.0162Y-4.4839
X5.0243Y-2.8012
X5.0355Y-2.9826
X5.0357Y-3.6193
X5.0559Y-3.2626
X5.0599Y-3.3246
X5.0646Y-3.1
X5.0658Y-4.3274
X5.0724Y-4.7142
X5.0744Y-5.11
X5.0835Y-3.6169
X5.0855Y-2.847
X5.0992Y-4.9815
X5.1144Y-3.4557
X5.1155Y-4.187
X5.1276Y-3.1699
X5.1399Y-2.7203
X5.1429Y-3.6461
X5.1505Y-2.982
X5.1512Y-4.6567
X5.1575Y-4.737
X5.1581Y-4.4838
X5.1805Y-4.147
X5.1854Y-4.3776
X5.1934Y-5.1858
X5.1956Y-3.1714
X5.2005Y-3.112
X5.2055Y-5.0555
X5.2098Y-3.3283
X5.2469Y-3.6524
X5.2484Y-4.0402
X5.2491Y-2.7924
X5.2559Y-3.761
X5.2559Y-3.8976
X5.2628Y-2.6511
X5.2791Y-4.6191
X5.2855Y-4.1492
X5.2906Y-4.3984
X5.2931Y-4.7826
X5.3134Y-3.1
X5.3185Y-5.1187
X5.3192Y-5.2496
X5.3204Y-3.652
X5.3213Y-4.9756
X5.3228Y-4.8563
X5.3405Y-2.982
X5.3618Y-3.4776
X5.3644Y-2.7336
X5.3755Y-3.922
X5.3855Y-2.897
X5.3855Y-3.077
X5.392Y-2.5943
X5.4005Y-4.007
X5.4173Y-2.8193
X5.4183Y-4.3685
X5.4242Y-4.7282
X5.4295Y-4.1768
X5.4372Y-5.1706
X5.4455Y-2.947
X5.4507Y-5.3007
X5.4551Y-3.3303
X5.4605Y-3.922
X5.4699Y-4.8858
X5.474Y-3.4498
X5.485Y-2.6863
X5.5018Y-3.589
X5.5067Y-5.0528
X5.5138Y-3.7697
X5.526Y-2.5504
X5.5304Y-3.082
X5.5355Y-2.957
X5.5445Y-4.9386
X5.5461Y-2.8016
X5.5505Y-3.922
X5.5575Y-4.3407
X5.5603Y-5.2105
X5.561Y-3.3256
X5.5755Y-3.082
X5.5866Y-5.3387
X5.5878Y-4.8068
X5.6096Y-2.6511
X5.6205Y-3.922
X5.6205Y-4.5221
X5.6217Y-2.8984
X5.6496Y-3.8976
X5.6634Y-4.9526
X5.6638Y-2.5199
X5.6685Y-4.6398
X5.6864Y-3.0373
X5.6868Y-5.2382
X5.7134Y-2.7591
X5.7165Y-3.3205
X5.7197Y-5.0673
X5.7255Y-5.3632
X5.7283Y-4.8622
X5.7371Y-2.6283
X5.7385Y-4.4431
X5.7406Y-2.9061
X5.7655Y-3.997
X5.7839Y-3.0543
X5.7955Y-4.9803
X5.8038Y-2.5031
X5.8134Y-2.8421
X5.8154Y-5.2534
X5.8255Y-4.537
X5.8305Y-5.087
X5.8305Y-5.152
X5.8359Y-4.0623
X5.85Y-4.413
X5.8512Y-2.7311
X5.8661Y-2.6181
X5.8661Y-3.0118
X5.8661Y-3.4055
X5.8661Y-3.7992
X5.8661Y-4.1929
X5.8661Y-5.374
X5.8705Y-4.977
X5.8855Y-4.757
X5.9255Y-4.757
X5.9406Y-2.8413
X5.9449Y-2.5
X5.9449Y-2.8937
X5.9449Y-3.2874
X5.9449Y-3.6811
X5.9449Y-4.4685
X5.9449Y-5.2559
X5.9751Y-3.8117
X5.9805Y-5.087
X5.9805Y-5.152
X5.9854Y-4.0831
X5.9905Y-4.902
X5.9956Y-2.6206
X6.0072Y-5.371
X6.0102Y-4.6445
X6.0308Y-4.0066
X6.0433Y-3.8976
X6.0474Y-3.0219
X6.0528Y-2.9343
X6.0563Y-3.2016
X6.0606Y-4.1642
X6.0704Y-4.9679
X6.0725Y-3.4309
X6.074Y-5.2457
X6.0855Y-2.5108
X6.0921Y-2.7083
X6.1079Y-3.0638
X6.1143Y-3.7839
X6.1155Y-3.397
X6.1242Y-2.6358
X6.1246Y-4.8367
X6.1291Y-2.8047
X6.1449Y-5.1051
X6.1453Y-4.413
X6.1472Y-5.3541
X6.1477Y-2.9214
X6.1614Y-3.9764
X6.1795Y-4.9563
X6.2014Y-5.2229
X6.2205Y-4.4157
X6.2232Y-3.0672
X6.2245Y-2.5353
X6.2507Y-2.6635
X6.2535Y-3.5333
X6.2587Y-2.9311
X6.2684Y-4.916
X6.278Y-2.8118
X6.285Y-5.3236
X6.2953Y-3.9528
X6.2959Y-4.7767
X6.3092Y-4.285
X6.326Y-5.1877
X6.337Y-4.4242
X6.3411Y-2.9882
X6.3603Y-2.5733
X6.3739Y-2.7034
X6.3815Y-3.6972
X6.3868Y-3.1459
X6.3927Y-3.5055
X6.4116Y-4.104
X6.4191Y-5.2797
X6.4213Y-4.4098
X6.4366Y-2.8476
X6.437Y-3.0185
X6.437Y-3.8976
X6.4461Y-5.0366
X6.4466Y-5.1404
X6.4523Y-4.6844
X6.4524Y-4.8264
X6.4795Y-3.3984
X6.4805Y-4.267
X6.4862Y-4.9626
X6.4918Y-2.6245
X6.4925Y-2.7553
X6.5179Y-3.0914
X6.5319Y-3.255
X6.5378Y-4.0539
X6.5406Y-4.7075
X6.5482Y-5.2229
X6.5551Y-3.9764
X6.5555Y-3.727
X6.562Y-5.0816
X6.5843Y-2.9398
X6.5876Y-4.5634
X6.6055Y-2.8185
X6.6091Y-4.8516
X6.6098Y-4.9417
X6.6154Y-4.7026
X6.6169Y-3.1472
X6.6176Y-2.6882
X6.6529Y-3.3903
X6.671Y-5.0118
X6.6711Y-3.2271
X6.6711Y-5.1537
X6.6764Y-3.3075
X6.6967Y-4.4183
X6.7091Y-4.7287
X6.7118Y-2.8925
X6.7161Y-3.0709
X6.7366Y-2.7641
X6.7452Y-3.5466
X6.7511Y-4.5494
X6.7726Y-4.9316
X6.7753Y-4.2547
X6.7867Y-5.0728
X6.7894Y-4.7268
X6.7949Y-3.3901
X6.8053Y-3.7179
X6.8103Y-2.9766
X6.8206Y-4.0789
X6.8268Y-3.1622
X6.828Y-4.4795
X6.8307Y-3.8976
X6.8455Y-4.637
X6.8476Y-2.8512
X6.8505Y-4.857
X6.8543Y-4.3726
X6.8626Y-3.4689
X6.8845Y-3.5741
X6.8938Y-4.981
X6.9001Y-3.0699
X6.9005Y-4.587
X6.9005Y-4.687
X6.9201Y-4.0327
X6.9211Y-4.1792
X6.9365Y-3.7721
X6.9488Y-3.9764
X6.9495Y-2.9487
X6.95Y-4.7433
X6.9638Y-3.8665
X6.9713Y-4.4717
X6.9764Y-3.4756
X6.9803Y-3.1715
X6.9914Y-4.8791
X7.0059Y-4.5445
X7.024Y-4.637
X7.0413Y-3.0558
X7.0501Y-3.2806
X7.0673Y-3.9894
X7.0681Y-3.4697
X7.0744Y-3.8598
X7.0785Y-4.7681
X7.0872Y-4.524
X7.1089Y-3.3959
X7.1222Y-3.1714
X7.1391Y-4.4054
X7.1453Y-3.7921
X7.1543Y-4.6491
X7.1562Y-3.5165
X7.163Y-3.9453
X7.179Y-4.2822
X7.1914Y-3.6411
X7.1914Y-3.2943
X7.2067Y-4.1557
X7.2142Y-3.7686
X7.2181Y-4.5233
X7.2219Y-4.0271
X7.2244Y-3.8976
X7.2482Y-3.4235
X7.2692Y-4.3918
X7.2921Y-3.5575
X7.3072Y-4.256
X7.3226Y-3.6953
X7.3317Y-4.117
X7.3395Y-3.8353
X7.3425Y-3.9764
T4
X4.8978Y-4.6663
X4.9355Y-3.137
X4.9355Y-3.237
X4.9685Y-4.737
X5.0392Y-4.8077
X5.1099Y-4.8784
X5.1807Y-4.9491
X5.6629Y-4.277
X5.6629Y-4.377
X5.6655Y-3.257
X5.6655Y-3.357
X5.6655Y-3.5068
X5.6655Y-3.6068
X5.8355Y-3.877
X5.8557Y-3.1496
X5.9557Y-3.1496
X6.3055Y-3.697
X6.3055Y-3.797
X6.3055Y-4.117
X6.3055Y-4.217
X6.3055Y-4.537
X6.3055Y-4.637
X6.3055Y-4.997
X6.3055Y-5.097
X6.3091Y-3.3071
X6.9555Y-4.137
X6.9555Y-4.237
X6.9555Y-4.337
T5
X6.6624Y-3.5145
X6.6993Y-3.6058
X6.7361Y-3.697
T6
X6.8811Y-3.32
X7.0285Y-3.685
T3
G00X5.8159Y-5.0335
M15
G01X5.8061Y-5.0335
M16
G05
G00X5.8159Y-5.2028
M15
G01X5.8061Y-5.2028
M16
G05
G00X6.0049Y-5.0335
M15
G01X5.9951Y-5.0335
M16
G05
G00X6.0049Y-5.2028
M15
G01X5.9951Y-5.2028
M16
G05
M30
