%TF.GenerationSoftware,KiCad,Pcbnew,8.0.2-1*%
%TF.CreationDate,2024-05-17T13:07:53+01:00*%
%TF.ProjectId,Pomodoro_V7,506f6d6f-646f-4726-9f5f-56372e6b6963,rev?*%
%TF.SameCoordinates,Original*%
%TF.FileFunction,Soldermask,Bot*%
%TF.FilePolarity,Negative*%
%FSLAX46Y46*%
G04 Gerber Fmt 4.6, Leading zero omitted, Abs format (unit mm)*
G04 Created by KiCad (PCBNEW 8.0.2-1) date 2024-05-17 13:07:53*
%MOMM*%
%LPD*%
G01*
G04 APERTURE LIST*
G04 Aperture macros list*
%AMRoundRect*
0 Rectangle with rounded corners*
0 $1 Rounding radius*
0 $2 $3 $4 $5 $6 $7 $8 $9 X,Y pos of 4 corners*
0 Add a 4 corners polygon primitive as box body*
4,1,4,$2,$3,$4,$5,$6,$7,$8,$9,$2,$3,0*
0 Add four circle primitives for the rounded corners*
1,1,$1+$1,$2,$3*
1,1,$1+$1,$4,$5*
1,1,$1+$1,$6,$7*
1,1,$1+$1,$8,$9*
0 Add four rect primitives between the rounded corners*
20,1,$1+$1,$2,$3,$4,$5,0*
20,1,$1+$1,$4,$5,$6,$7,0*
20,1,$1+$1,$6,$7,$8,$9,0*
20,1,$1+$1,$8,$9,$2,$3,0*%
%AMHorizOval*
0 Thick line with rounded ends*
0 $1 width*
0 $2 $3 position (X,Y) of the first rounded end (center of the circle)*
0 $4 $5 position (X,Y) of the second rounded end (center of the circle)*
0 Add line between two ends*
20,1,$1,$2,$3,$4,$5,0*
0 Add two circle primitives to create the rounded ends*
1,1,$1,$2,$3*
1,1,$1,$4,$5*%
%AMRotRect*
0 Rectangle, with rotation*
0 The origin of the aperture is its center*
0 $1 length*
0 $2 width*
0 $3 Rotation angle, in degrees counterclockwise*
0 Add horizontal line*
21,1,$1,$2,0,0,$3*%
%AMOutline5P*
0 Free polygon, 5 corners , with rotation*
0 The origin of the aperture is its center*
0 number of corners: always 5*
0 $1 to $10 corner X, Y*
0 $11 Rotation angle, in degrees counterclockwise*
0 create outline with 5 corners*
4,1,5,$1,$2,$3,$4,$5,$6,$7,$8,$9,$10,$1,$2,$11*%
%AMOutline6P*
0 Free polygon, 6 corners , with rotation*
0 The origin of the aperture is its center*
0 number of corners: always 6*
0 $1 to $12 corner X, Y*
0 $13 Rotation angle, in degrees counterclockwise*
0 create outline with 6 corners*
4,1,6,$1,$2,$3,$4,$5,$6,$7,$8,$9,$10,$11,$12,$1,$2,$13*%
%AMOutline7P*
0 Free polygon, 7 corners , with rotation*
0 The origin of the aperture is its center*
0 number of corners: always 7*
0 $1 to $14 corner X, Y*
0 $15 Rotation angle, in degrees counterclockwise*
0 create outline with 7 corners*
4,1,7,$1,$2,$3,$4,$5,$6,$7,$8,$9,$10,$11,$12,$13,$14,$1,$2,$15*%
%AMOutline8P*
0 Free polygon, 8 corners , with rotation*
0 The origin of the aperture is its center*
0 number of corners: always 8*
0 $1 to $16 corner X, Y*
0 $17 Rotation angle, in degrees counterclockwise*
0 create outline with 8 corners*
4,1,8,$1,$2,$3,$4,$5,$6,$7,$8,$9,$10,$11,$12,$13,$14,$15,$16,$1,$2,$17*%
%AMFreePoly0*
4,1,19,0.500000,-0.750000,0.000000,-0.750000,0.000000,-0.744911,-0.071157,-0.744911,-0.207708,-0.704816,-0.327430,-0.627875,-0.420627,-0.520320,-0.479746,-0.390866,-0.500000,-0.250000,-0.500000,0.250000,-0.479746,0.390866,-0.420627,0.520320,-0.327430,0.627875,-0.207708,0.704816,-0.071157,0.744911,0.000000,0.744911,0.000000,0.750000,0.500000,0.750000,0.500000,-0.750000,0.500000,-0.750000,
$1*%
%AMFreePoly1*
4,1,19,0.000000,0.744911,0.071157,0.744911,0.207708,0.704816,0.327430,0.627875,0.420627,0.520320,0.479746,0.390866,0.500000,0.250000,0.500000,-0.250000,0.479746,-0.390866,0.420627,-0.520320,0.327430,-0.627875,0.207708,-0.704816,0.071157,-0.744911,0.000000,-0.744911,0.000000,-0.750000,-0.500000,-0.750000,-0.500000,0.750000,0.000000,0.750000,0.000000,0.744911,0.000000,0.744911,
$1*%
G04 Aperture macros list end*
%ADD10R,0.275000X0.250000*%
%ADD11R,0.250000X0.275000*%
%ADD12RoundRect,0.250000X0.450000X-0.262500X0.450000X0.262500X-0.450000X0.262500X-0.450000X-0.262500X0*%
%ADD13R,0.400000X0.800000*%
%ADD14R,0.800000X0.400000*%
%ADD15R,1.200000X1.200000*%
%ADD16R,0.800000X0.800000*%
%ADD17Outline5P,-0.600000X0.600000X0.600000X0.600000X0.600000X-0.600000X-0.204000X-0.600000X-0.600000X-0.204000X270.000000*%
%ADD18FreePoly0,90.000000*%
%ADD19FreePoly1,90.000000*%
%ADD20C,1.000000*%
%ADD21RoundRect,0.250000X-0.262500X-0.450000X0.262500X-0.450000X0.262500X0.450000X-0.262500X0.450000X0*%
%ADD22RotRect,1.700000X1.700000X45.000000*%
%ADD23HorizOval,1.700000X0.000000X0.000000X0.000000X0.000000X0*%
%ADD24R,1.700000X1.700000*%
%ADD25O,1.700000X1.700000*%
%ADD26RoundRect,0.250000X-0.450000X0.262500X-0.450000X-0.262500X0.450000X-0.262500X0.450000X0.262500X0*%
%ADD27RoundRect,0.150000X0.512500X0.150000X-0.512500X0.150000X-0.512500X-0.150000X0.512500X-0.150000X0*%
%ADD28RoundRect,0.055580X-0.341420X0.651420X-0.341420X-0.651420X0.341420X-0.651420X0.341420X0.651420X0*%
%ADD29RoundRect,0.250000X0.475000X-0.250000X0.475000X0.250000X-0.475000X0.250000X-0.475000X-0.250000X0*%
%ADD30RoundRect,0.250000X-0.250000X-0.475000X0.250000X-0.475000X0.250000X0.475000X-0.250000X0.475000X0*%
%ADD31C,0.520000*%
%ADD32RoundRect,0.102000X0.150000X0.435000X-0.150000X0.435000X-0.150000X-0.435000X0.150000X-0.435000X0*%
%ADD33O,2.404000X1.304000*%
%ADD34FreePoly0,270.000000*%
%ADD35FreePoly1,270.000000*%
%ADD36RoundRect,0.250000X-0.475000X0.250000X-0.475000X-0.250000X0.475000X-0.250000X0.475000X0.250000X0*%
%ADD37RoundRect,0.102000X1.171611X-0.497320X0.497320X1.171611X-1.171611X0.497320X-0.497320X-1.171611X0*%
%ADD38RoundRect,0.102000X2.093279X-0.888544X0.888544X2.093279X-2.093279X0.888544X-0.888544X-2.093279X0*%
%ADD39RoundRect,0.250000X0.250000X0.475000X-0.250000X0.475000X-0.250000X-0.475000X0.250000X-0.475000X0*%
G04 APERTURE END LIST*
D10*
%TO.C,U1*%
X144262500Y-96750000D03*
X144262500Y-97250000D03*
X144262500Y-97750000D03*
X144262500Y-98250000D03*
D11*
X143750000Y-98262500D03*
X143250000Y-98262500D03*
D10*
X142737500Y-98250000D03*
X142737500Y-97750000D03*
X142737500Y-97250000D03*
X142737500Y-96750000D03*
D11*
X143250000Y-96737500D03*
X143750000Y-96737500D03*
%TD*%
D12*
%TO.C,R11*%
X156750000Y-85000000D03*
X156750000Y-83175000D03*
%TD*%
D13*
%TO.C,IC1*%
X115550000Y-93000000D03*
X116400000Y-93000000D03*
X117250000Y-93000000D03*
X118100000Y-93000000D03*
X118950000Y-93000000D03*
X119800000Y-93000000D03*
X120650000Y-93000000D03*
X121500000Y-93000000D03*
X122350000Y-93000000D03*
X123200000Y-93000000D03*
X124050000Y-93000000D03*
X124900000Y-93000000D03*
X125750000Y-93000000D03*
X126600000Y-93000000D03*
X127450000Y-93000000D03*
D14*
X128500000Y-94050000D03*
X128500000Y-94900000D03*
X128500000Y-95750000D03*
X128500000Y-96600000D03*
X128500000Y-97450000D03*
X128500000Y-98300000D03*
X128500000Y-99150000D03*
X128500000Y-100000000D03*
X128500000Y-100850000D03*
X128500000Y-101700000D03*
X128500000Y-102550000D03*
X128500000Y-103400000D03*
X128500000Y-104250000D03*
X128500000Y-105100000D03*
X128500000Y-105950000D03*
D13*
X127450000Y-107000000D03*
X126600000Y-107000000D03*
X125750000Y-107000000D03*
X124900000Y-107000000D03*
X124050000Y-107000000D03*
X123200000Y-107000000D03*
X122350000Y-107000000D03*
X121500000Y-107000000D03*
X120650000Y-107000000D03*
X119800000Y-107000000D03*
X118950000Y-107000000D03*
X118100000Y-107000000D03*
X117250000Y-107000000D03*
X116400000Y-107000000D03*
X115550000Y-107000000D03*
D14*
X114500000Y-105950000D03*
X114500000Y-105100000D03*
X114500000Y-104250000D03*
X114500000Y-103400000D03*
X114500000Y-102550000D03*
X114500000Y-101700000D03*
X114500000Y-100850000D03*
X114500000Y-100000000D03*
X114500000Y-99150000D03*
X114500000Y-98300000D03*
X114500000Y-97450000D03*
X114500000Y-96600000D03*
X114500000Y-95750000D03*
X114500000Y-94900000D03*
X114500000Y-94050000D03*
D15*
X123150000Y-101650000D03*
D16*
X114500000Y-93000000D03*
X128500000Y-93000000D03*
X128500000Y-107000000D03*
X114500000Y-107000000D03*
D17*
X119850000Y-98350000D03*
D15*
X119850000Y-100000000D03*
X119850000Y-101650000D03*
X121500000Y-98350000D03*
X121500000Y-100000000D03*
X121500000Y-101650000D03*
X123150000Y-98350000D03*
X123150000Y-100000000D03*
%TD*%
D18*
%TO.C,JP4*%
X138500000Y-103713000D03*
D19*
X138500000Y-102413000D03*
%TD*%
D20*
%TO.C,TP6*%
X132220000Y-120320000D03*
%TD*%
%TO.C,TP9*%
X142126000Y-79172000D03*
%TD*%
D21*
%TO.C,R4*%
X169915500Y-96625000D03*
X171740500Y-96625000D03*
%TD*%
D22*
%TO.C,J1*%
X131588567Y-125708154D03*
D23*
X129792516Y-123912103D03*
X127996465Y-122116052D03*
X126200413Y-120320000D03*
X124404362Y-118523949D03*
%TD*%
D20*
%TO.C,TP11*%
X146698000Y-111176000D03*
%TD*%
D24*
%TO.C,J7*%
X160160000Y-117780000D03*
D25*
X160160000Y-115240000D03*
%TD*%
D20*
%TO.C,TP29*%
X131000000Y-79000000D03*
%TD*%
D26*
%TO.C,R3*%
X141704000Y-102171500D03*
X141704000Y-103996500D03*
%TD*%
D24*
%TO.C,J2*%
X125362000Y-82220000D03*
D25*
X125362000Y-79680000D03*
%TD*%
D12*
%TO.C,R5*%
X146952000Y-85037500D03*
X146952000Y-83212500D03*
%TD*%
%TO.C,R1*%
X133250000Y-83662500D03*
X133250000Y-81837500D03*
%TD*%
D24*
%TO.C,J14*%
X160250000Y-84000000D03*
%TD*%
D27*
%TO.C,U3*%
X134387500Y-74800000D03*
X134387500Y-75750000D03*
X134387500Y-76700000D03*
X132112500Y-76700000D03*
X132112500Y-74800000D03*
%TD*%
D28*
%TO.C,U2*%
X149050000Y-119596500D03*
X150000000Y-119596500D03*
X150950000Y-119596500D03*
X150950000Y-122106500D03*
X150000000Y-122106500D03*
X149050000Y-122106500D03*
%TD*%
D20*
%TO.C,TP23*%
X144793000Y-79172000D03*
%TD*%
D24*
%TO.C,J6*%
X160160000Y-96444000D03*
D25*
X160160000Y-93904000D03*
%TD*%
D29*
%TO.C,C7*%
X141000000Y-98450000D03*
X141000000Y-96550000D03*
%TD*%
D24*
%TO.C,J4*%
X143838000Y-108636000D03*
D25*
X143838000Y-111176000D03*
%TD*%
D30*
%TO.C,C3*%
X117600000Y-85000000D03*
X119500000Y-85000000D03*
%TD*%
D31*
%TO.C,J11*%
X153750000Y-130000000D03*
X146250000Y-130000000D03*
D32*
X152750000Y-129135000D03*
X151250000Y-129135000D03*
X150750000Y-129135000D03*
X150250000Y-129135000D03*
X149750000Y-129135000D03*
X149250000Y-129135000D03*
X148750000Y-129135000D03*
X147250000Y-129135000D03*
X147250000Y-130865000D03*
X148750000Y-130865000D03*
X149250000Y-130865000D03*
X149750000Y-130865000D03*
X150250000Y-130865000D03*
X150750000Y-130865000D03*
X151250000Y-130865000D03*
X152750000Y-130865000D03*
D33*
X152400000Y-127850000D03*
X152400000Y-132150000D03*
X147600000Y-127850000D03*
X147600000Y-132150000D03*
%TD*%
D26*
%TO.C,R2*%
X143904000Y-102159000D03*
X143904000Y-103984000D03*
%TD*%
D20*
%TO.C,TP14*%
X165240000Y-96444000D03*
%TD*%
%TO.C,TP25*%
X150360000Y-92410000D03*
%TD*%
D26*
%TO.C,R7*%
X141000000Y-92837500D03*
X141000000Y-94662500D03*
%TD*%
D24*
%TO.C,J13*%
X160160000Y-129464000D03*
D25*
X160160000Y-126924000D03*
%TD*%
D26*
%TO.C,R8*%
X138750000Y-92837500D03*
X138750000Y-94662500D03*
%TD*%
D20*
%TO.C,TP17*%
X165240000Y-117780000D03*
%TD*%
%TO.C,TP20*%
X165240000Y-104572000D03*
%TD*%
%TO.C,TP1*%
X127521000Y-86157000D03*
%TD*%
%TO.C,TP30*%
X175250000Y-117780000D03*
%TD*%
D29*
%TO.C,C1*%
X131000000Y-83700000D03*
X131000000Y-81800000D03*
%TD*%
D20*
%TO.C,TP13*%
X165240000Y-93904000D03*
%TD*%
%TO.C,TP18*%
X180480000Y-107620000D03*
%TD*%
%TO.C,TP35*%
X148222000Y-101778000D03*
%TD*%
%TO.C,TP3*%
X129680000Y-115240000D03*
%TD*%
%TO.C,TP34*%
X156750000Y-87250000D03*
%TD*%
D18*
%TO.C,JP2*%
X136284000Y-111049000D03*
D19*
X136284000Y-109749000D03*
%TD*%
D20*
%TO.C,TP28*%
X131000000Y-72695000D03*
%TD*%
D24*
%TO.C,J15*%
X148222000Y-98476000D03*
%TD*%
D29*
%TO.C,C5*%
X136500000Y-98450000D03*
X136500000Y-96550000D03*
%TD*%
D20*
%TO.C,TP16*%
X180480000Y-110160000D03*
%TD*%
%TO.C,TP4*%
X129680000Y-117780000D03*
%TD*%
%TO.C,TP2*%
X131000000Y-86157000D03*
%TD*%
D24*
%TO.C,J3*%
X143904000Y-89073000D03*
D25*
X143904000Y-91613000D03*
%TD*%
D20*
%TO.C,TP22*%
X165240000Y-91110000D03*
%TD*%
D34*
%TO.C,JP1*%
X138984000Y-109749000D03*
D35*
X138984000Y-111049000D03*
%TD*%
D20*
%TO.C,TP7*%
X134760000Y-120320000D03*
%TD*%
D34*
%TO.C,JP3*%
X135800000Y-102413000D03*
D35*
X135800000Y-103713000D03*
%TD*%
D20*
%TO.C,TP19*%
X180530000Y-105080000D03*
%TD*%
D24*
%TO.C,J8*%
X160160000Y-107112000D03*
D25*
X160160000Y-104572000D03*
%TD*%
D20*
%TO.C,TP32*%
X170320000Y-117780000D03*
%TD*%
D34*
%TO.C,JP5*%
X151524000Y-97953000D03*
D35*
X151524000Y-99253000D03*
%TD*%
D36*
%TO.C,C9*%
X129750000Y-74800000D03*
X129750000Y-76700000D03*
%TD*%
D29*
%TO.C,C6*%
X138750000Y-98450000D03*
X138750000Y-96550000D03*
%TD*%
D20*
%TO.C,TP15*%
X165240000Y-115240000D03*
%TD*%
%TO.C,TP8*%
X139586000Y-79172000D03*
%TD*%
D26*
%TO.C,R9*%
X153900000Y-119939000D03*
X153900000Y-121764000D03*
%TD*%
D20*
%TO.C,TP12*%
X146698000Y-108636000D03*
%TD*%
D26*
%TO.C,R10*%
X146200000Y-119939000D03*
X146200000Y-121764000D03*
%TD*%
D20*
%TO.C,TP24*%
X152930000Y-92440000D03*
%TD*%
%TO.C,TP31*%
X175250000Y-122860000D03*
%TD*%
%TO.C,TP5*%
X132220000Y-117780000D03*
%TD*%
%TO.C,TP21*%
X165240000Y-107112000D03*
%TD*%
%TO.C,TP33*%
X170500000Y-122860000D03*
%TD*%
D37*
%TO.C,R6*%
X171098196Y-93904286D03*
X170161681Y-91586327D03*
X169225163Y-89268368D03*
D38*
X178525000Y-93600000D03*
X174778934Y-84328162D03*
%TD*%
D36*
%TO.C,C8*%
X136750000Y-74800000D03*
X136750000Y-76700000D03*
%TD*%
D24*
%TO.C,J12*%
X143904000Y-82728000D03*
D25*
X143904000Y-85268000D03*
%TD*%
D24*
%TO.C,J5*%
X176670000Y-105080000D03*
D25*
X176670000Y-107620000D03*
X176670000Y-110160000D03*
%TD*%
D39*
%TO.C,C4*%
X117200000Y-90750000D03*
X115300000Y-90750000D03*
%TD*%
D30*
%TO.C,C2*%
X117600000Y-87250000D03*
X119500000Y-87250000D03*
%TD*%
D24*
%TO.C,J10*%
X151275000Y-80000000D03*
D25*
X148735000Y-80000000D03*
%TD*%
M02*
