%TF.GenerationSoftware,KiCad,Pcbnew,8.0.2-1*%
%TF.CreationDate,2024-05-17T13:07:53+01:00*%
%TF.ProjectId,Pomodoro_V7,506f6d6f-646f-4726-9f5f-56372e6b6963,rev?*%
%TF.SameCoordinates,Original*%
%TF.FileFunction,Paste,Top*%
%TF.FilePolarity,Positive*%
%FSLAX46Y46*%
G04 Gerber Fmt 4.6, Leading zero omitted, Abs format (unit mm)*
G04 Created by KiCad (PCBNEW 8.0.2-1) date 2024-05-17 13:07:53*
%MOMM*%
%LPD*%
G01*
G04 APERTURE LIST*
G04 Aperture macros list*
%AMRotRect*
0 Rectangle, with rotation*
0 The origin of the aperture is its center*
0 $1 length*
0 $2 width*
0 $3 Rotation angle, in degrees counterclockwise*
0 Add horizontal line*
21,1,$1,$2,0,0,$3*%
G04 Aperture macros list end*
%ADD10R,0.700000X0.700000*%
%ADD11RotRect,0.700000X0.700000X78.750000*%
%ADD12RotRect,0.700000X0.700000X202.500000*%
%ADD13RotRect,0.700000X0.700000X337.500000*%
%ADD14RotRect,0.700000X0.700000X157.500000*%
%ADD15RotRect,0.700000X0.700000X67.500000*%
%ADD16RotRect,0.700000X0.700000X123.750000*%
%ADD17RotRect,0.700000X0.700000X326.250000*%
%ADD18RotRect,0.700000X0.700000X303.750000*%
%ADD19RotRect,0.700000X0.700000X56.250000*%
%ADD20RotRect,0.700000X0.700000X315.000000*%
%ADD21RotRect,0.700000X0.700000X247.500000*%
%ADD22RotRect,0.700000X0.700000X225.000000*%
%ADD23RotRect,0.700000X0.700000X45.000000*%
%ADD24RotRect,0.700000X0.700000X168.750000*%
%ADD25RotRect,0.700000X0.700000X22.500000*%
%ADD26RotRect,0.700000X0.700000X348.750000*%
%ADD27RotRect,0.700000X0.700000X112.500000*%
%ADD28RotRect,0.700000X0.700000X146.250000*%
%ADD29RotRect,0.700000X0.700000X258.750000*%
%ADD30RotRect,0.700000X0.700000X236.250000*%
%ADD31RotRect,0.700000X0.700000X135.000000*%
%ADD32RotRect,0.700000X0.700000X292.500000*%
%ADD33RotRect,0.700000X0.700000X101.250000*%
%ADD34RotRect,0.700000X0.700000X11.250000*%
%ADD35RotRect,0.700000X0.700000X33.750000*%
%ADD36RotRect,0.700000X0.700000X281.250000*%
%ADD37RotRect,0.700000X0.700000X191.250000*%
%ADD38RotRect,0.700000X0.700000X213.750000*%
G04 APERTURE END LIST*
D10*
%TO.C,D48*%
X150915000Y-75550000D03*
X150915000Y-74450000D03*
X149085000Y-74450000D03*
X149085000Y-75550000D03*
%TD*%
D11*
%TO.C,D9*%
X183609545Y-107618280D03*
X184688409Y-107832879D03*
X185045425Y-106038042D03*
X183966561Y-105823443D03*
%TD*%
D12*
%TO.C,D47*%
X141488741Y-77060990D03*
X141067789Y-76044723D03*
X139377089Y-76745034D03*
X139798041Y-77761301D03*
%TD*%
D10*
%TO.C,D50*%
X164450000Y-100915000D03*
X165550000Y-100915000D03*
X165550000Y-99085000D03*
X164450000Y-99085000D03*
%TD*%
D13*
%TO.C,D41*%
X139798040Y-122238699D03*
X139377088Y-123254966D03*
X141067788Y-123955277D03*
X141488740Y-122939010D03*
%TD*%
D10*
%TO.C,D54*%
X135550000Y-99085000D03*
X134450000Y-99085000D03*
X134450000Y-100915000D03*
X135550000Y-100915000D03*
%TD*%
%TO.C,D57*%
X154450000Y-100915000D03*
X155550000Y-100915000D03*
X155550000Y-99085000D03*
X154450000Y-99085000D03*
%TD*%
D14*
%TO.C,D33*%
X160201960Y-77761301D03*
X160622912Y-76745034D03*
X158932212Y-76044723D03*
X158511260Y-77060990D03*
%TD*%
D15*
%TO.C,D37*%
X172238699Y-110201960D03*
X173254966Y-110622912D03*
X173955277Y-108932212D03*
X172939010Y-108511260D03*
%TD*%
D16*
%TO.C,D5*%
X179152474Y-81621401D03*
X180067091Y-81010273D03*
X179050398Y-79488683D03*
X178135781Y-80099811D03*
%TD*%
D10*
%TO.C,D60*%
X150915000Y-95550000D03*
X150915000Y-94450000D03*
X149085000Y-94450000D03*
X149085000Y-95550000D03*
%TD*%
D17*
%TO.C,D19*%
X130099811Y-128135781D03*
X129488684Y-129050398D03*
X131010273Y-130067093D03*
X131621400Y-129152476D03*
%TD*%
D18*
%TO.C,D21*%
X120847526Y-118378599D03*
X119932909Y-118989727D03*
X120949602Y-120511317D03*
X121864219Y-119900189D03*
%TD*%
D10*
%TO.C,D44*%
X125550000Y-99085000D03*
X124450000Y-99085000D03*
X124450000Y-100915000D03*
X125550000Y-100915000D03*
%TD*%
D19*
%TO.C,D11*%
X178135781Y-119900189D03*
X179050398Y-120511316D03*
X180067093Y-118989727D03*
X179152476Y-118378600D03*
%TD*%
D20*
%TO.C,D42*%
X132064236Y-116641758D03*
X131286419Y-117419575D03*
X132580424Y-118713580D03*
X133358241Y-117935763D03*
%TD*%
D21*
%TO.C,D45*%
X127761301Y-89798040D03*
X126745034Y-89377088D03*
X126044723Y-91067788D03*
X127060990Y-91488740D03*
%TD*%
D22*
%TO.C,D28*%
X126287173Y-74993169D03*
X125509356Y-74215352D03*
X124215351Y-75509357D03*
X124993168Y-76287174D03*
%TD*%
D23*
%TO.C,D12*%
X173712827Y-125006831D03*
X174490644Y-125784648D03*
X175784649Y-124490643D03*
X175006832Y-123712826D03*
%TD*%
D10*
%TO.C,D32*%
X150915000Y-65550000D03*
X150915000Y-64450000D03*
X149085000Y-64450000D03*
X149085000Y-65550000D03*
%TD*%
%TO.C,D58*%
X149085000Y-104450000D03*
X149085000Y-105550000D03*
X150915000Y-105550000D03*
X150915000Y-104450000D03*
%TD*%
D24*
%TO.C,D1*%
X157618280Y-66390455D03*
X157832879Y-65311591D03*
X156038042Y-64954575D03*
X155823443Y-66033439D03*
%TD*%
D22*
%TO.C,D46*%
X133358242Y-82064236D03*
X132580425Y-81286419D03*
X131286420Y-82580424D03*
X132064237Y-83358241D03*
%TD*%
D25*
%TO.C,D14*%
X162338094Y-132177805D03*
X162759046Y-133194073D03*
X164449746Y-132493763D03*
X164028794Y-131477495D03*
%TD*%
D23*
%TO.C,D51*%
X159570691Y-110864696D03*
X160348508Y-111642513D03*
X161642513Y-110348508D03*
X160864696Y-109570691D03*
%TD*%
D26*
%TO.C,D17*%
X142381720Y-133609545D03*
X142167121Y-134688409D03*
X143961958Y-135045425D03*
X144176557Y-133966561D03*
%TD*%
D27*
%TO.C,D6*%
X182177805Y-87661906D03*
X183194073Y-87240954D03*
X182493763Y-85550254D03*
X181477495Y-85971206D03*
%TD*%
D28*
%TO.C,D3*%
X169900189Y-71864219D03*
X170511316Y-70949602D03*
X168989727Y-69932907D03*
X168378600Y-70847524D03*
%TD*%
D10*
%TO.C,D56*%
X150915000Y-85550000D03*
X150915000Y-84450000D03*
X149085000Y-84450000D03*
X149085000Y-85550000D03*
%TD*%
D21*
%TO.C,D26*%
X118522506Y-85971206D03*
X117506239Y-85550255D03*
X116805926Y-87240954D03*
X117822193Y-87661905D03*
%TD*%
D29*
%TO.C,D25*%
X116390455Y-92381720D03*
X115311591Y-92167121D03*
X114954575Y-93961958D03*
X116033439Y-94176557D03*
%TD*%
D30*
%TO.C,D27*%
X121864219Y-80099811D03*
X120949602Y-79488684D03*
X119932907Y-81010273D03*
X120847524Y-81621400D03*
%TD*%
D22*
%TO.C,D55*%
X140429309Y-89135304D03*
X139651492Y-88357487D03*
X138357487Y-89651492D03*
X139135304Y-90429309D03*
%TD*%
D31*
%TO.C,D4*%
X175006831Y-76287173D03*
X175784648Y-75509356D03*
X174490643Y-74215351D03*
X173712826Y-74993168D03*
%TD*%
D32*
%TO.C,D22*%
X117822195Y-112338094D03*
X116805927Y-112759046D03*
X117506237Y-114449746D03*
X118522505Y-114028794D03*
%TD*%
D12*
%TO.C,D30*%
X137661906Y-67822195D03*
X137240954Y-66805927D03*
X135550254Y-67506237D03*
X135971206Y-68522505D03*
%TD*%
D15*
%TO.C,D10*%
X181477494Y-114028794D03*
X182493761Y-114449745D03*
X183194074Y-112759046D03*
X182177807Y-112338095D03*
%TD*%
D13*
%TO.C,D18*%
X135971206Y-131477494D03*
X135550255Y-132493761D03*
X137240954Y-133194074D03*
X137661905Y-132177807D03*
%TD*%
D10*
%TO.C,D36*%
X174450000Y-100915000D03*
X175550000Y-100915000D03*
X175550000Y-99085000D03*
X174450000Y-99085000D03*
%TD*%
D33*
%TO.C,D7*%
X183966560Y-94176557D03*
X185045424Y-93961957D03*
X184688410Y-92167119D03*
X183609546Y-92381719D03*
%TD*%
D23*
%TO.C,D38*%
X166641758Y-117935764D03*
X167419575Y-118713581D03*
X168713580Y-117419576D03*
X167935763Y-116641759D03*
%TD*%
D34*
%TO.C,D15*%
X155823443Y-133966560D03*
X156038043Y-135045424D03*
X157832881Y-134688410D03*
X157618281Y-133609546D03*
%TD*%
D10*
%TO.C,D16*%
X149085000Y-134450000D03*
X149085000Y-135550000D03*
X150915000Y-135550000D03*
X150915000Y-134450000D03*
%TD*%
D31*
%TO.C,D49*%
X160864696Y-90429309D03*
X161642513Y-89651492D03*
X160348508Y-88357487D03*
X159570691Y-89135304D03*
%TD*%
D20*
%TO.C,D20*%
X124993169Y-123712827D03*
X124215352Y-124490644D03*
X125509357Y-125784649D03*
X126287174Y-125006832D03*
%TD*%
D35*
%TO.C,D13*%
X168378599Y-129152474D03*
X168989727Y-130067091D03*
X170511317Y-129050398D03*
X169900189Y-128135781D03*
%TD*%
D14*
%TO.C,D2*%
X164028794Y-68522506D03*
X164449745Y-67506239D03*
X162759046Y-66805926D03*
X162338095Y-67822193D03*
%TD*%
D10*
%TO.C,D24*%
X115550000Y-99085000D03*
X114450000Y-99085000D03*
X114450000Y-100915000D03*
X115550000Y-100915000D03*
%TD*%
D36*
%TO.C,D23*%
X116033440Y-105823443D03*
X114954576Y-106038043D03*
X115311590Y-107832881D03*
X116390454Y-107618281D03*
%TD*%
D31*
%TO.C,D34*%
X167935764Y-83358242D03*
X168713581Y-82580425D03*
X167419576Y-81286420D03*
X166641759Y-82064237D03*
%TD*%
D20*
%TO.C,D53*%
X139135304Y-109570691D03*
X138357487Y-110348508D03*
X139651492Y-111642513D03*
X140429309Y-110864696D03*
%TD*%
D37*
%TO.C,D31*%
X144176557Y-66033440D03*
X143961957Y-64954576D03*
X142167119Y-65311590D03*
X142381719Y-66390454D03*
%TD*%
D10*
%TO.C,D52*%
X149085000Y-114450000D03*
X149085000Y-115550000D03*
X150915000Y-115550000D03*
X150915000Y-114450000D03*
%TD*%
D27*
%TO.C,D35*%
X172939010Y-91488741D03*
X173955277Y-91067789D03*
X173254966Y-89377089D03*
X172238699Y-89798041D03*
%TD*%
D32*
%TO.C,D43*%
X127060990Y-108511259D03*
X126044723Y-108932211D03*
X126745034Y-110622911D03*
X127761301Y-110201959D03*
%TD*%
D25*
%TO.C,D39*%
X158511259Y-122939010D03*
X158932211Y-123955277D03*
X160622911Y-123254966D03*
X160201959Y-122238699D03*
%TD*%
D10*
%TO.C,D59*%
X145550000Y-99085000D03*
X144450000Y-99085000D03*
X144450000Y-100915000D03*
X145550000Y-100915000D03*
%TD*%
%TO.C,D40*%
X149085000Y-124450000D03*
X149085000Y-125550000D03*
X150915000Y-125550000D03*
X150915000Y-124450000D03*
%TD*%
%TO.C,D8*%
X184450000Y-100915000D03*
X185550000Y-100915000D03*
X185550000Y-99085000D03*
X184450000Y-99085000D03*
%TD*%
D38*
%TO.C,D29*%
X131621401Y-70847526D03*
X131010273Y-69932909D03*
X129488683Y-70949602D03*
X130099811Y-71864219D03*
%TD*%
M02*
