%TF.GenerationSoftware,KiCad,Pcbnew,8.0.2-1*%
%TF.CreationDate,2024-05-17T13:07:53+01:00*%
%TF.ProjectId,Pomodoro_V7,506f6d6f-646f-4726-9f5f-56372e6b6963,rev?*%
%TF.SameCoordinates,Original*%
%TF.FileFunction,Other,User*%
%FSLAX46Y46*%
G04 Gerber Fmt 4.6, Leading zero omitted, Abs format (unit mm)*
G04 Created by KiCad (PCBNEW 8.0.2-1) date 2024-05-17 13:07:53*
%MOMM*%
%LPD*%
G01*
G04 APERTURE LIST*
%ADD10C,0.050000*%
G04 APERTURE END LIST*
D10*
%TO.C,U1*%
X144750000Y-98750000D02*
X144750000Y-96250000D01*
X142250000Y-98750000D02*
X144750000Y-98750000D01*
X144750000Y-96250000D02*
X142250000Y-96250000D01*
X142250000Y-96250000D02*
X142250000Y-98750000D01*
%TO.C,R11*%
X155800000Y-82407500D02*
X157700000Y-82407500D01*
X155800000Y-85767500D02*
X155800000Y-82407500D01*
X157700000Y-82407500D02*
X157700000Y-85767500D01*
X157700000Y-85767500D02*
X155800000Y-85767500D01*
%TO.C,IC1*%
X94200000Y-77300000D02*
X113700000Y-77300000D01*
X94200000Y-122700000D02*
X94200000Y-77300000D01*
X94200000Y-122700000D02*
X113700000Y-122700000D01*
X113700000Y-77300000D02*
X113700000Y-92050000D01*
X113700000Y-92050000D02*
X129450000Y-92050000D01*
X113700000Y-122700000D02*
X113700000Y-107950000D01*
X129450000Y-92050000D02*
X129450000Y-107950000D01*
X129450000Y-107950000D02*
X113700000Y-107950000D01*
%TO.C,JP4*%
X137250000Y-104713000D02*
X137250000Y-101413000D01*
X137250000Y-104713000D02*
X139750000Y-104713000D01*
X139750000Y-101413000D02*
X137250000Y-101413000D01*
X139750000Y-101413000D02*
X139750000Y-104713000D01*
%TO.C,TP6*%
X133220000Y-120320000D02*
G75*
G02*
X131220000Y-120320000I-1000000J0D01*
G01*
X131220000Y-120320000D02*
G75*
G02*
X133220000Y-120320000I1000000J0D01*
G01*
%TO.C,TP9*%
X143126000Y-79172000D02*
G75*
G02*
X141126000Y-79172000I-1000000J0D01*
G01*
X141126000Y-79172000D02*
G75*
G02*
X143126000Y-79172000I1000000J0D01*
G01*
%TO.C,R4*%
X169148000Y-95675000D02*
X172508000Y-95675000D01*
X169148000Y-97575000D02*
X169148000Y-95675000D01*
X172508000Y-95675000D02*
X172508000Y-97575000D01*
X172508000Y-97575000D02*
X169148000Y-97575000D01*
%TO.C,J1*%
X121865849Y-118531020D02*
X131588567Y-128253738D01*
X124411433Y-115985436D02*
X121865849Y-118531020D01*
X131588567Y-128253738D02*
X134134151Y-125708154D01*
X134134151Y-125708154D02*
X124411433Y-115985436D01*
%TO.C,TP11*%
X147698000Y-111176000D02*
G75*
G02*
X145698000Y-111176000I-1000000J0D01*
G01*
X145698000Y-111176000D02*
G75*
G02*
X147698000Y-111176000I1000000J0D01*
G01*
%TO.C,J7*%
X158360000Y-113430000D02*
X158360000Y-119580000D01*
X158360000Y-119580000D02*
X161960000Y-119580000D01*
X161960000Y-113430000D02*
X158360000Y-113430000D01*
X161960000Y-119580000D02*
X161960000Y-113430000D01*
%TO.C,TP29*%
X132000000Y-79000000D02*
G75*
G02*
X130000000Y-79000000I-1000000J0D01*
G01*
X130000000Y-79000000D02*
G75*
G02*
X132000000Y-79000000I1000000J0D01*
G01*
%TO.C,R3*%
X140754000Y-101404000D02*
X142654000Y-101404000D01*
X140754000Y-104764000D02*
X140754000Y-101404000D01*
X142654000Y-101404000D02*
X142654000Y-104764000D01*
X142654000Y-104764000D02*
X140754000Y-104764000D01*
%TO.C,J2*%
X123562000Y-77870000D02*
X123562000Y-84020000D01*
X123562000Y-84020000D02*
X127162000Y-84020000D01*
X127162000Y-77870000D02*
X123562000Y-77870000D01*
X127162000Y-84020000D02*
X127162000Y-77870000D01*
%TO.C,R5*%
X146002000Y-82445000D02*
X147902000Y-82445000D01*
X146002000Y-85805000D02*
X146002000Y-82445000D01*
X147902000Y-82445000D02*
X147902000Y-85805000D01*
X147902000Y-85805000D02*
X146002000Y-85805000D01*
%TO.C,R1*%
X132300000Y-81070000D02*
X134200000Y-81070000D01*
X132300000Y-84430000D02*
X132300000Y-81070000D01*
X134200000Y-81070000D02*
X134200000Y-84430000D01*
X134200000Y-84430000D02*
X132300000Y-84430000D01*
%TO.C,J14*%
X158450000Y-82200000D02*
X158450000Y-85800000D01*
X158450000Y-85800000D02*
X162050000Y-85800000D01*
X162050000Y-82200000D02*
X158450000Y-82200000D01*
X162050000Y-85800000D02*
X162050000Y-82200000D01*
%TO.C,U3*%
X131200000Y-74050000D02*
X131200000Y-77450000D01*
X131200000Y-77450000D02*
X135300000Y-77450000D01*
X135300000Y-74050000D02*
X131200000Y-74050000D01*
X135300000Y-77450000D02*
X135300000Y-74050000D01*
%TO.C,U2*%
X148287500Y-118741500D02*
X148287500Y-122961500D01*
X148287500Y-122961500D02*
X151712500Y-122961500D01*
X151712500Y-118741500D02*
X148287500Y-118741500D01*
X151712500Y-122961500D02*
X151712500Y-118741500D01*
%TO.C,TP23*%
X145793000Y-79172000D02*
G75*
G02*
X143793000Y-79172000I-1000000J0D01*
G01*
X143793000Y-79172000D02*
G75*
G02*
X145793000Y-79172000I1000000J0D01*
G01*
%TO.C,J6*%
X158360000Y-92094000D02*
X158360000Y-98244000D01*
X158360000Y-98244000D02*
X161960000Y-98244000D01*
X161960000Y-92094000D02*
X158360000Y-92094000D01*
X161960000Y-98244000D02*
X161960000Y-92094000D01*
%TO.C,C7*%
X140020000Y-95800000D02*
X141980000Y-95800000D01*
X140020000Y-99200000D02*
X140020000Y-95800000D01*
X141980000Y-95800000D02*
X141980000Y-99200000D01*
X141980000Y-99200000D02*
X140020000Y-99200000D01*
%TO.C,J4*%
X142038000Y-106836000D02*
X142038000Y-112986000D01*
X142038000Y-112986000D02*
X145638000Y-112986000D01*
X145638000Y-106836000D02*
X142038000Y-106836000D01*
X145638000Y-112986000D02*
X145638000Y-106836000D01*
%TO.C,C3*%
X116850000Y-84020000D02*
X120250000Y-84020000D01*
X116850000Y-85980000D02*
X116850000Y-84020000D01*
X120250000Y-84020000D02*
X120250000Y-85980000D01*
X120250000Y-85980000D02*
X116850000Y-85980000D01*
%TO.C,J11*%
X145280000Y-127050000D02*
X154720000Y-127050000D01*
X145280000Y-132950000D02*
X145280000Y-127050000D01*
X154720000Y-127050000D02*
X154720000Y-132950000D01*
X154720000Y-132950000D02*
X145280000Y-132950000D01*
%TO.C,R2*%
X142954000Y-101391500D02*
X144854000Y-101391500D01*
X142954000Y-104751500D02*
X142954000Y-101391500D01*
X144854000Y-101391500D02*
X144854000Y-104751500D01*
X144854000Y-104751500D02*
X142954000Y-104751500D01*
%TO.C,TP14*%
X166240000Y-96444000D02*
G75*
G02*
X164240000Y-96444000I-1000000J0D01*
G01*
X164240000Y-96444000D02*
G75*
G02*
X166240000Y-96444000I1000000J0D01*
G01*
%TO.C,TP25*%
X151360000Y-92410000D02*
G75*
G02*
X149360000Y-92410000I-1000000J0D01*
G01*
X149360000Y-92410000D02*
G75*
G02*
X151360000Y-92410000I1000000J0D01*
G01*
%TO.C,R7*%
X140050000Y-92070000D02*
X141950000Y-92070000D01*
X140050000Y-95430000D02*
X140050000Y-92070000D01*
X141950000Y-92070000D02*
X141950000Y-95430000D01*
X141950000Y-95430000D02*
X140050000Y-95430000D01*
%TO.C,J13*%
X158360000Y-125114000D02*
X158360000Y-131264000D01*
X158360000Y-131264000D02*
X161960000Y-131264000D01*
X161960000Y-125114000D02*
X158360000Y-125114000D01*
X161960000Y-131264000D02*
X161960000Y-125114000D01*
%TO.C,R8*%
X137800000Y-92070000D02*
X139700000Y-92070000D01*
X137800000Y-95430000D02*
X137800000Y-92070000D01*
X139700000Y-92070000D02*
X139700000Y-95430000D01*
X139700000Y-95430000D02*
X137800000Y-95430000D01*
%TO.C,TP17*%
X166240000Y-117780000D02*
G75*
G02*
X164240000Y-117780000I-1000000J0D01*
G01*
X164240000Y-117780000D02*
G75*
G02*
X166240000Y-117780000I1000000J0D01*
G01*
%TO.C,TP20*%
X166240000Y-104572000D02*
G75*
G02*
X164240000Y-104572000I-1000000J0D01*
G01*
X164240000Y-104572000D02*
G75*
G02*
X166240000Y-104572000I1000000J0D01*
G01*
%TO.C,TP1*%
X128521000Y-86157000D02*
G75*
G02*
X126521000Y-86157000I-1000000J0D01*
G01*
X126521000Y-86157000D02*
G75*
G02*
X128521000Y-86157000I1000000J0D01*
G01*
%TO.C,TP30*%
X176250000Y-117780000D02*
G75*
G02*
X174250000Y-117780000I-1000000J0D01*
G01*
X174250000Y-117780000D02*
G75*
G02*
X176250000Y-117780000I1000000J0D01*
G01*
%TO.C,C1*%
X130020000Y-81050000D02*
X131980000Y-81050000D01*
X130020000Y-84450000D02*
X130020000Y-81050000D01*
X131980000Y-81050000D02*
X131980000Y-84450000D01*
X131980000Y-84450000D02*
X130020000Y-84450000D01*
%TO.C,TP13*%
X166240000Y-93904000D02*
G75*
G02*
X164240000Y-93904000I-1000000J0D01*
G01*
X164240000Y-93904000D02*
G75*
G02*
X166240000Y-93904000I1000000J0D01*
G01*
%TO.C,TP18*%
X181480000Y-107620000D02*
G75*
G02*
X179480000Y-107620000I-1000000J0D01*
G01*
X179480000Y-107620000D02*
G75*
G02*
X181480000Y-107620000I1000000J0D01*
G01*
%TO.C,TP35*%
X149222000Y-101778000D02*
G75*
G02*
X147222000Y-101778000I-1000000J0D01*
G01*
X147222000Y-101778000D02*
G75*
G02*
X149222000Y-101778000I1000000J0D01*
G01*
%TO.C,TP3*%
X130680000Y-115240000D02*
G75*
G02*
X128680000Y-115240000I-1000000J0D01*
G01*
X128680000Y-115240000D02*
G75*
G02*
X130680000Y-115240000I1000000J0D01*
G01*
%TO.C,TP34*%
X157750000Y-87250000D02*
G75*
G02*
X155750000Y-87250000I-1000000J0D01*
G01*
X155750000Y-87250000D02*
G75*
G02*
X157750000Y-87250000I1000000J0D01*
G01*
%TO.C,JP2*%
X135034000Y-112049000D02*
X135034000Y-108749000D01*
X135034000Y-112049000D02*
X137534000Y-112049000D01*
X137534000Y-108749000D02*
X135034000Y-108749000D01*
X137534000Y-108749000D02*
X137534000Y-112049000D01*
%TO.C,TP28*%
X132000000Y-72695000D02*
G75*
G02*
X130000000Y-72695000I-1000000J0D01*
G01*
X130000000Y-72695000D02*
G75*
G02*
X132000000Y-72695000I1000000J0D01*
G01*
%TO.C,J15*%
X146422000Y-96676000D02*
X146422000Y-100276000D01*
X146422000Y-100276000D02*
X150022000Y-100276000D01*
X150022000Y-96676000D02*
X146422000Y-96676000D01*
X150022000Y-100276000D02*
X150022000Y-96676000D01*
%TO.C,C5*%
X135520000Y-95800000D02*
X137480000Y-95800000D01*
X135520000Y-99200000D02*
X135520000Y-95800000D01*
X137480000Y-95800000D02*
X137480000Y-99200000D01*
X137480000Y-99200000D02*
X135520000Y-99200000D01*
%TO.C,TP16*%
X181480000Y-110160000D02*
G75*
G02*
X179480000Y-110160000I-1000000J0D01*
G01*
X179480000Y-110160000D02*
G75*
G02*
X181480000Y-110160000I1000000J0D01*
G01*
%TO.C,TP4*%
X130680000Y-117780000D02*
G75*
G02*
X128680000Y-117780000I-1000000J0D01*
G01*
X128680000Y-117780000D02*
G75*
G02*
X130680000Y-117780000I1000000J0D01*
G01*
%TO.C,TP2*%
X132000000Y-86157000D02*
G75*
G02*
X130000000Y-86157000I-1000000J0D01*
G01*
X130000000Y-86157000D02*
G75*
G02*
X132000000Y-86157000I1000000J0D01*
G01*
%TO.C,J3*%
X142104000Y-87273000D02*
X142104000Y-93423000D01*
X142104000Y-93423000D02*
X145704000Y-93423000D01*
X145704000Y-87273000D02*
X142104000Y-87273000D01*
X145704000Y-93423000D02*
X145704000Y-87273000D01*
%TO.C,TP22*%
X166240000Y-91110000D02*
G75*
G02*
X164240000Y-91110000I-1000000J0D01*
G01*
X164240000Y-91110000D02*
G75*
G02*
X166240000Y-91110000I1000000J0D01*
G01*
%TO.C,JP1*%
X137734000Y-112049000D02*
X137734000Y-108749000D01*
X137734000Y-112049000D02*
X140234000Y-112049000D01*
X140234000Y-108749000D02*
X137734000Y-108749000D01*
X140234000Y-108749000D02*
X140234000Y-112049000D01*
%TO.C,TP7*%
X135760000Y-120320000D02*
G75*
G02*
X133760000Y-120320000I-1000000J0D01*
G01*
X133760000Y-120320000D02*
G75*
G02*
X135760000Y-120320000I1000000J0D01*
G01*
%TO.C,JP3*%
X134550000Y-104713000D02*
X134550000Y-101413000D01*
X134550000Y-104713000D02*
X137050000Y-104713000D01*
X137050000Y-101413000D02*
X134550000Y-101413000D01*
X137050000Y-101413000D02*
X137050000Y-104713000D01*
%TO.C,TP19*%
X181530000Y-105080000D02*
G75*
G02*
X179530000Y-105080000I-1000000J0D01*
G01*
X179530000Y-105080000D02*
G75*
G02*
X181530000Y-105080000I1000000J0D01*
G01*
%TO.C,J8*%
X158360000Y-102762000D02*
X158360000Y-108912000D01*
X158360000Y-108912000D02*
X161960000Y-108912000D01*
X161960000Y-102762000D02*
X158360000Y-102762000D01*
X161960000Y-108912000D02*
X161960000Y-102762000D01*
%TO.C,TP32*%
X171320000Y-117780000D02*
G75*
G02*
X169320000Y-117780000I-1000000J0D01*
G01*
X169320000Y-117780000D02*
G75*
G02*
X171320000Y-117780000I1000000J0D01*
G01*
%TO.C,JP5*%
X150274000Y-100253000D02*
X150274000Y-96953000D01*
X150274000Y-100253000D02*
X152774000Y-100253000D01*
X152774000Y-96953000D02*
X150274000Y-96953000D01*
X152774000Y-96953000D02*
X152774000Y-100253000D01*
%TO.C,C9*%
X128770000Y-74050000D02*
X130730000Y-74050000D01*
X128770000Y-77450000D02*
X128770000Y-74050000D01*
X130730000Y-74050000D02*
X130730000Y-77450000D01*
X130730000Y-77450000D02*
X128770000Y-77450000D01*
%TO.C,C6*%
X137770000Y-95800000D02*
X139730000Y-95800000D01*
X137770000Y-99200000D02*
X137770000Y-95800000D01*
X139730000Y-95800000D02*
X139730000Y-99200000D01*
X139730000Y-99200000D02*
X137770000Y-99200000D01*
%TO.C,TP15*%
X166240000Y-115240000D02*
G75*
G02*
X164240000Y-115240000I-1000000J0D01*
G01*
X164240000Y-115240000D02*
G75*
G02*
X166240000Y-115240000I1000000J0D01*
G01*
%TO.C,TP8*%
X140586000Y-79172000D02*
G75*
G02*
X138586000Y-79172000I-1000000J0D01*
G01*
X138586000Y-79172000D02*
G75*
G02*
X140586000Y-79172000I1000000J0D01*
G01*
%TO.C,R9*%
X152950000Y-119171500D02*
X154850000Y-119171500D01*
X152950000Y-122531500D02*
X152950000Y-119171500D01*
X154850000Y-119171500D02*
X154850000Y-122531500D01*
X154850000Y-122531500D02*
X152950000Y-122531500D01*
%TO.C,TP12*%
X147698000Y-108636000D02*
G75*
G02*
X145698000Y-108636000I-1000000J0D01*
G01*
X145698000Y-108636000D02*
G75*
G02*
X147698000Y-108636000I1000000J0D01*
G01*
%TO.C,R10*%
X145250000Y-119171500D02*
X147150000Y-119171500D01*
X145250000Y-122531500D02*
X145250000Y-119171500D01*
X147150000Y-119171500D02*
X147150000Y-122531500D01*
X147150000Y-122531500D02*
X145250000Y-122531500D01*
%TO.C,TP24*%
X153930000Y-92440000D02*
G75*
G02*
X151930000Y-92440000I-1000000J0D01*
G01*
X151930000Y-92440000D02*
G75*
G02*
X153930000Y-92440000I1000000J0D01*
G01*
%TO.C,TP31*%
X176250000Y-122860000D02*
G75*
G02*
X174250000Y-122860000I-1000000J0D01*
G01*
X174250000Y-122860000D02*
G75*
G02*
X176250000Y-122860000I1000000J0D01*
G01*
%TO.C,TP5*%
X133220000Y-117780000D02*
G75*
G02*
X131220000Y-117780000I-1000000J0D01*
G01*
X131220000Y-117780000D02*
G75*
G02*
X133220000Y-117780000I1000000J0D01*
G01*
%TO.C,TP21*%
X166240000Y-107112000D02*
G75*
G02*
X164240000Y-107112000I-1000000J0D01*
G01*
X164240000Y-107112000D02*
G75*
G02*
X166240000Y-107112000I1000000J0D01*
G01*
%TO.C,TP33*%
X171500000Y-122860000D02*
G75*
G02*
X169500000Y-122860000I-1000000J0D01*
G01*
X169500000Y-122860000D02*
G75*
G02*
X171500000Y-122860000I1000000J0D01*
G01*
%TO.C,C8*%
X135770000Y-74050000D02*
X137730000Y-74050000D01*
X135770000Y-77450000D02*
X135770000Y-74050000D01*
X137730000Y-74050000D02*
X137730000Y-77450000D01*
X137730000Y-77450000D02*
X135770000Y-77450000D01*
%TO.C,J12*%
X142104000Y-80928000D02*
X142104000Y-87078000D01*
X142104000Y-87078000D02*
X145704000Y-87078000D01*
X145704000Y-80928000D02*
X142104000Y-80928000D01*
X145704000Y-87078000D02*
X145704000Y-80928000D01*
%TO.C,J5*%
X174870000Y-103280000D02*
X174870000Y-111930000D01*
X174870000Y-111930000D02*
X178470000Y-111930000D01*
X178470000Y-103280000D02*
X174870000Y-103280000D01*
X178470000Y-111930000D02*
X178470000Y-103280000D01*
%TO.C,C4*%
X114550000Y-89770000D02*
X117950000Y-89770000D01*
X114550000Y-91730000D02*
X114550000Y-89770000D01*
X117950000Y-89770000D02*
X117950000Y-91730000D01*
X117950000Y-91730000D02*
X114550000Y-91730000D01*
%TO.C,C2*%
X116850000Y-86270000D02*
X120250000Y-86270000D01*
X116850000Y-88230000D02*
X116850000Y-86270000D01*
X120250000Y-86270000D02*
X120250000Y-88230000D01*
X120250000Y-88230000D02*
X116850000Y-88230000D01*
%TO.C,J10*%
X146925000Y-69450000D02*
X146925000Y-81800000D01*
X146925000Y-81800000D02*
X153075000Y-81800000D01*
X153075000Y-69450000D02*
X146925000Y-69450000D01*
X153075000Y-81800000D02*
X153075000Y-69450000D01*
%TD*%
M02*
