%TF.GenerationSoftware,KiCad,Pcbnew,8.0.2-1*%
%TF.CreationDate,2024-05-17T13:07:53+01:00*%
%TF.ProjectId,Pomodoro_V7,506f6d6f-646f-4726-9f5f-56372e6b6963,rev?*%
%TF.SameCoordinates,Original*%
%TF.FileFunction,AssemblyDrawing,Top*%
%FSLAX46Y46*%
G04 Gerber Fmt 4.6, Leading zero omitted, Abs format (unit mm)*
G04 Created by KiCad (PCBNEW 8.0.2-1) date 2024-05-17 13:07:53*
%MOMM*%
%LPD*%
G01*
G04 APERTURE LIST*
%ADD10C,0.075000*%
%ADD11C,0.100000*%
G04 APERTURE END LIST*
D10*
X149392857Y-75227409D02*
X149392857Y-74727409D01*
X149392857Y-74727409D02*
X149511905Y-74727409D01*
X149511905Y-74727409D02*
X149583333Y-74751219D01*
X149583333Y-74751219D02*
X149630952Y-74798838D01*
X149630952Y-74798838D02*
X149654762Y-74846457D01*
X149654762Y-74846457D02*
X149678571Y-74941695D01*
X149678571Y-74941695D02*
X149678571Y-75013123D01*
X149678571Y-75013123D02*
X149654762Y-75108361D01*
X149654762Y-75108361D02*
X149630952Y-75155980D01*
X149630952Y-75155980D02*
X149583333Y-75203600D01*
X149583333Y-75203600D02*
X149511905Y-75227409D01*
X149511905Y-75227409D02*
X149392857Y-75227409D01*
X150107143Y-74894076D02*
X150107143Y-75227409D01*
X149988095Y-74703600D02*
X149869048Y-75060742D01*
X149869048Y-75060742D02*
X150178571Y-75060742D01*
X150440476Y-74941695D02*
X150392857Y-74917885D01*
X150392857Y-74917885D02*
X150369047Y-74894076D01*
X150369047Y-74894076D02*
X150345238Y-74846457D01*
X150345238Y-74846457D02*
X150345238Y-74822647D01*
X150345238Y-74822647D02*
X150369047Y-74775028D01*
X150369047Y-74775028D02*
X150392857Y-74751219D01*
X150392857Y-74751219D02*
X150440476Y-74727409D01*
X150440476Y-74727409D02*
X150535714Y-74727409D01*
X150535714Y-74727409D02*
X150583333Y-74751219D01*
X150583333Y-74751219D02*
X150607142Y-74775028D01*
X150607142Y-74775028D02*
X150630952Y-74822647D01*
X150630952Y-74822647D02*
X150630952Y-74846457D01*
X150630952Y-74846457D02*
X150607142Y-74894076D01*
X150607142Y-74894076D02*
X150583333Y-74917885D01*
X150583333Y-74917885D02*
X150535714Y-74941695D01*
X150535714Y-74941695D02*
X150440476Y-74941695D01*
X150440476Y-74941695D02*
X150392857Y-74965504D01*
X150392857Y-74965504D02*
X150369047Y-74989314D01*
X150369047Y-74989314D02*
X150345238Y-75036933D01*
X150345238Y-75036933D02*
X150345238Y-75132171D01*
X150345238Y-75132171D02*
X150369047Y-75179790D01*
X150369047Y-75179790D02*
X150392857Y-75203600D01*
X150392857Y-75203600D02*
X150440476Y-75227409D01*
X150440476Y-75227409D02*
X150535714Y-75227409D01*
X150535714Y-75227409D02*
X150583333Y-75203600D01*
X150583333Y-75203600D02*
X150607142Y-75179790D01*
X150607142Y-75179790D02*
X150630952Y-75132171D01*
X150630952Y-75132171D02*
X150630952Y-75036933D01*
X150630952Y-75036933D02*
X150607142Y-74989314D01*
X150607142Y-74989314D02*
X150583333Y-74965504D01*
X150583333Y-74965504D02*
X150535714Y-74941695D01*
X184478527Y-107234482D02*
X183988134Y-107136937D01*
X183988134Y-107136937D02*
X184011359Y-107020177D01*
X184011359Y-107020177D02*
X184048646Y-106954766D01*
X184048646Y-106954766D02*
X184104640Y-106917352D01*
X184104640Y-106917352D02*
X184155989Y-106903290D01*
X184155989Y-106903290D02*
X184254043Y-106898518D01*
X184254043Y-106898518D02*
X184324099Y-106912453D01*
X184324099Y-106912453D02*
X184412862Y-106954385D01*
X184412862Y-106954385D02*
X184454921Y-106987027D01*
X184454921Y-106987027D02*
X184492335Y-107043021D01*
X184492335Y-107043021D02*
X184501752Y-107117722D01*
X184501752Y-107117722D02*
X184478527Y-107234482D01*
X184580717Y-106720737D02*
X184599297Y-106627329D01*
X184599297Y-106627329D02*
X184585235Y-106575980D01*
X184585235Y-106575980D02*
X184566528Y-106547983D01*
X184566528Y-106547983D02*
X184505762Y-106487344D01*
X184505762Y-106487344D02*
X184416999Y-106445412D01*
X184416999Y-106445412D02*
X184230183Y-106408252D01*
X184230183Y-106408252D02*
X184178833Y-106422314D01*
X184178833Y-106422314D02*
X184150836Y-106441021D01*
X184150836Y-106441021D02*
X184118194Y-106483080D01*
X184118194Y-106483080D02*
X184099614Y-106576488D01*
X184099614Y-106576488D02*
X184113676Y-106627837D01*
X184113676Y-106627837D02*
X184132383Y-106655834D01*
X184132383Y-106655834D02*
X184174442Y-106688476D01*
X184174442Y-106688476D02*
X184291203Y-106711701D01*
X184291203Y-106711701D02*
X184342552Y-106697639D01*
X184342552Y-106697639D02*
X184370549Y-106678932D01*
X184370549Y-106678932D02*
X184403191Y-106636873D01*
X184403191Y-106636873D02*
X184421771Y-106543465D01*
X184421771Y-106543465D02*
X184407709Y-106492116D01*
X184407709Y-106492116D02*
X184389002Y-106464119D01*
X184389002Y-106464119D02*
X184346943Y-106431477D01*
X139959014Y-77345454D02*
X139767672Y-76883514D01*
X139767672Y-76883514D02*
X139877658Y-76837957D01*
X139877658Y-76837957D02*
X139952761Y-76832619D01*
X139952761Y-76832619D02*
X140014978Y-76858390D01*
X140014978Y-76858390D02*
X140055198Y-76893273D01*
X140055198Y-76893273D02*
X140113641Y-76972150D01*
X140113641Y-76972150D02*
X140140976Y-77038142D01*
X140140976Y-77038142D02*
X140155425Y-77135242D01*
X140155425Y-77135242D02*
X140151651Y-77188347D01*
X140151651Y-77188347D02*
X140125879Y-77250565D01*
X140125879Y-77250565D02*
X140069000Y-77299896D01*
X140069000Y-77299896D02*
X139959014Y-77345454D01*
X140491367Y-76764149D02*
X140618928Y-77072109D01*
X140308489Y-76633729D02*
X140335176Y-77009244D01*
X140335176Y-77009244D02*
X140621139Y-76890794D01*
X140625560Y-76528165D02*
X140933520Y-76400604D01*
X140933520Y-76400604D02*
X140926887Y-76944548D01*
X165227409Y-100607142D02*
X164727409Y-100607142D01*
X164727409Y-100607142D02*
X164727409Y-100488094D01*
X164727409Y-100488094D02*
X164751219Y-100416666D01*
X164751219Y-100416666D02*
X164798838Y-100369047D01*
X164798838Y-100369047D02*
X164846457Y-100345237D01*
X164846457Y-100345237D02*
X164941695Y-100321428D01*
X164941695Y-100321428D02*
X165013123Y-100321428D01*
X165013123Y-100321428D02*
X165108361Y-100345237D01*
X165108361Y-100345237D02*
X165155980Y-100369047D01*
X165155980Y-100369047D02*
X165203600Y-100416666D01*
X165203600Y-100416666D02*
X165227409Y-100488094D01*
X165227409Y-100488094D02*
X165227409Y-100607142D01*
X164727409Y-99869047D02*
X164727409Y-100107142D01*
X164727409Y-100107142D02*
X164965504Y-100130951D01*
X164965504Y-100130951D02*
X164941695Y-100107142D01*
X164941695Y-100107142D02*
X164917885Y-100059523D01*
X164917885Y-100059523D02*
X164917885Y-99940475D01*
X164917885Y-99940475D02*
X164941695Y-99892856D01*
X164941695Y-99892856D02*
X164965504Y-99869047D01*
X164965504Y-99869047D02*
X165013123Y-99845237D01*
X165013123Y-99845237D02*
X165132171Y-99845237D01*
X165132171Y-99845237D02*
X165179790Y-99869047D01*
X165179790Y-99869047D02*
X165203600Y-99892856D01*
X165203600Y-99892856D02*
X165227409Y-99940475D01*
X165227409Y-99940475D02*
X165227409Y-100059523D01*
X165227409Y-100059523D02*
X165203600Y-100107142D01*
X165203600Y-100107142D02*
X165179790Y-100130951D01*
X164727409Y-99535714D02*
X164727409Y-99488095D01*
X164727409Y-99488095D02*
X164751219Y-99440476D01*
X164751219Y-99440476D02*
X164775028Y-99416666D01*
X164775028Y-99416666D02*
X164822647Y-99392857D01*
X164822647Y-99392857D02*
X164917885Y-99369047D01*
X164917885Y-99369047D02*
X165036933Y-99369047D01*
X165036933Y-99369047D02*
X165132171Y-99392857D01*
X165132171Y-99392857D02*
X165179790Y-99416666D01*
X165179790Y-99416666D02*
X165203600Y-99440476D01*
X165203600Y-99440476D02*
X165227409Y-99488095D01*
X165227409Y-99488095D02*
X165227409Y-99535714D01*
X165227409Y-99535714D02*
X165203600Y-99583333D01*
X165203600Y-99583333D02*
X165179790Y-99607142D01*
X165179790Y-99607142D02*
X165132171Y-99630952D01*
X165132171Y-99630952D02*
X165036933Y-99654761D01*
X165036933Y-99654761D02*
X164917885Y-99654761D01*
X164917885Y-99654761D02*
X164822647Y-99630952D01*
X164822647Y-99630952D02*
X164775028Y-99607142D01*
X164775028Y-99607142D02*
X164751219Y-99583333D01*
X164751219Y-99583333D02*
X164727409Y-99535714D01*
X139784961Y-123074743D02*
X139976303Y-122612803D01*
X139976303Y-122612803D02*
X140086289Y-122658361D01*
X140086289Y-122658361D02*
X140143168Y-122707693D01*
X140143168Y-122707693D02*
X140168940Y-122769910D01*
X140168940Y-122769910D02*
X140172714Y-122823016D01*
X140172714Y-122823016D02*
X140158265Y-122920116D01*
X140158265Y-122920116D02*
X140130930Y-122986107D01*
X140130930Y-122986107D02*
X140072487Y-123064984D01*
X140072487Y-123064984D02*
X140032267Y-123099867D01*
X140032267Y-123099867D02*
X139970050Y-123125638D01*
X139970050Y-123125638D02*
X139894947Y-123120301D01*
X139894947Y-123120301D02*
X139784961Y-123074743D01*
X140572436Y-123040129D02*
X140444875Y-123348088D01*
X140535343Y-122818594D02*
X140288684Y-123102993D01*
X140288684Y-123102993D02*
X140574647Y-123221443D01*
X140928812Y-123548542D02*
X140664846Y-123439203D01*
X140796829Y-123493872D02*
X140988171Y-123031933D01*
X140988171Y-123031933D02*
X140916842Y-123079701D01*
X140916842Y-123079701D02*
X140854624Y-123105472D01*
X140854624Y-123105472D02*
X140801519Y-123109246D01*
X135227409Y-100607142D02*
X134727409Y-100607142D01*
X134727409Y-100607142D02*
X134727409Y-100488094D01*
X134727409Y-100488094D02*
X134751219Y-100416666D01*
X134751219Y-100416666D02*
X134798838Y-100369047D01*
X134798838Y-100369047D02*
X134846457Y-100345237D01*
X134846457Y-100345237D02*
X134941695Y-100321428D01*
X134941695Y-100321428D02*
X135013123Y-100321428D01*
X135013123Y-100321428D02*
X135108361Y-100345237D01*
X135108361Y-100345237D02*
X135155980Y-100369047D01*
X135155980Y-100369047D02*
X135203600Y-100416666D01*
X135203600Y-100416666D02*
X135227409Y-100488094D01*
X135227409Y-100488094D02*
X135227409Y-100607142D01*
X134727409Y-99869047D02*
X134727409Y-100107142D01*
X134727409Y-100107142D02*
X134965504Y-100130951D01*
X134965504Y-100130951D02*
X134941695Y-100107142D01*
X134941695Y-100107142D02*
X134917885Y-100059523D01*
X134917885Y-100059523D02*
X134917885Y-99940475D01*
X134917885Y-99940475D02*
X134941695Y-99892856D01*
X134941695Y-99892856D02*
X134965504Y-99869047D01*
X134965504Y-99869047D02*
X135013123Y-99845237D01*
X135013123Y-99845237D02*
X135132171Y-99845237D01*
X135132171Y-99845237D02*
X135179790Y-99869047D01*
X135179790Y-99869047D02*
X135203600Y-99892856D01*
X135203600Y-99892856D02*
X135227409Y-99940475D01*
X135227409Y-99940475D02*
X135227409Y-100059523D01*
X135227409Y-100059523D02*
X135203600Y-100107142D01*
X135203600Y-100107142D02*
X135179790Y-100130951D01*
X134894076Y-99416666D02*
X135227409Y-99416666D01*
X134703600Y-99535714D02*
X135060742Y-99654761D01*
X135060742Y-99654761D02*
X135060742Y-99345238D01*
X155227409Y-100607142D02*
X154727409Y-100607142D01*
X154727409Y-100607142D02*
X154727409Y-100488094D01*
X154727409Y-100488094D02*
X154751219Y-100416666D01*
X154751219Y-100416666D02*
X154798838Y-100369047D01*
X154798838Y-100369047D02*
X154846457Y-100345237D01*
X154846457Y-100345237D02*
X154941695Y-100321428D01*
X154941695Y-100321428D02*
X155013123Y-100321428D01*
X155013123Y-100321428D02*
X155108361Y-100345237D01*
X155108361Y-100345237D02*
X155155980Y-100369047D01*
X155155980Y-100369047D02*
X155203600Y-100416666D01*
X155203600Y-100416666D02*
X155227409Y-100488094D01*
X155227409Y-100488094D02*
X155227409Y-100607142D01*
X154727409Y-99869047D02*
X154727409Y-100107142D01*
X154727409Y-100107142D02*
X154965504Y-100130951D01*
X154965504Y-100130951D02*
X154941695Y-100107142D01*
X154941695Y-100107142D02*
X154917885Y-100059523D01*
X154917885Y-100059523D02*
X154917885Y-99940475D01*
X154917885Y-99940475D02*
X154941695Y-99892856D01*
X154941695Y-99892856D02*
X154965504Y-99869047D01*
X154965504Y-99869047D02*
X155013123Y-99845237D01*
X155013123Y-99845237D02*
X155132171Y-99845237D01*
X155132171Y-99845237D02*
X155179790Y-99869047D01*
X155179790Y-99869047D02*
X155203600Y-99892856D01*
X155203600Y-99892856D02*
X155227409Y-99940475D01*
X155227409Y-99940475D02*
X155227409Y-100059523D01*
X155227409Y-100059523D02*
X155203600Y-100107142D01*
X155203600Y-100107142D02*
X155179790Y-100130951D01*
X154727409Y-99678571D02*
X154727409Y-99345238D01*
X154727409Y-99345238D02*
X155227409Y-99559523D01*
X158919133Y-76880767D02*
X159110475Y-76418827D01*
X159110475Y-76418827D02*
X159220461Y-76464385D01*
X159220461Y-76464385D02*
X159277340Y-76513717D01*
X159277340Y-76513717D02*
X159303112Y-76575934D01*
X159303112Y-76575934D02*
X159306886Y-76629040D01*
X159306886Y-76629040D02*
X159292437Y-76726140D01*
X159292437Y-76726140D02*
X159265102Y-76792131D01*
X159265102Y-76792131D02*
X159206659Y-76871008D01*
X159206659Y-76871008D02*
X159166439Y-76905891D01*
X159166439Y-76905891D02*
X159104222Y-76931662D01*
X159104222Y-76931662D02*
X159029119Y-76926325D01*
X159029119Y-76926325D02*
X158919133Y-76880767D01*
X159528420Y-76591946D02*
X159814383Y-76710396D01*
X159814383Y-76710396D02*
X159587511Y-76822592D01*
X159587511Y-76822592D02*
X159653503Y-76849927D01*
X159653503Y-76849927D02*
X159688385Y-76890147D01*
X159688385Y-76890147D02*
X159701271Y-76921256D01*
X159701271Y-76921256D02*
X159705045Y-76974361D01*
X159705045Y-76974361D02*
X159659487Y-77084347D01*
X159659487Y-77084347D02*
X159619267Y-77119230D01*
X159619267Y-77119230D02*
X159588159Y-77132115D01*
X159588159Y-77132115D02*
X159535053Y-77135889D01*
X159535053Y-77135889D02*
X159403070Y-77081220D01*
X159403070Y-77081220D02*
X159368187Y-77041000D01*
X159368187Y-77041000D02*
X159355302Y-77009892D01*
X159968363Y-76774176D02*
X160254325Y-76892626D01*
X160254325Y-76892626D02*
X160027453Y-77004822D01*
X160027453Y-77004822D02*
X160093445Y-77032157D01*
X160093445Y-77032157D02*
X160128327Y-77072377D01*
X160128327Y-77072377D02*
X160141213Y-77103486D01*
X160141213Y-77103486D02*
X160144987Y-77156591D01*
X160144987Y-77156591D02*
X160099430Y-77266577D01*
X160099430Y-77266577D02*
X160059210Y-77301460D01*
X160059210Y-77301460D02*
X160028101Y-77314345D01*
X160028101Y-77314345D02*
X159974995Y-77318119D01*
X159974995Y-77318119D02*
X159843012Y-77263450D01*
X159843012Y-77263450D02*
X159808130Y-77223230D01*
X159808130Y-77223230D02*
X159795244Y-77192122D01*
X173074743Y-110215038D02*
X172612803Y-110023696D01*
X172612803Y-110023696D02*
X172658361Y-109913710D01*
X172658361Y-109913710D02*
X172707693Y-109856831D01*
X172707693Y-109856831D02*
X172769910Y-109831059D01*
X172769910Y-109831059D02*
X172823016Y-109827285D01*
X172823016Y-109827285D02*
X172920116Y-109841734D01*
X172920116Y-109841734D02*
X172986107Y-109869069D01*
X172986107Y-109869069D02*
X173064984Y-109927512D01*
X173064984Y-109927512D02*
X173099867Y-109967732D01*
X173099867Y-109967732D02*
X173125638Y-110029949D01*
X173125638Y-110029949D02*
X173120301Y-110105052D01*
X173120301Y-110105052D02*
X173074743Y-110215038D01*
X172785922Y-109605751D02*
X172904372Y-109319788D01*
X172904372Y-109319788D02*
X173016568Y-109546660D01*
X173016568Y-109546660D02*
X173043903Y-109480668D01*
X173043903Y-109480668D02*
X173084123Y-109445786D01*
X173084123Y-109445786D02*
X173115232Y-109432900D01*
X173115232Y-109432900D02*
X173168337Y-109429126D01*
X173168337Y-109429126D02*
X173278323Y-109474684D01*
X173278323Y-109474684D02*
X173313206Y-109514904D01*
X173313206Y-109514904D02*
X173326091Y-109546012D01*
X173326091Y-109546012D02*
X173329865Y-109599118D01*
X173329865Y-109599118D02*
X173275196Y-109731101D01*
X173275196Y-109731101D02*
X173234976Y-109765984D01*
X173234976Y-109765984D02*
X173203868Y-109778869D01*
X172968152Y-109165808D02*
X173095713Y-108857849D01*
X173095713Y-108857849D02*
X173475649Y-109247164D01*
X178707320Y-80374532D02*
X179123054Y-80096747D01*
X179123054Y-80096747D02*
X179189194Y-80195731D01*
X179189194Y-80195731D02*
X179209080Y-80268350D01*
X179209080Y-80268350D02*
X179195942Y-80334399D01*
X179195942Y-80334399D02*
X179169576Y-80380652D01*
X179169576Y-80380652D02*
X179103617Y-80453360D01*
X179103617Y-80453360D02*
X179044226Y-80493044D01*
X179044226Y-80493044D02*
X178951811Y-80526158D01*
X178951811Y-80526158D02*
X178898989Y-80532817D01*
X178898989Y-80532817D02*
X178832939Y-80519679D01*
X178832939Y-80519679D02*
X178773459Y-80473516D01*
X178773459Y-80473516D02*
X178707320Y-80374532D01*
X179533118Y-80710450D02*
X179400840Y-80512481D01*
X179400840Y-80512481D02*
X179189643Y-80624963D01*
X179189643Y-80624963D02*
X179222668Y-80631532D01*
X179222668Y-80631532D02*
X179268920Y-80657898D01*
X179268920Y-80657898D02*
X179335059Y-80756883D01*
X179335059Y-80756883D02*
X179341718Y-80809704D01*
X179341718Y-80809704D02*
X179335149Y-80842729D01*
X179335149Y-80842729D02*
X179308783Y-80888982D01*
X179308783Y-80888982D02*
X179209799Y-80955121D01*
X179209799Y-80955121D02*
X179156977Y-80961780D01*
X179156977Y-80961780D02*
X179123952Y-80955211D01*
X179123952Y-80955211D02*
X179077700Y-80928845D01*
X179077700Y-80928845D02*
X179011560Y-80829860D01*
X179011560Y-80829860D02*
X179004902Y-80777039D01*
X179004902Y-80777039D02*
X179011471Y-80744014D01*
X149392857Y-95227409D02*
X149392857Y-94727409D01*
X149392857Y-94727409D02*
X149511905Y-94727409D01*
X149511905Y-94727409D02*
X149583333Y-94751219D01*
X149583333Y-94751219D02*
X149630952Y-94798838D01*
X149630952Y-94798838D02*
X149654762Y-94846457D01*
X149654762Y-94846457D02*
X149678571Y-94941695D01*
X149678571Y-94941695D02*
X149678571Y-95013123D01*
X149678571Y-95013123D02*
X149654762Y-95108361D01*
X149654762Y-95108361D02*
X149630952Y-95155980D01*
X149630952Y-95155980D02*
X149583333Y-95203600D01*
X149583333Y-95203600D02*
X149511905Y-95227409D01*
X149511905Y-95227409D02*
X149392857Y-95227409D01*
X150107143Y-94727409D02*
X150011905Y-94727409D01*
X150011905Y-94727409D02*
X149964286Y-94751219D01*
X149964286Y-94751219D02*
X149940476Y-94775028D01*
X149940476Y-94775028D02*
X149892857Y-94846457D01*
X149892857Y-94846457D02*
X149869048Y-94941695D01*
X149869048Y-94941695D02*
X149869048Y-95132171D01*
X149869048Y-95132171D02*
X149892857Y-95179790D01*
X149892857Y-95179790D02*
X149916667Y-95203600D01*
X149916667Y-95203600D02*
X149964286Y-95227409D01*
X149964286Y-95227409D02*
X150059524Y-95227409D01*
X150059524Y-95227409D02*
X150107143Y-95203600D01*
X150107143Y-95203600D02*
X150130952Y-95179790D01*
X150130952Y-95179790D02*
X150154762Y-95132171D01*
X150154762Y-95132171D02*
X150154762Y-95013123D01*
X150154762Y-95013123D02*
X150130952Y-94965504D01*
X150130952Y-94965504D02*
X150107143Y-94941695D01*
X150107143Y-94941695D02*
X150059524Y-94917885D01*
X150059524Y-94917885D02*
X149964286Y-94917885D01*
X149964286Y-94917885D02*
X149916667Y-94941695D01*
X149916667Y-94941695D02*
X149892857Y-94965504D01*
X149892857Y-94965504D02*
X149869048Y-95013123D01*
X150464285Y-94727409D02*
X150511904Y-94727409D01*
X150511904Y-94727409D02*
X150559523Y-94751219D01*
X150559523Y-94751219D02*
X150583333Y-94775028D01*
X150583333Y-94775028D02*
X150607142Y-94822647D01*
X150607142Y-94822647D02*
X150630952Y-94917885D01*
X150630952Y-94917885D02*
X150630952Y-95036933D01*
X150630952Y-95036933D02*
X150607142Y-95132171D01*
X150607142Y-95132171D02*
X150583333Y-95179790D01*
X150583333Y-95179790D02*
X150559523Y-95203600D01*
X150559523Y-95203600D02*
X150511904Y-95227409D01*
X150511904Y-95227409D02*
X150464285Y-95227409D01*
X150464285Y-95227409D02*
X150416666Y-95203600D01*
X150416666Y-95203600D02*
X150392857Y-95179790D01*
X150392857Y-95179790D02*
X150369047Y-95132171D01*
X150369047Y-95132171D02*
X150345238Y-95036933D01*
X150345238Y-95036933D02*
X150345238Y-94917885D01*
X150345238Y-94917885D02*
X150369047Y-94822647D01*
X150369047Y-94822647D02*
X150392857Y-94775028D01*
X150392857Y-94775028D02*
X150416666Y-94751219D01*
X150416666Y-94751219D02*
X150464285Y-94727409D01*
X129923879Y-128953210D02*
X130201664Y-128537476D01*
X130201664Y-128537476D02*
X130300649Y-128603615D01*
X130300649Y-128603615D02*
X130346812Y-128663095D01*
X130346812Y-128663095D02*
X130359950Y-128729145D01*
X130359950Y-128729145D02*
X130353291Y-128781967D01*
X130353291Y-128781967D02*
X130320176Y-128874382D01*
X130320176Y-128874382D02*
X130280493Y-128933773D01*
X130280493Y-128933773D02*
X130207784Y-128999732D01*
X130207784Y-128999732D02*
X130161532Y-129026098D01*
X130161532Y-129026098D02*
X130095482Y-129039236D01*
X130095482Y-129039236D02*
X130022864Y-129019350D01*
X130022864Y-129019350D02*
X129923879Y-128953210D01*
X130557380Y-129376502D02*
X130319817Y-129217768D01*
X130438598Y-129297135D02*
X130716383Y-128881400D01*
X130716383Y-128881400D02*
X130637106Y-128914335D01*
X130637106Y-128914335D02*
X130571057Y-128927473D01*
X130571057Y-128927473D02*
X130518235Y-128920814D01*
X130755348Y-129508780D02*
X130834536Y-129561692D01*
X130834536Y-129561692D02*
X130887358Y-129568351D01*
X130887358Y-129568351D02*
X130920382Y-129561782D01*
X130920382Y-129561782D02*
X130999660Y-129528847D01*
X130999660Y-129528847D02*
X131072368Y-129462887D01*
X131072368Y-129462887D02*
X131178191Y-129304512D01*
X131178191Y-129304512D02*
X131184850Y-129251690D01*
X131184850Y-129251690D02*
X131178281Y-129218665D01*
X131178281Y-129218665D02*
X131151915Y-129172413D01*
X131151915Y-129172413D02*
X131072727Y-129119501D01*
X131072727Y-129119501D02*
X131019906Y-129112842D01*
X131019906Y-129112842D02*
X130986881Y-129119411D01*
X130986881Y-129119411D02*
X130940628Y-129145777D01*
X130940628Y-129145777D02*
X130874489Y-129244762D01*
X130874489Y-129244762D02*
X130867830Y-129297584D01*
X130867830Y-129297584D02*
X130874399Y-129330608D01*
X130874399Y-129330608D02*
X130900765Y-129376861D01*
X130900765Y-129376861D02*
X130979953Y-129429772D01*
X130979953Y-129429772D02*
X131032774Y-129436431D01*
X131032774Y-129436431D02*
X131065799Y-129429862D01*
X131065799Y-129429862D02*
X131112052Y-129403496D01*
X120372169Y-119066479D02*
X120787904Y-118788694D01*
X120787904Y-118788694D02*
X120854043Y-118887678D01*
X120854043Y-118887678D02*
X120873930Y-118960297D01*
X120873930Y-118960297D02*
X120860792Y-119026346D01*
X120860792Y-119026346D02*
X120834426Y-119072599D01*
X120834426Y-119072599D02*
X120768466Y-119145307D01*
X120768466Y-119145307D02*
X120709076Y-119184991D01*
X120709076Y-119184991D02*
X120616660Y-119218106D01*
X120616660Y-119218106D02*
X120563838Y-119224764D01*
X120563838Y-119224764D02*
X120497789Y-119211626D01*
X120497789Y-119211626D02*
X120438308Y-119165463D01*
X120438308Y-119165463D02*
X120372169Y-119066479D01*
X121012867Y-119211088D02*
X121045892Y-119217657D01*
X121045892Y-119217657D02*
X121092145Y-119244023D01*
X121092145Y-119244023D02*
X121158284Y-119343007D01*
X121158284Y-119343007D02*
X121164943Y-119395829D01*
X121164943Y-119395829D02*
X121158374Y-119428853D01*
X121158374Y-119428853D02*
X121132008Y-119475106D01*
X121132008Y-119475106D02*
X121092414Y-119501562D01*
X121092414Y-119501562D02*
X121019796Y-119521448D01*
X121019796Y-119521448D02*
X120623499Y-119442620D01*
X120623499Y-119442620D02*
X120795461Y-119699980D01*
X121060018Y-120095917D02*
X120901283Y-119858354D01*
X120980651Y-119977136D02*
X121396385Y-119699351D01*
X121396385Y-119699351D02*
X121310539Y-119699441D01*
X121310539Y-119699441D02*
X121244489Y-119686302D01*
X121244489Y-119686302D02*
X121198237Y-119659937D01*
X125227409Y-100607142D02*
X124727409Y-100607142D01*
X124727409Y-100607142D02*
X124727409Y-100488094D01*
X124727409Y-100488094D02*
X124751219Y-100416666D01*
X124751219Y-100416666D02*
X124798838Y-100369047D01*
X124798838Y-100369047D02*
X124846457Y-100345237D01*
X124846457Y-100345237D02*
X124941695Y-100321428D01*
X124941695Y-100321428D02*
X125013123Y-100321428D01*
X125013123Y-100321428D02*
X125108361Y-100345237D01*
X125108361Y-100345237D02*
X125155980Y-100369047D01*
X125155980Y-100369047D02*
X125203600Y-100416666D01*
X125203600Y-100416666D02*
X125227409Y-100488094D01*
X125227409Y-100488094D02*
X125227409Y-100607142D01*
X124894076Y-99892856D02*
X125227409Y-99892856D01*
X124703600Y-100011904D02*
X125060742Y-100130951D01*
X125060742Y-100130951D02*
X125060742Y-99821428D01*
X124894076Y-99416666D02*
X125227409Y-99416666D01*
X124703600Y-99535714D02*
X125060742Y-99654761D01*
X125060742Y-99654761D02*
X125060742Y-99345238D01*
X178953210Y-120076120D02*
X178537476Y-119798335D01*
X178537476Y-119798335D02*
X178603615Y-119699350D01*
X178603615Y-119699350D02*
X178663095Y-119653187D01*
X178663095Y-119653187D02*
X178729145Y-119640049D01*
X178729145Y-119640049D02*
X178781967Y-119646708D01*
X178781967Y-119646708D02*
X178874382Y-119679823D01*
X178874382Y-119679823D02*
X178933773Y-119719506D01*
X178933773Y-119719506D02*
X178999732Y-119792215D01*
X178999732Y-119792215D02*
X179026098Y-119838467D01*
X179026098Y-119838467D02*
X179039236Y-119904517D01*
X179039236Y-119904517D02*
X179019350Y-119977135D01*
X179019350Y-119977135D02*
X178953210Y-120076120D01*
X179376502Y-119442619D02*
X179217768Y-119680182D01*
X179297135Y-119561401D02*
X178881400Y-119283616D01*
X178881400Y-119283616D02*
X178914335Y-119362893D01*
X178914335Y-119362893D02*
X178927473Y-119428942D01*
X178927473Y-119428942D02*
X178920814Y-119481764D01*
X179641059Y-119046682D02*
X179482325Y-119284244D01*
X179561692Y-119165463D02*
X179145957Y-118887678D01*
X179145957Y-118887678D02*
X179178892Y-118966955D01*
X179178892Y-118966955D02*
X179192030Y-119033005D01*
X179192030Y-119033005D02*
X179185371Y-119085827D01*
X131732212Y-117409157D02*
X132085766Y-117055603D01*
X132085766Y-117055603D02*
X132169945Y-117139783D01*
X132169945Y-117139783D02*
X132203617Y-117207126D01*
X132203617Y-117207126D02*
X132203617Y-117274470D01*
X132203617Y-117274470D02*
X132186781Y-117324977D01*
X132186781Y-117324977D02*
X132136273Y-117409157D01*
X132136273Y-117409157D02*
X132085766Y-117459664D01*
X132085766Y-117459664D02*
X132001586Y-117510172D01*
X132001586Y-117510172D02*
X131951079Y-117527008D01*
X131951079Y-117527008D02*
X131883735Y-117527008D01*
X131883735Y-117527008D02*
X131816392Y-117493336D01*
X131816392Y-117493336D02*
X131732212Y-117409157D01*
X132472991Y-117678531D02*
X132237288Y-117914233D01*
X132523498Y-117459664D02*
X132186781Y-117628023D01*
X132186781Y-117628023D02*
X132405647Y-117846890D01*
X132725529Y-117762710D02*
X132759200Y-117762710D01*
X132759200Y-117762710D02*
X132809708Y-117779546D01*
X132809708Y-117779546D02*
X132893887Y-117863725D01*
X132893887Y-117863725D02*
X132910723Y-117914233D01*
X132910723Y-117914233D02*
X132910723Y-117947905D01*
X132910723Y-117947905D02*
X132893887Y-117998412D01*
X132893887Y-117998412D02*
X132860216Y-118032084D01*
X132860216Y-118032084D02*
X132792872Y-118065756D01*
X132792872Y-118065756D02*
X132388811Y-118065756D01*
X132388811Y-118065756D02*
X132607677Y-118284622D01*
X126880767Y-91080866D02*
X126418827Y-90889524D01*
X126418827Y-90889524D02*
X126464385Y-90779538D01*
X126464385Y-90779538D02*
X126513717Y-90722659D01*
X126513717Y-90722659D02*
X126575934Y-90696887D01*
X126575934Y-90696887D02*
X126629040Y-90693113D01*
X126629040Y-90693113D02*
X126726140Y-90707562D01*
X126726140Y-90707562D02*
X126792131Y-90734897D01*
X126792131Y-90734897D02*
X126871008Y-90793340D01*
X126871008Y-90793340D02*
X126905891Y-90833560D01*
X126905891Y-90833560D02*
X126931662Y-90895777D01*
X126931662Y-90895777D02*
X126926325Y-90970880D01*
X126926325Y-90970880D02*
X126880767Y-91080866D01*
X126846153Y-90293391D02*
X127154112Y-90420952D01*
X126624618Y-90330484D02*
X126909017Y-90577143D01*
X126909017Y-90577143D02*
X127027467Y-90291180D01*
X126883514Y-89767671D02*
X126792399Y-89987642D01*
X126792399Y-89987642D02*
X127003259Y-90100754D01*
X127003259Y-90100754D02*
X126990373Y-90069646D01*
X126990373Y-90069646D02*
X126986599Y-90016540D01*
X126986599Y-90016540D02*
X127032157Y-89906554D01*
X127032157Y-89906554D02*
X127072377Y-89871672D01*
X127072377Y-89871672D02*
X127103486Y-89858786D01*
X127103486Y-89858786D02*
X127156591Y-89855012D01*
X127156591Y-89855012D02*
X127266577Y-89900569D01*
X127266577Y-89900569D02*
X127301460Y-89940789D01*
X127301460Y-89940789D02*
X127314345Y-89971898D01*
X127314345Y-89971898D02*
X127318119Y-90025004D01*
X127318119Y-90025004D02*
X127272562Y-90134990D01*
X127272562Y-90134990D02*
X127232342Y-90169872D01*
X127232342Y-90169872D02*
X127201233Y-90182758D01*
X124982750Y-75841380D02*
X124629196Y-75487826D01*
X124629196Y-75487826D02*
X124713376Y-75403647D01*
X124713376Y-75403647D02*
X124780719Y-75369975D01*
X124780719Y-75369975D02*
X124848063Y-75369975D01*
X124848063Y-75369975D02*
X124898570Y-75386811D01*
X124898570Y-75386811D02*
X124982750Y-75437319D01*
X124982750Y-75437319D02*
X125033257Y-75487826D01*
X125033257Y-75487826D02*
X125083765Y-75572006D01*
X125083765Y-75572006D02*
X125100601Y-75622513D01*
X125100601Y-75622513D02*
X125100601Y-75689857D01*
X125100601Y-75689857D02*
X125066929Y-75757200D01*
X125066929Y-75757200D02*
X124982750Y-75841380D01*
X124999586Y-75184781D02*
X124999586Y-75151109D01*
X124999586Y-75151109D02*
X125016422Y-75100601D01*
X125016422Y-75100601D02*
X125100601Y-75016422D01*
X125100601Y-75016422D02*
X125151109Y-74999586D01*
X125151109Y-74999586D02*
X125184780Y-74999586D01*
X125184780Y-74999586D02*
X125235288Y-75016422D01*
X125235288Y-75016422D02*
X125268960Y-75050094D01*
X125268960Y-75050094D02*
X125302631Y-75117437D01*
X125302631Y-75117437D02*
X125302631Y-75521498D01*
X125302631Y-75521498D02*
X125521498Y-75302632D01*
X125521498Y-74898571D02*
X125470990Y-74915407D01*
X125470990Y-74915407D02*
X125437318Y-74915407D01*
X125437318Y-74915407D02*
X125386811Y-74898571D01*
X125386811Y-74898571D02*
X125369975Y-74881735D01*
X125369975Y-74881735D02*
X125353139Y-74831228D01*
X125353139Y-74831228D02*
X125353139Y-74797556D01*
X125353139Y-74797556D02*
X125369975Y-74747048D01*
X125369975Y-74747048D02*
X125437318Y-74679705D01*
X125437318Y-74679705D02*
X125487826Y-74662869D01*
X125487826Y-74662869D02*
X125521498Y-74662869D01*
X125521498Y-74662869D02*
X125572005Y-74679705D01*
X125572005Y-74679705D02*
X125588841Y-74696541D01*
X125588841Y-74696541D02*
X125605677Y-74747048D01*
X125605677Y-74747048D02*
X125605677Y-74780720D01*
X125605677Y-74780720D02*
X125588841Y-74831228D01*
X125588841Y-74831228D02*
X125521498Y-74898571D01*
X125521498Y-74898571D02*
X125504662Y-74949079D01*
X125504662Y-74949079D02*
X125504662Y-74982750D01*
X125504662Y-74982750D02*
X125521498Y-75033258D01*
X125521498Y-75033258D02*
X125588841Y-75100602D01*
X125588841Y-75100602D02*
X125639349Y-75117437D01*
X125639349Y-75117437D02*
X125673020Y-75117437D01*
X125673020Y-75117437D02*
X125723528Y-75100602D01*
X125723528Y-75100602D02*
X125790872Y-75033258D01*
X125790872Y-75033258D02*
X125807707Y-74982750D01*
X125807707Y-74982750D02*
X125807707Y-74949079D01*
X125807707Y-74949079D02*
X125790872Y-74898571D01*
X125790872Y-74898571D02*
X125723528Y-74831228D01*
X125723528Y-74831228D02*
X125673020Y-74814392D01*
X125673020Y-74814392D02*
X125639349Y-74814392D01*
X125639349Y-74814392D02*
X125588841Y-74831228D01*
X174480226Y-125338854D02*
X174126672Y-124985300D01*
X174126672Y-124985300D02*
X174210852Y-124901121D01*
X174210852Y-124901121D02*
X174278195Y-124867449D01*
X174278195Y-124867449D02*
X174345539Y-124867449D01*
X174345539Y-124867449D02*
X174396046Y-124884285D01*
X174396046Y-124884285D02*
X174480226Y-124934793D01*
X174480226Y-124934793D02*
X174530733Y-124985300D01*
X174530733Y-124985300D02*
X174581241Y-125069480D01*
X174581241Y-125069480D02*
X174598077Y-125119987D01*
X174598077Y-125119987D02*
X174598077Y-125187331D01*
X174598077Y-125187331D02*
X174564405Y-125254674D01*
X174564405Y-125254674D02*
X174480226Y-125338854D01*
X175018974Y-124800106D02*
X174816943Y-125002136D01*
X174917959Y-124901121D02*
X174564405Y-124547568D01*
X174564405Y-124547568D02*
X174581241Y-124631747D01*
X174581241Y-124631747D02*
X174581241Y-124699091D01*
X174581241Y-124699091D02*
X174564405Y-124749598D01*
X174833779Y-124345537D02*
X174833779Y-124311866D01*
X174833779Y-124311866D02*
X174850615Y-124261358D01*
X174850615Y-124261358D02*
X174934794Y-124177179D01*
X174934794Y-124177179D02*
X174985302Y-124160343D01*
X174985302Y-124160343D02*
X175018974Y-124160343D01*
X175018974Y-124160343D02*
X175069481Y-124177179D01*
X175069481Y-124177179D02*
X175103153Y-124210850D01*
X175103153Y-124210850D02*
X175136825Y-124278194D01*
X175136825Y-124278194D02*
X175136825Y-124682255D01*
X175136825Y-124682255D02*
X175355691Y-124463389D01*
X149392857Y-65227409D02*
X149392857Y-64727409D01*
X149392857Y-64727409D02*
X149511905Y-64727409D01*
X149511905Y-64727409D02*
X149583333Y-64751219D01*
X149583333Y-64751219D02*
X149630952Y-64798838D01*
X149630952Y-64798838D02*
X149654762Y-64846457D01*
X149654762Y-64846457D02*
X149678571Y-64941695D01*
X149678571Y-64941695D02*
X149678571Y-65013123D01*
X149678571Y-65013123D02*
X149654762Y-65108361D01*
X149654762Y-65108361D02*
X149630952Y-65155980D01*
X149630952Y-65155980D02*
X149583333Y-65203600D01*
X149583333Y-65203600D02*
X149511905Y-65227409D01*
X149511905Y-65227409D02*
X149392857Y-65227409D01*
X149845238Y-64727409D02*
X150154762Y-64727409D01*
X150154762Y-64727409D02*
X149988095Y-64917885D01*
X149988095Y-64917885D02*
X150059524Y-64917885D01*
X150059524Y-64917885D02*
X150107143Y-64941695D01*
X150107143Y-64941695D02*
X150130952Y-64965504D01*
X150130952Y-64965504D02*
X150154762Y-65013123D01*
X150154762Y-65013123D02*
X150154762Y-65132171D01*
X150154762Y-65132171D02*
X150130952Y-65179790D01*
X150130952Y-65179790D02*
X150107143Y-65203600D01*
X150107143Y-65203600D02*
X150059524Y-65227409D01*
X150059524Y-65227409D02*
X149916667Y-65227409D01*
X149916667Y-65227409D02*
X149869048Y-65203600D01*
X149869048Y-65203600D02*
X149845238Y-65179790D01*
X150345238Y-64775028D02*
X150369047Y-64751219D01*
X150369047Y-64751219D02*
X150416666Y-64727409D01*
X150416666Y-64727409D02*
X150535714Y-64727409D01*
X150535714Y-64727409D02*
X150583333Y-64751219D01*
X150583333Y-64751219D02*
X150607142Y-64775028D01*
X150607142Y-64775028D02*
X150630952Y-64822647D01*
X150630952Y-64822647D02*
X150630952Y-64870266D01*
X150630952Y-64870266D02*
X150607142Y-64941695D01*
X150607142Y-64941695D02*
X150321428Y-65227409D01*
X150321428Y-65227409D02*
X150630952Y-65227409D01*
X149392857Y-105227409D02*
X149392857Y-104727409D01*
X149392857Y-104727409D02*
X149511905Y-104727409D01*
X149511905Y-104727409D02*
X149583333Y-104751219D01*
X149583333Y-104751219D02*
X149630952Y-104798838D01*
X149630952Y-104798838D02*
X149654762Y-104846457D01*
X149654762Y-104846457D02*
X149678571Y-104941695D01*
X149678571Y-104941695D02*
X149678571Y-105013123D01*
X149678571Y-105013123D02*
X149654762Y-105108361D01*
X149654762Y-105108361D02*
X149630952Y-105155980D01*
X149630952Y-105155980D02*
X149583333Y-105203600D01*
X149583333Y-105203600D02*
X149511905Y-105227409D01*
X149511905Y-105227409D02*
X149392857Y-105227409D01*
X150130952Y-104727409D02*
X149892857Y-104727409D01*
X149892857Y-104727409D02*
X149869048Y-104965504D01*
X149869048Y-104965504D02*
X149892857Y-104941695D01*
X149892857Y-104941695D02*
X149940476Y-104917885D01*
X149940476Y-104917885D02*
X150059524Y-104917885D01*
X150059524Y-104917885D02*
X150107143Y-104941695D01*
X150107143Y-104941695D02*
X150130952Y-104965504D01*
X150130952Y-104965504D02*
X150154762Y-105013123D01*
X150154762Y-105013123D02*
X150154762Y-105132171D01*
X150154762Y-105132171D02*
X150130952Y-105179790D01*
X150130952Y-105179790D02*
X150107143Y-105203600D01*
X150107143Y-105203600D02*
X150059524Y-105227409D01*
X150059524Y-105227409D02*
X149940476Y-105227409D01*
X149940476Y-105227409D02*
X149892857Y-105203600D01*
X149892857Y-105203600D02*
X149869048Y-105179790D01*
X150440476Y-104941695D02*
X150392857Y-104917885D01*
X150392857Y-104917885D02*
X150369047Y-104894076D01*
X150369047Y-104894076D02*
X150345238Y-104846457D01*
X150345238Y-104846457D02*
X150345238Y-104822647D01*
X150345238Y-104822647D02*
X150369047Y-104775028D01*
X150369047Y-104775028D02*
X150392857Y-104751219D01*
X150392857Y-104751219D02*
X150440476Y-104727409D01*
X150440476Y-104727409D02*
X150535714Y-104727409D01*
X150535714Y-104727409D02*
X150583333Y-104751219D01*
X150583333Y-104751219D02*
X150607142Y-104775028D01*
X150607142Y-104775028D02*
X150630952Y-104822647D01*
X150630952Y-104822647D02*
X150630952Y-104846457D01*
X150630952Y-104846457D02*
X150607142Y-104894076D01*
X150607142Y-104894076D02*
X150583333Y-104917885D01*
X150583333Y-104917885D02*
X150535714Y-104941695D01*
X150535714Y-104941695D02*
X150440476Y-104941695D01*
X150440476Y-104941695D02*
X150392857Y-104965504D01*
X150392857Y-104965504D02*
X150369047Y-104989314D01*
X150369047Y-104989314D02*
X150345238Y-105036933D01*
X150345238Y-105036933D02*
X150345238Y-105132171D01*
X150345238Y-105132171D02*
X150369047Y-105179790D01*
X150369047Y-105179790D02*
X150392857Y-105203600D01*
X150392857Y-105203600D02*
X150440476Y-105227409D01*
X150440476Y-105227409D02*
X150535714Y-105227409D01*
X150535714Y-105227409D02*
X150583333Y-105203600D01*
X150583333Y-105203600D02*
X150607142Y-105179790D01*
X150607142Y-105179790D02*
X150630952Y-105132171D01*
X150630952Y-105132171D02*
X150630952Y-105036933D01*
X150630952Y-105036933D02*
X150607142Y-104989314D01*
X150607142Y-104989314D02*
X150583333Y-104965504D01*
X150583333Y-104965504D02*
X150535714Y-104941695D01*
X156421839Y-65823557D02*
X156519384Y-65333164D01*
X156519384Y-65333164D02*
X156636144Y-65356389D01*
X156636144Y-65356389D02*
X156701555Y-65393676D01*
X156701555Y-65393676D02*
X156738969Y-65449670D01*
X156738969Y-65449670D02*
X156753031Y-65501019D01*
X156753031Y-65501019D02*
X156757803Y-65599073D01*
X156757803Y-65599073D02*
X156743868Y-65669129D01*
X156743868Y-65669129D02*
X156701936Y-65757892D01*
X156701936Y-65757892D02*
X156669294Y-65799951D01*
X156669294Y-65799951D02*
X156613300Y-65837365D01*
X156613300Y-65837365D02*
X156538599Y-65846782D01*
X156538599Y-65846782D02*
X156421839Y-65823557D01*
X157169104Y-65972197D02*
X156888879Y-65916457D01*
X157028992Y-65944327D02*
X157126537Y-65453934D01*
X157126537Y-65453934D02*
X157065898Y-65514700D01*
X157065898Y-65514700D02*
X157009904Y-65552115D01*
X157009904Y-65552115D02*
X156958555Y-65566177D01*
X132053819Y-82912447D02*
X131700265Y-82558893D01*
X131700265Y-82558893D02*
X131784445Y-82474714D01*
X131784445Y-82474714D02*
X131851788Y-82441042D01*
X131851788Y-82441042D02*
X131919132Y-82441042D01*
X131919132Y-82441042D02*
X131969639Y-82457878D01*
X131969639Y-82457878D02*
X132053819Y-82508386D01*
X132053819Y-82508386D02*
X132104326Y-82558893D01*
X132104326Y-82558893D02*
X132154834Y-82643073D01*
X132154834Y-82643073D02*
X132171670Y-82693580D01*
X132171670Y-82693580D02*
X132171670Y-82760924D01*
X132171670Y-82760924D02*
X132137998Y-82828267D01*
X132137998Y-82828267D02*
X132053819Y-82912447D01*
X132323193Y-82171668D02*
X132558895Y-82407371D01*
X132104326Y-82121161D02*
X132272685Y-82457878D01*
X132272685Y-82457878D02*
X132491552Y-82239012D01*
X132542059Y-81717100D02*
X132474715Y-81784443D01*
X132474715Y-81784443D02*
X132457880Y-81834951D01*
X132457880Y-81834951D02*
X132457880Y-81868623D01*
X132457880Y-81868623D02*
X132474715Y-81952802D01*
X132474715Y-81952802D02*
X132525223Y-82036982D01*
X132525223Y-82036982D02*
X132659910Y-82171669D01*
X132659910Y-82171669D02*
X132710418Y-82188504D01*
X132710418Y-82188504D02*
X132744089Y-82188504D01*
X132744089Y-82188504D02*
X132794597Y-82171669D01*
X132794597Y-82171669D02*
X132861941Y-82104325D01*
X132861941Y-82104325D02*
X132878776Y-82053817D01*
X132878776Y-82053817D02*
X132878776Y-82020146D01*
X132878776Y-82020146D02*
X132861941Y-81969638D01*
X132861941Y-81969638D02*
X132777761Y-81885459D01*
X132777761Y-81885459D02*
X132727254Y-81868623D01*
X132727254Y-81868623D02*
X132693582Y-81868623D01*
X132693582Y-81868623D02*
X132643074Y-81885459D01*
X132643074Y-81885459D02*
X132575731Y-81952802D01*
X132575731Y-81952802D02*
X132558895Y-82003310D01*
X132558895Y-82003310D02*
X132558895Y-82036982D01*
X132558895Y-82036982D02*
X132575731Y-82087489D01*
X162920019Y-132778226D02*
X162728677Y-132316286D01*
X162728677Y-132316286D02*
X162838663Y-132270729D01*
X162838663Y-132270729D02*
X162913766Y-132265391D01*
X162913766Y-132265391D02*
X162975983Y-132291162D01*
X162975983Y-132291162D02*
X163016203Y-132326045D01*
X163016203Y-132326045D02*
X163074646Y-132404922D01*
X163074646Y-132404922D02*
X163101981Y-132470914D01*
X163101981Y-132470914D02*
X163116430Y-132568014D01*
X163116430Y-132568014D02*
X163112656Y-132621119D01*
X163112656Y-132621119D02*
X163086884Y-132683337D01*
X163086884Y-132683337D02*
X163030005Y-132732668D01*
X163030005Y-132732668D02*
X162920019Y-132778226D01*
X163623927Y-132486658D02*
X163359962Y-132595996D01*
X163491944Y-132541327D02*
X163300603Y-132079387D01*
X163300603Y-132079387D02*
X163283943Y-132163601D01*
X163283943Y-132163601D02*
X163258172Y-132225819D01*
X163258172Y-132225819D02*
X163223289Y-132266039D01*
X163892314Y-132014691D02*
X164019875Y-132322651D01*
X163709436Y-131884271D02*
X163736123Y-132259786D01*
X163736123Y-132259786D02*
X164022086Y-132141336D01*
X160338090Y-111196719D02*
X159984536Y-110843165D01*
X159984536Y-110843165D02*
X160068716Y-110758986D01*
X160068716Y-110758986D02*
X160136059Y-110725314D01*
X160136059Y-110725314D02*
X160203403Y-110725314D01*
X160203403Y-110725314D02*
X160253910Y-110742150D01*
X160253910Y-110742150D02*
X160338090Y-110792658D01*
X160338090Y-110792658D02*
X160388597Y-110843165D01*
X160388597Y-110843165D02*
X160439105Y-110927345D01*
X160439105Y-110927345D02*
X160455941Y-110977852D01*
X160455941Y-110977852D02*
X160455941Y-111045196D01*
X160455941Y-111045196D02*
X160422269Y-111112539D01*
X160422269Y-111112539D02*
X160338090Y-111196719D01*
X160506449Y-110321253D02*
X160338090Y-110489612D01*
X160338090Y-110489612D02*
X160489613Y-110674807D01*
X160489613Y-110674807D02*
X160489613Y-110641135D01*
X160489613Y-110641135D02*
X160506449Y-110590627D01*
X160506449Y-110590627D02*
X160590628Y-110506448D01*
X160590628Y-110506448D02*
X160641136Y-110489612D01*
X160641136Y-110489612D02*
X160674807Y-110489612D01*
X160674807Y-110489612D02*
X160725315Y-110506448D01*
X160725315Y-110506448D02*
X160809494Y-110590627D01*
X160809494Y-110590627D02*
X160826330Y-110641135D01*
X160826330Y-110641135D02*
X160826330Y-110674807D01*
X160826330Y-110674807D02*
X160809494Y-110725314D01*
X160809494Y-110725314D02*
X160725315Y-110809494D01*
X160725315Y-110809494D02*
X160674807Y-110826330D01*
X160674807Y-110826330D02*
X160641136Y-110826330D01*
X161213555Y-110321254D02*
X161011525Y-110523284D01*
X161112540Y-110422269D02*
X160758986Y-110068715D01*
X160758986Y-110068715D02*
X160775822Y-110152895D01*
X160775822Y-110152895D02*
X160775822Y-110220238D01*
X160775822Y-110220238D02*
X160758986Y-110270746D01*
X142531997Y-134432077D02*
X142629542Y-133941684D01*
X142629542Y-133941684D02*
X142746302Y-133964909D01*
X142746302Y-133964909D02*
X142811713Y-134002196D01*
X142811713Y-134002196D02*
X142849127Y-134058190D01*
X142849127Y-134058190D02*
X142863189Y-134109539D01*
X142863189Y-134109539D02*
X142867961Y-134207593D01*
X142867961Y-134207593D02*
X142854026Y-134277649D01*
X142854026Y-134277649D02*
X142812094Y-134366412D01*
X142812094Y-134366412D02*
X142779452Y-134408471D01*
X142779452Y-134408471D02*
X142723458Y-134445885D01*
X142723458Y-134445885D02*
X142648757Y-134455302D01*
X142648757Y-134455302D02*
X142531997Y-134432077D01*
X143279262Y-134580717D02*
X142999037Y-134524977D01*
X143139150Y-134552847D02*
X143236695Y-134062454D01*
X143236695Y-134062454D02*
X143176056Y-134123220D01*
X143176056Y-134123220D02*
X143120062Y-134160634D01*
X143120062Y-134160634D02*
X143068713Y-134174697D01*
X143540271Y-134122839D02*
X143867199Y-134187869D01*
X143867199Y-134187869D02*
X143559486Y-134636457D01*
X181984456Y-86352150D02*
X182446396Y-86160808D01*
X182446396Y-86160808D02*
X182491953Y-86270794D01*
X182491953Y-86270794D02*
X182497291Y-86345897D01*
X182497291Y-86345897D02*
X182471520Y-86408114D01*
X182471520Y-86408114D02*
X182436637Y-86448334D01*
X182436637Y-86448334D02*
X182357760Y-86506777D01*
X182357760Y-86506777D02*
X182291768Y-86534112D01*
X182291768Y-86534112D02*
X182194668Y-86548561D01*
X182194668Y-86548561D02*
X182141563Y-86544787D01*
X182141563Y-86544787D02*
X182079345Y-86519016D01*
X182079345Y-86519016D02*
X182030014Y-86462136D01*
X182030014Y-86462136D02*
X181984456Y-86352150D01*
X182719741Y-86820722D02*
X182683295Y-86732734D01*
X182683295Y-86732734D02*
X182643075Y-86697851D01*
X182643075Y-86697851D02*
X182611966Y-86684965D01*
X182611966Y-86684965D02*
X182527752Y-86668306D01*
X182527752Y-86668306D02*
X182430652Y-86682755D01*
X182430652Y-86682755D02*
X182254675Y-86755647D01*
X182254675Y-86755647D02*
X182219792Y-86795867D01*
X182219792Y-86795867D02*
X182206907Y-86826975D01*
X182206907Y-86826975D02*
X182203132Y-86880081D01*
X182203132Y-86880081D02*
X182239578Y-86968070D01*
X182239578Y-86968070D02*
X182279799Y-87002952D01*
X182279799Y-87002952D02*
X182310907Y-87015838D01*
X182310907Y-87015838D02*
X182364013Y-87019612D01*
X182364013Y-87019612D02*
X182473999Y-86974055D01*
X182473999Y-86974055D02*
X182508881Y-86933835D01*
X182508881Y-86933835D02*
X182521767Y-86902726D01*
X182521767Y-86902726D02*
X182525541Y-86849620D01*
X182525541Y-86849620D02*
X182489095Y-86761632D01*
X182489095Y-86761632D02*
X182448875Y-86726749D01*
X182448875Y-86726749D02*
X182417766Y-86713863D01*
X182417766Y-86713863D02*
X182364661Y-86710089D01*
X169011764Y-70882615D02*
X169289549Y-70466880D01*
X169289549Y-70466880D02*
X169388533Y-70533019D01*
X169388533Y-70533019D02*
X169434696Y-70592500D01*
X169434696Y-70592500D02*
X169447834Y-70658549D01*
X169447834Y-70658549D02*
X169441176Y-70711371D01*
X169441176Y-70711371D02*
X169408061Y-70803786D01*
X169408061Y-70803786D02*
X169368377Y-70863177D01*
X169368377Y-70863177D02*
X169295669Y-70929137D01*
X169295669Y-70929137D02*
X169249416Y-70955503D01*
X169249416Y-70955503D02*
X169183367Y-70968641D01*
X169183367Y-70968641D02*
X169110748Y-70948754D01*
X169110748Y-70948754D02*
X169011764Y-70882615D01*
X169665690Y-70718209D02*
X169923050Y-70890172D01*
X169923050Y-70890172D02*
X169678648Y-70955952D01*
X169678648Y-70955952D02*
X169738039Y-70995635D01*
X169738039Y-70995635D02*
X169764405Y-71041888D01*
X169764405Y-71041888D02*
X169770974Y-71074913D01*
X169770974Y-71074913D02*
X169764315Y-71127734D01*
X169764315Y-71127734D02*
X169698176Y-71226719D01*
X169698176Y-71226719D02*
X169651923Y-71253085D01*
X169651923Y-71253085D02*
X169618899Y-71259654D01*
X169618899Y-71259654D02*
X169566077Y-71252995D01*
X169566077Y-71252995D02*
X169447296Y-71173628D01*
X169447296Y-71173628D02*
X169420930Y-71127375D01*
X169420930Y-71127375D02*
X169414361Y-71094350D01*
X149392857Y-85227409D02*
X149392857Y-84727409D01*
X149392857Y-84727409D02*
X149511905Y-84727409D01*
X149511905Y-84727409D02*
X149583333Y-84751219D01*
X149583333Y-84751219D02*
X149630952Y-84798838D01*
X149630952Y-84798838D02*
X149654762Y-84846457D01*
X149654762Y-84846457D02*
X149678571Y-84941695D01*
X149678571Y-84941695D02*
X149678571Y-85013123D01*
X149678571Y-85013123D02*
X149654762Y-85108361D01*
X149654762Y-85108361D02*
X149630952Y-85155980D01*
X149630952Y-85155980D02*
X149583333Y-85203600D01*
X149583333Y-85203600D02*
X149511905Y-85227409D01*
X149511905Y-85227409D02*
X149392857Y-85227409D01*
X150130952Y-84727409D02*
X149892857Y-84727409D01*
X149892857Y-84727409D02*
X149869048Y-84965504D01*
X149869048Y-84965504D02*
X149892857Y-84941695D01*
X149892857Y-84941695D02*
X149940476Y-84917885D01*
X149940476Y-84917885D02*
X150059524Y-84917885D01*
X150059524Y-84917885D02*
X150107143Y-84941695D01*
X150107143Y-84941695D02*
X150130952Y-84965504D01*
X150130952Y-84965504D02*
X150154762Y-85013123D01*
X150154762Y-85013123D02*
X150154762Y-85132171D01*
X150154762Y-85132171D02*
X150130952Y-85179790D01*
X150130952Y-85179790D02*
X150107143Y-85203600D01*
X150107143Y-85203600D02*
X150059524Y-85227409D01*
X150059524Y-85227409D02*
X149940476Y-85227409D01*
X149940476Y-85227409D02*
X149892857Y-85203600D01*
X149892857Y-85203600D02*
X149869048Y-85179790D01*
X150583333Y-84727409D02*
X150488095Y-84727409D01*
X150488095Y-84727409D02*
X150440476Y-84751219D01*
X150440476Y-84751219D02*
X150416666Y-84775028D01*
X150416666Y-84775028D02*
X150369047Y-84846457D01*
X150369047Y-84846457D02*
X150345238Y-84941695D01*
X150345238Y-84941695D02*
X150345238Y-85132171D01*
X150345238Y-85132171D02*
X150369047Y-85179790D01*
X150369047Y-85179790D02*
X150392857Y-85203600D01*
X150392857Y-85203600D02*
X150440476Y-85227409D01*
X150440476Y-85227409D02*
X150535714Y-85227409D01*
X150535714Y-85227409D02*
X150583333Y-85203600D01*
X150583333Y-85203600D02*
X150607142Y-85179790D01*
X150607142Y-85179790D02*
X150630952Y-85132171D01*
X150630952Y-85132171D02*
X150630952Y-85013123D01*
X150630952Y-85013123D02*
X150607142Y-84965504D01*
X150607142Y-84965504D02*
X150583333Y-84941695D01*
X150583333Y-84941695D02*
X150535714Y-84917885D01*
X150535714Y-84917885D02*
X150440476Y-84917885D01*
X150440476Y-84917885D02*
X150392857Y-84941695D01*
X150392857Y-84941695D02*
X150369047Y-84965504D01*
X150369047Y-84965504D02*
X150345238Y-85013123D01*
X117641971Y-87254032D02*
X117180031Y-87062690D01*
X117180031Y-87062690D02*
X117225589Y-86952704D01*
X117225589Y-86952704D02*
X117274921Y-86895825D01*
X117274921Y-86895825D02*
X117337138Y-86870053D01*
X117337138Y-86870053D02*
X117390244Y-86866279D01*
X117390244Y-86866279D02*
X117487344Y-86880728D01*
X117487344Y-86880728D02*
X117553335Y-86908063D01*
X117553335Y-86908063D02*
X117632212Y-86966506D01*
X117632212Y-86966506D02*
X117667095Y-87006726D01*
X117667095Y-87006726D02*
X117692866Y-87068943D01*
X117692866Y-87068943D02*
X117687529Y-87144046D01*
X117687529Y-87144046D02*
X117641971Y-87254032D01*
X117406256Y-86640970D02*
X117393370Y-86609862D01*
X117393370Y-86609862D02*
X117389596Y-86556756D01*
X117389596Y-86556756D02*
X117435154Y-86446770D01*
X117435154Y-86446770D02*
X117475374Y-86411888D01*
X117475374Y-86411888D02*
X117506482Y-86399002D01*
X117506482Y-86399002D02*
X117559588Y-86395228D01*
X117559588Y-86395228D02*
X117603583Y-86413451D01*
X117603583Y-86413451D02*
X117660462Y-86462783D01*
X117660462Y-86462783D02*
X117815090Y-86836086D01*
X117815090Y-86836086D02*
X117933540Y-86550124D01*
X117635607Y-85962834D02*
X117599161Y-86050822D01*
X117599161Y-86050822D02*
X117602935Y-86103928D01*
X117602935Y-86103928D02*
X117615820Y-86135037D01*
X117615820Y-86135037D02*
X117663589Y-86206366D01*
X117663589Y-86206366D02*
X117742466Y-86264809D01*
X117742466Y-86264809D02*
X117918443Y-86337701D01*
X117918443Y-86337701D02*
X117971549Y-86333927D01*
X117971549Y-86333927D02*
X118002657Y-86321041D01*
X118002657Y-86321041D02*
X118042877Y-86286158D01*
X118042877Y-86286158D02*
X118079323Y-86198170D01*
X118079323Y-86198170D02*
X118075549Y-86145064D01*
X118075549Y-86145064D02*
X118062664Y-86113955D01*
X118062664Y-86113955D02*
X118027781Y-86073735D01*
X118027781Y-86073735D02*
X117917795Y-86028178D01*
X117917795Y-86028178D02*
X117864690Y-86031952D01*
X117864690Y-86031952D02*
X117833581Y-86044838D01*
X117833581Y-86044838D02*
X117793361Y-86079720D01*
X117793361Y-86079720D02*
X117756915Y-86167709D01*
X117756915Y-86167709D02*
X117760689Y-86220815D01*
X117760689Y-86220815D02*
X117773574Y-86251923D01*
X117773574Y-86251923D02*
X117808457Y-86292143D01*
X115777107Y-93811680D02*
X115286714Y-93714135D01*
X115286714Y-93714135D02*
X115309939Y-93597375D01*
X115309939Y-93597375D02*
X115347226Y-93531964D01*
X115347226Y-93531964D02*
X115403220Y-93494550D01*
X115403220Y-93494550D02*
X115454569Y-93480488D01*
X115454569Y-93480488D02*
X115552623Y-93475716D01*
X115552623Y-93475716D02*
X115622679Y-93489651D01*
X115622679Y-93489651D02*
X115711442Y-93531583D01*
X115711442Y-93531583D02*
X115753501Y-93564225D01*
X115753501Y-93564225D02*
X115790915Y-93620219D01*
X115790915Y-93620219D02*
X115800332Y-93694920D01*
X115800332Y-93694920D02*
X115777107Y-93811680D01*
X115426318Y-93256384D02*
X115407611Y-93228387D01*
X115407611Y-93228387D02*
X115393549Y-93177038D01*
X115393549Y-93177038D02*
X115416774Y-93060278D01*
X115416774Y-93060278D02*
X115449416Y-93018219D01*
X115449416Y-93018219D02*
X115477413Y-92999512D01*
X115477413Y-92999512D02*
X115528763Y-92985450D01*
X115528763Y-92985450D02*
X115575467Y-92994740D01*
X115575467Y-92994740D02*
X115640878Y-93032027D01*
X115640878Y-93032027D02*
X115865362Y-93367992D01*
X115865362Y-93367992D02*
X115925747Y-93064415D01*
X115523609Y-92523182D02*
X115477159Y-92756702D01*
X115477159Y-92756702D02*
X115706035Y-92826504D01*
X115706035Y-92826504D02*
X115687328Y-92798507D01*
X115687328Y-92798507D02*
X115673266Y-92747158D01*
X115673266Y-92747158D02*
X115696491Y-92630398D01*
X115696491Y-92630398D02*
X115729133Y-92588339D01*
X115729133Y-92588339D02*
X115757130Y-92569632D01*
X115757130Y-92569632D02*
X115808479Y-92555570D01*
X115808479Y-92555570D02*
X115925239Y-92578795D01*
X115925239Y-92578795D02*
X115967298Y-92611437D01*
X115967298Y-92611437D02*
X115986005Y-92639434D01*
X115986005Y-92639434D02*
X116000067Y-92690783D01*
X116000067Y-92690783D02*
X115976842Y-92807543D01*
X115976842Y-92807543D02*
X115944200Y-92849602D01*
X115944200Y-92849602D02*
X115916203Y-92868309D01*
X120750336Y-81186204D02*
X120334602Y-80908419D01*
X120334602Y-80908419D02*
X120400741Y-80809434D01*
X120400741Y-80809434D02*
X120460221Y-80763271D01*
X120460221Y-80763271D02*
X120526271Y-80750133D01*
X120526271Y-80750133D02*
X120579093Y-80756792D01*
X120579093Y-80756792D02*
X120671508Y-80789907D01*
X120671508Y-80789907D02*
X120730899Y-80829590D01*
X120730899Y-80829590D02*
X120796858Y-80902299D01*
X120796858Y-80902299D02*
X120823224Y-80948551D01*
X120823224Y-80948551D02*
X120836362Y-81014601D01*
X120836362Y-81014601D02*
X120816476Y-81087219D01*
X120816476Y-81087219D02*
X120750336Y-81186204D01*
X120638753Y-80538937D02*
X120632184Y-80505912D01*
X120632184Y-80505912D02*
X120638842Y-80453090D01*
X120638842Y-80453090D02*
X120704982Y-80354106D01*
X120704982Y-80354106D02*
X120751234Y-80327740D01*
X120751234Y-80327740D02*
X120784259Y-80321171D01*
X120784259Y-80321171D02*
X120837081Y-80327830D01*
X120837081Y-80327830D02*
X120876675Y-80354285D01*
X120876675Y-80354285D02*
X120922837Y-80413766D01*
X120922837Y-80413766D02*
X121001666Y-80810063D01*
X121001666Y-80810063D02*
X121173628Y-80552703D01*
X120850488Y-80136340D02*
X121035678Y-79859184D01*
X121035678Y-79859184D02*
X121332362Y-80315141D01*
X139124886Y-89983515D02*
X138771332Y-89629961D01*
X138771332Y-89629961D02*
X138855512Y-89545782D01*
X138855512Y-89545782D02*
X138922855Y-89512110D01*
X138922855Y-89512110D02*
X138990199Y-89512110D01*
X138990199Y-89512110D02*
X139040706Y-89528946D01*
X139040706Y-89528946D02*
X139124886Y-89579454D01*
X139124886Y-89579454D02*
X139175393Y-89629961D01*
X139175393Y-89629961D02*
X139225901Y-89714141D01*
X139225901Y-89714141D02*
X139242737Y-89764648D01*
X139242737Y-89764648D02*
X139242737Y-89831992D01*
X139242737Y-89831992D02*
X139209065Y-89899335D01*
X139209065Y-89899335D02*
X139124886Y-89983515D01*
X139293245Y-89108049D02*
X139124886Y-89276408D01*
X139124886Y-89276408D02*
X139276409Y-89461603D01*
X139276409Y-89461603D02*
X139276409Y-89427931D01*
X139276409Y-89427931D02*
X139293245Y-89377423D01*
X139293245Y-89377423D02*
X139377424Y-89293244D01*
X139377424Y-89293244D02*
X139427932Y-89276408D01*
X139427932Y-89276408D02*
X139461603Y-89276408D01*
X139461603Y-89276408D02*
X139512111Y-89293244D01*
X139512111Y-89293244D02*
X139596290Y-89377423D01*
X139596290Y-89377423D02*
X139613126Y-89427931D01*
X139613126Y-89427931D02*
X139613126Y-89461603D01*
X139613126Y-89461603D02*
X139596290Y-89512110D01*
X139596290Y-89512110D02*
X139512111Y-89596290D01*
X139512111Y-89596290D02*
X139461603Y-89613126D01*
X139461603Y-89613126D02*
X139427932Y-89613126D01*
X139629962Y-88771332D02*
X139461603Y-88939691D01*
X139461603Y-88939691D02*
X139613126Y-89124885D01*
X139613126Y-89124885D02*
X139613126Y-89091214D01*
X139613126Y-89091214D02*
X139629962Y-89040706D01*
X139629962Y-89040706D02*
X139714141Y-88956527D01*
X139714141Y-88956527D02*
X139764649Y-88939691D01*
X139764649Y-88939691D02*
X139798321Y-88939691D01*
X139798321Y-88939691D02*
X139848828Y-88956527D01*
X139848828Y-88956527D02*
X139933008Y-89040706D01*
X139933008Y-89040706D02*
X139949843Y-89091214D01*
X139949843Y-89091214D02*
X139949843Y-89124885D01*
X139949843Y-89124885D02*
X139933008Y-89175393D01*
X139933008Y-89175393D02*
X139848828Y-89259572D01*
X139848828Y-89259572D02*
X139798321Y-89276408D01*
X139798321Y-89276408D02*
X139764649Y-89276408D01*
X174326978Y-75151108D02*
X174680531Y-74797555D01*
X174680531Y-74797555D02*
X174764711Y-74881734D01*
X174764711Y-74881734D02*
X174798382Y-74949078D01*
X174798382Y-74949078D02*
X174798382Y-75016421D01*
X174798382Y-75016421D02*
X174781546Y-75066929D01*
X174781546Y-75066929D02*
X174731039Y-75151108D01*
X174731039Y-75151108D02*
X174680531Y-75201616D01*
X174680531Y-75201616D02*
X174596352Y-75252124D01*
X174596352Y-75252124D02*
X174545844Y-75268960D01*
X174545844Y-75268960D02*
X174478501Y-75268960D01*
X174478501Y-75268960D02*
X174411157Y-75235288D01*
X174411157Y-75235288D02*
X174326978Y-75151108D01*
X175067756Y-75420482D02*
X174832054Y-75656185D01*
X175118264Y-75201616D02*
X174781546Y-75369975D01*
X174781546Y-75369975D02*
X175000413Y-75588841D01*
X117221773Y-112920019D02*
X117683713Y-112728677D01*
X117683713Y-112728677D02*
X117729270Y-112838663D01*
X117729270Y-112838663D02*
X117734608Y-112913766D01*
X117734608Y-112913766D02*
X117708837Y-112975983D01*
X117708837Y-112975983D02*
X117673954Y-113016203D01*
X117673954Y-113016203D02*
X117595077Y-113074646D01*
X117595077Y-113074646D02*
X117529085Y-113101981D01*
X117529085Y-113101981D02*
X117431985Y-113116430D01*
X117431985Y-113116430D02*
X117378880Y-113112656D01*
X117378880Y-113112656D02*
X117316662Y-113086884D01*
X117316662Y-113086884D02*
X117267331Y-113030005D01*
X117267331Y-113030005D02*
X117221773Y-112920019D01*
X117821949Y-113186843D02*
X117853058Y-113199728D01*
X117853058Y-113199728D02*
X117893278Y-113234611D01*
X117893278Y-113234611D02*
X117938835Y-113344597D01*
X117938835Y-113344597D02*
X117935061Y-113397703D01*
X117935061Y-113397703D02*
X117922175Y-113428811D01*
X117922175Y-113428811D02*
X117887293Y-113469031D01*
X117887293Y-113469031D02*
X117843298Y-113487254D01*
X117843298Y-113487254D02*
X117768196Y-113492592D01*
X117768196Y-113492592D02*
X117394892Y-113337964D01*
X117394892Y-113337964D02*
X117513341Y-113623927D01*
X118004179Y-113626785D02*
X118035288Y-113639671D01*
X118035288Y-113639671D02*
X118075508Y-113674553D01*
X118075508Y-113674553D02*
X118121065Y-113784539D01*
X118121065Y-113784539D02*
X118117291Y-113837645D01*
X118117291Y-113837645D02*
X118104406Y-113868754D01*
X118104406Y-113868754D02*
X118069523Y-113908974D01*
X118069523Y-113908974D02*
X118025528Y-113927197D01*
X118025528Y-113927197D02*
X117950426Y-113932534D01*
X117950426Y-113932534D02*
X117577122Y-113777907D01*
X117577122Y-113777907D02*
X117695572Y-114063869D01*
X136132179Y-68106658D02*
X135940837Y-67644718D01*
X135940837Y-67644718D02*
X136050823Y-67599161D01*
X136050823Y-67599161D02*
X136125926Y-67593823D01*
X136125926Y-67593823D02*
X136188143Y-67619594D01*
X136188143Y-67619594D02*
X136228363Y-67654477D01*
X136228363Y-67654477D02*
X136286806Y-67733354D01*
X136286806Y-67733354D02*
X136314141Y-67799346D01*
X136314141Y-67799346D02*
X136328590Y-67896446D01*
X136328590Y-67896446D02*
X136324816Y-67949551D01*
X136324816Y-67949551D02*
X136299044Y-68011769D01*
X136299044Y-68011769D02*
X136242165Y-68061100D01*
X136242165Y-68061100D02*
X136132179Y-68106658D01*
X136358783Y-67471599D02*
X136644745Y-67353150D01*
X136644745Y-67353150D02*
X136563658Y-67592907D01*
X136563658Y-67592907D02*
X136629649Y-67565573D01*
X136629649Y-67565573D02*
X136682755Y-67569347D01*
X136682755Y-67569347D02*
X136713863Y-67582233D01*
X136713863Y-67582233D02*
X136754084Y-67617115D01*
X136754084Y-67617115D02*
X136799641Y-67727101D01*
X136799641Y-67727101D02*
X136795867Y-67780207D01*
X136795867Y-67780207D02*
X136782981Y-67811315D01*
X136782981Y-67811315D02*
X136748099Y-67851536D01*
X136748099Y-67851536D02*
X136616116Y-67906205D01*
X136616116Y-67906205D02*
X136563010Y-67902430D01*
X136563010Y-67902430D02*
X136531901Y-67889545D01*
X136930708Y-67234700D02*
X136974702Y-67216477D01*
X136974702Y-67216477D02*
X137027808Y-67220251D01*
X137027808Y-67220251D02*
X137058916Y-67233137D01*
X137058916Y-67233137D02*
X137099137Y-67268020D01*
X137099137Y-67268020D02*
X137157580Y-67346897D01*
X137157580Y-67346897D02*
X137203137Y-67456882D01*
X137203137Y-67456882D02*
X137217586Y-67553982D01*
X137217586Y-67553982D02*
X137213812Y-67607088D01*
X137213812Y-67607088D02*
X137200926Y-67638197D01*
X137200926Y-67638197D02*
X137166044Y-67678417D01*
X137166044Y-67678417D02*
X137122049Y-67696640D01*
X137122049Y-67696640D02*
X137068944Y-67692866D01*
X137068944Y-67692866D02*
X137037835Y-67679980D01*
X137037835Y-67679980D02*
X136997615Y-67645098D01*
X136997615Y-67645098D02*
X136939172Y-67566221D01*
X136939172Y-67566221D02*
X136893614Y-67456235D01*
X136893614Y-67456235D02*
X136879165Y-67359135D01*
X136879165Y-67359135D02*
X136882939Y-67306029D01*
X136882939Y-67306029D02*
X136895825Y-67274920D01*
X136895825Y-67274920D02*
X136930708Y-67234700D01*
X182313539Y-114041872D02*
X181851599Y-113850530D01*
X181851599Y-113850530D02*
X181897157Y-113740544D01*
X181897157Y-113740544D02*
X181946489Y-113683665D01*
X181946489Y-113683665D02*
X182008706Y-113657893D01*
X182008706Y-113657893D02*
X182061812Y-113654119D01*
X182061812Y-113654119D02*
X182158912Y-113668568D01*
X182158912Y-113668568D02*
X182224903Y-113695903D01*
X182224903Y-113695903D02*
X182303780Y-113754346D01*
X182303780Y-113754346D02*
X182338663Y-113794566D01*
X182338663Y-113794566D02*
X182364434Y-113856783D01*
X182364434Y-113856783D02*
X182359097Y-113931886D01*
X182359097Y-113931886D02*
X182313539Y-114041872D01*
X182605108Y-113337964D02*
X182495769Y-113601929D01*
X182550438Y-113469946D02*
X182088499Y-113278605D01*
X182088499Y-113278605D02*
X182136267Y-113349933D01*
X182136267Y-113349933D02*
X182162038Y-113412151D01*
X182162038Y-113412151D02*
X182165812Y-113465256D01*
X182261617Y-112860660D02*
X182279840Y-112816665D01*
X182279840Y-112816665D02*
X182320060Y-112781783D01*
X182320060Y-112781783D02*
X182351169Y-112768897D01*
X182351169Y-112768897D02*
X182404275Y-112765123D01*
X182404275Y-112765123D02*
X182501375Y-112779572D01*
X182501375Y-112779572D02*
X182611360Y-112825129D01*
X182611360Y-112825129D02*
X182690237Y-112883572D01*
X182690237Y-112883572D02*
X182725120Y-112923793D01*
X182725120Y-112923793D02*
X182738006Y-112954901D01*
X182738006Y-112954901D02*
X182741780Y-113008007D01*
X182741780Y-113008007D02*
X182723557Y-113052001D01*
X182723557Y-113052001D02*
X182683337Y-113086884D01*
X182683337Y-113086884D02*
X182652228Y-113099770D01*
X182652228Y-113099770D02*
X182599122Y-113103544D01*
X182599122Y-113103544D02*
X182502022Y-113089095D01*
X182502022Y-113089095D02*
X182392037Y-113043537D01*
X182392037Y-113043537D02*
X182313160Y-112985094D01*
X182313160Y-112985094D02*
X182278277Y-112944874D01*
X182278277Y-112944874D02*
X182265391Y-112913765D01*
X182265391Y-112913765D02*
X182261617Y-112860660D01*
X135958127Y-132313539D02*
X136149469Y-131851599D01*
X136149469Y-131851599D02*
X136259455Y-131897157D01*
X136259455Y-131897157D02*
X136316334Y-131946489D01*
X136316334Y-131946489D02*
X136342106Y-132008706D01*
X136342106Y-132008706D02*
X136345880Y-132061812D01*
X136345880Y-132061812D02*
X136331431Y-132158912D01*
X136331431Y-132158912D02*
X136304096Y-132224903D01*
X136304096Y-132224903D02*
X136245653Y-132303780D01*
X136245653Y-132303780D02*
X136205433Y-132338663D01*
X136205433Y-132338663D02*
X136143216Y-132364434D01*
X136143216Y-132364434D02*
X136068113Y-132359097D01*
X136068113Y-132359097D02*
X135958127Y-132313539D01*
X136662035Y-132605108D02*
X136398070Y-132495769D01*
X136530053Y-132550438D02*
X136721394Y-132088499D01*
X136721394Y-132088499D02*
X136650066Y-132136267D01*
X136650066Y-132136267D02*
X136587848Y-132162038D01*
X136587848Y-132162038D02*
X136534743Y-132165812D01*
X137035339Y-132450480D02*
X137000456Y-132410260D01*
X137000456Y-132410260D02*
X136987570Y-132379151D01*
X136987570Y-132379151D02*
X136983796Y-132326045D01*
X136983796Y-132326045D02*
X136992908Y-132304048D01*
X136992908Y-132304048D02*
X137033128Y-132269165D01*
X137033128Y-132269165D02*
X137064237Y-132256280D01*
X137064237Y-132256280D02*
X137117342Y-132252506D01*
X137117342Y-132252506D02*
X137205331Y-132288952D01*
X137205331Y-132288952D02*
X137240214Y-132329172D01*
X137240214Y-132329172D02*
X137253099Y-132360281D01*
X137253099Y-132360281D02*
X137256873Y-132413386D01*
X137256873Y-132413386D02*
X137247762Y-132435383D01*
X137247762Y-132435383D02*
X137207542Y-132470266D01*
X137207542Y-132470266D02*
X137176433Y-132483152D01*
X137176433Y-132483152D02*
X137123327Y-132486926D01*
X137123327Y-132486926D02*
X137035339Y-132450480D01*
X137035339Y-132450480D02*
X136982233Y-132454254D01*
X136982233Y-132454254D02*
X136951124Y-132467140D01*
X136951124Y-132467140D02*
X136910904Y-132502022D01*
X136910904Y-132502022D02*
X136874458Y-132590011D01*
X136874458Y-132590011D02*
X136878232Y-132643117D01*
X136878232Y-132643117D02*
X136891118Y-132674225D01*
X136891118Y-132674225D02*
X136926001Y-132714445D01*
X136926001Y-132714445D02*
X137013989Y-132750891D01*
X137013989Y-132750891D02*
X137067095Y-132747117D01*
X137067095Y-132747117D02*
X137098204Y-132734232D01*
X137098204Y-132734232D02*
X137138424Y-132699349D01*
X137138424Y-132699349D02*
X137174870Y-132611360D01*
X137174870Y-132611360D02*
X137171096Y-132558255D01*
X137171096Y-132558255D02*
X137158210Y-132527146D01*
X137158210Y-132527146D02*
X137123327Y-132486926D01*
X175227409Y-100607142D02*
X174727409Y-100607142D01*
X174727409Y-100607142D02*
X174727409Y-100488094D01*
X174727409Y-100488094D02*
X174751219Y-100416666D01*
X174751219Y-100416666D02*
X174798838Y-100369047D01*
X174798838Y-100369047D02*
X174846457Y-100345237D01*
X174846457Y-100345237D02*
X174941695Y-100321428D01*
X174941695Y-100321428D02*
X175013123Y-100321428D01*
X175013123Y-100321428D02*
X175108361Y-100345237D01*
X175108361Y-100345237D02*
X175155980Y-100369047D01*
X175155980Y-100369047D02*
X175203600Y-100416666D01*
X175203600Y-100416666D02*
X175227409Y-100488094D01*
X175227409Y-100488094D02*
X175227409Y-100607142D01*
X174727409Y-100154761D02*
X174727409Y-99845237D01*
X174727409Y-99845237D02*
X174917885Y-100011904D01*
X174917885Y-100011904D02*
X174917885Y-99940475D01*
X174917885Y-99940475D02*
X174941695Y-99892856D01*
X174941695Y-99892856D02*
X174965504Y-99869047D01*
X174965504Y-99869047D02*
X175013123Y-99845237D01*
X175013123Y-99845237D02*
X175132171Y-99845237D01*
X175132171Y-99845237D02*
X175179790Y-99869047D01*
X175179790Y-99869047D02*
X175203600Y-99892856D01*
X175203600Y-99892856D02*
X175227409Y-99940475D01*
X175227409Y-99940475D02*
X175227409Y-100083332D01*
X175227409Y-100083332D02*
X175203600Y-100130951D01*
X175203600Y-100130951D02*
X175179790Y-100154761D01*
X174727409Y-99416666D02*
X174727409Y-99511904D01*
X174727409Y-99511904D02*
X174751219Y-99559523D01*
X174751219Y-99559523D02*
X174775028Y-99583333D01*
X174775028Y-99583333D02*
X174846457Y-99630952D01*
X174846457Y-99630952D02*
X174941695Y-99654761D01*
X174941695Y-99654761D02*
X175132171Y-99654761D01*
X175132171Y-99654761D02*
X175179790Y-99630952D01*
X175179790Y-99630952D02*
X175203600Y-99607142D01*
X175203600Y-99607142D02*
X175227409Y-99559523D01*
X175227409Y-99559523D02*
X175227409Y-99464285D01*
X175227409Y-99464285D02*
X175203600Y-99416666D01*
X175203600Y-99416666D02*
X175179790Y-99392857D01*
X175179790Y-99392857D02*
X175132171Y-99369047D01*
X175132171Y-99369047D02*
X175013123Y-99369047D01*
X175013123Y-99369047D02*
X174965504Y-99392857D01*
X174965504Y-99392857D02*
X174941695Y-99416666D01*
X174941695Y-99416666D02*
X174917885Y-99464285D01*
X174917885Y-99464285D02*
X174917885Y-99559523D01*
X174917885Y-99559523D02*
X174941695Y-99607142D01*
X174941695Y-99607142D02*
X174965504Y-99630952D01*
X174965504Y-99630952D02*
X175013123Y-99654761D01*
X184032447Y-92854247D02*
X184522840Y-92756701D01*
X184522840Y-92756701D02*
X184546065Y-92873462D01*
X184546065Y-92873462D02*
X184536648Y-92948163D01*
X184536648Y-92948163D02*
X184499234Y-93004157D01*
X184499234Y-93004157D02*
X184457175Y-93036799D01*
X184457175Y-93036799D02*
X184368411Y-93078731D01*
X184368411Y-93078731D02*
X184298355Y-93092666D01*
X184298355Y-93092666D02*
X184200302Y-93087894D01*
X184200302Y-93087894D02*
X184148953Y-93073832D01*
X184148953Y-93073832D02*
X184092959Y-93036418D01*
X184092959Y-93036418D02*
X184055672Y-92971007D01*
X184055672Y-92971007D02*
X184032447Y-92854247D01*
X184611095Y-93200390D02*
X184676125Y-93527319D01*
X184676125Y-93527319D02*
X184143927Y-93414695D01*
X167409157Y-118267787D02*
X167055603Y-117914233D01*
X167055603Y-117914233D02*
X167139783Y-117830054D01*
X167139783Y-117830054D02*
X167207126Y-117796382D01*
X167207126Y-117796382D02*
X167274470Y-117796382D01*
X167274470Y-117796382D02*
X167324977Y-117813218D01*
X167324977Y-117813218D02*
X167409157Y-117863726D01*
X167409157Y-117863726D02*
X167459664Y-117914233D01*
X167459664Y-117914233D02*
X167510172Y-117998413D01*
X167510172Y-117998413D02*
X167527008Y-118048920D01*
X167527008Y-118048920D02*
X167527008Y-118116264D01*
X167527008Y-118116264D02*
X167493336Y-118183607D01*
X167493336Y-118183607D02*
X167409157Y-118267787D01*
X167375485Y-117594352D02*
X167594351Y-117375485D01*
X167594351Y-117375485D02*
X167611187Y-117628024D01*
X167611187Y-117628024D02*
X167661695Y-117577516D01*
X167661695Y-117577516D02*
X167712203Y-117560680D01*
X167712203Y-117560680D02*
X167745874Y-117560680D01*
X167745874Y-117560680D02*
X167796382Y-117577516D01*
X167796382Y-117577516D02*
X167880561Y-117661695D01*
X167880561Y-117661695D02*
X167897397Y-117712203D01*
X167897397Y-117712203D02*
X167897397Y-117745875D01*
X167897397Y-117745875D02*
X167880561Y-117796382D01*
X167880561Y-117796382D02*
X167779546Y-117897398D01*
X167779546Y-117897398D02*
X167729038Y-117914233D01*
X167729038Y-117914233D02*
X167695367Y-117914233D01*
X167947905Y-117324978D02*
X167897397Y-117341814D01*
X167897397Y-117341814D02*
X167863725Y-117341814D01*
X167863725Y-117341814D02*
X167813218Y-117324978D01*
X167813218Y-117324978D02*
X167796382Y-117308142D01*
X167796382Y-117308142D02*
X167779546Y-117257635D01*
X167779546Y-117257635D02*
X167779546Y-117223963D01*
X167779546Y-117223963D02*
X167796382Y-117173455D01*
X167796382Y-117173455D02*
X167863725Y-117106112D01*
X167863725Y-117106112D02*
X167914233Y-117089276D01*
X167914233Y-117089276D02*
X167947905Y-117089276D01*
X167947905Y-117089276D02*
X167998412Y-117106112D01*
X167998412Y-117106112D02*
X168015248Y-117122948D01*
X168015248Y-117122948D02*
X168032084Y-117173455D01*
X168032084Y-117173455D02*
X168032084Y-117207127D01*
X168032084Y-117207127D02*
X168015248Y-117257635D01*
X168015248Y-117257635D02*
X167947905Y-117324978D01*
X167947905Y-117324978D02*
X167931069Y-117375486D01*
X167931069Y-117375486D02*
X167931069Y-117409157D01*
X167931069Y-117409157D02*
X167947905Y-117459665D01*
X167947905Y-117459665D02*
X168015248Y-117527009D01*
X168015248Y-117527009D02*
X168065756Y-117543844D01*
X168065756Y-117543844D02*
X168099427Y-117543844D01*
X168099427Y-117543844D02*
X168149935Y-117527009D01*
X168149935Y-117527009D02*
X168217279Y-117459665D01*
X168217279Y-117459665D02*
X168234114Y-117409157D01*
X168234114Y-117409157D02*
X168234114Y-117375486D01*
X168234114Y-117375486D02*
X168217279Y-117324978D01*
X168217279Y-117324978D02*
X168149935Y-117257635D01*
X168149935Y-117257635D02*
X168099427Y-117240799D01*
X168099427Y-117240799D02*
X168065756Y-117240799D01*
X168065756Y-117240799D02*
X168015248Y-117257635D01*
X156277051Y-134668972D02*
X156179505Y-134178579D01*
X156179505Y-134178579D02*
X156296266Y-134155354D01*
X156296266Y-134155354D02*
X156370967Y-134164771D01*
X156370967Y-134164771D02*
X156426961Y-134202185D01*
X156426961Y-134202185D02*
X156459603Y-134244244D01*
X156459603Y-134244244D02*
X156501535Y-134333008D01*
X156501535Y-134333008D02*
X156515470Y-134403064D01*
X156515470Y-134403064D02*
X156510698Y-134501117D01*
X156510698Y-134501117D02*
X156496636Y-134552466D01*
X156496636Y-134552466D02*
X156459222Y-134608460D01*
X156459222Y-134608460D02*
X156393811Y-134645747D01*
X156393811Y-134645747D02*
X156277051Y-134668972D01*
X157024316Y-134520332D02*
X156744091Y-134576072D01*
X156884203Y-134548202D02*
X156786658Y-134057809D01*
X156786658Y-134057809D02*
X156753889Y-134137155D01*
X156753889Y-134137155D02*
X156716475Y-134193149D01*
X156716475Y-134193149D02*
X156674416Y-134225791D01*
X157370459Y-133941684D02*
X157136938Y-133988134D01*
X157136938Y-133988134D02*
X157160036Y-134226299D01*
X157160036Y-134226299D02*
X157178743Y-134198302D01*
X157178743Y-134198302D02*
X157220802Y-134165660D01*
X157220802Y-134165660D02*
X157337562Y-134142435D01*
X157337562Y-134142435D02*
X157388912Y-134156497D01*
X157388912Y-134156497D02*
X157416909Y-134175204D01*
X157416909Y-134175204D02*
X157449551Y-134217263D01*
X157449551Y-134217263D02*
X157472776Y-134334024D01*
X157472776Y-134334024D02*
X157458714Y-134385373D01*
X157458714Y-134385373D02*
X157440007Y-134413370D01*
X157440007Y-134413370D02*
X157397948Y-134446012D01*
X157397948Y-134446012D02*
X157281187Y-134469237D01*
X157281187Y-134469237D02*
X157229838Y-134455175D01*
X157229838Y-134455175D02*
X157201841Y-134436468D01*
X149392857Y-135227409D02*
X149392857Y-134727409D01*
X149392857Y-134727409D02*
X149511905Y-134727409D01*
X149511905Y-134727409D02*
X149583333Y-134751219D01*
X149583333Y-134751219D02*
X149630952Y-134798838D01*
X149630952Y-134798838D02*
X149654762Y-134846457D01*
X149654762Y-134846457D02*
X149678571Y-134941695D01*
X149678571Y-134941695D02*
X149678571Y-135013123D01*
X149678571Y-135013123D02*
X149654762Y-135108361D01*
X149654762Y-135108361D02*
X149630952Y-135155980D01*
X149630952Y-135155980D02*
X149583333Y-135203600D01*
X149583333Y-135203600D02*
X149511905Y-135227409D01*
X149511905Y-135227409D02*
X149392857Y-135227409D01*
X150154762Y-135227409D02*
X149869048Y-135227409D01*
X150011905Y-135227409D02*
X150011905Y-134727409D01*
X150011905Y-134727409D02*
X149964286Y-134798838D01*
X149964286Y-134798838D02*
X149916667Y-134846457D01*
X149916667Y-134846457D02*
X149869048Y-134870266D01*
X150583333Y-134727409D02*
X150488095Y-134727409D01*
X150488095Y-134727409D02*
X150440476Y-134751219D01*
X150440476Y-134751219D02*
X150416666Y-134775028D01*
X150416666Y-134775028D02*
X150369047Y-134846457D01*
X150369047Y-134846457D02*
X150345238Y-134941695D01*
X150345238Y-134941695D02*
X150345238Y-135132171D01*
X150345238Y-135132171D02*
X150369047Y-135179790D01*
X150369047Y-135179790D02*
X150392857Y-135203600D01*
X150392857Y-135203600D02*
X150440476Y-135227409D01*
X150440476Y-135227409D02*
X150535714Y-135227409D01*
X150535714Y-135227409D02*
X150583333Y-135203600D01*
X150583333Y-135203600D02*
X150607142Y-135179790D01*
X150607142Y-135179790D02*
X150630952Y-135132171D01*
X150630952Y-135132171D02*
X150630952Y-135013123D01*
X150630952Y-135013123D02*
X150607142Y-134965504D01*
X150607142Y-134965504D02*
X150583333Y-134941695D01*
X150583333Y-134941695D02*
X150535714Y-134917885D01*
X150535714Y-134917885D02*
X150440476Y-134917885D01*
X150440476Y-134917885D02*
X150392857Y-134941695D01*
X150392857Y-134941695D02*
X150369047Y-134965504D01*
X150369047Y-134965504D02*
X150345238Y-135013123D01*
X160016484Y-89124886D02*
X160370038Y-88771332D01*
X160370038Y-88771332D02*
X160454217Y-88855512D01*
X160454217Y-88855512D02*
X160487889Y-88922855D01*
X160487889Y-88922855D02*
X160487889Y-88990199D01*
X160487889Y-88990199D02*
X160471053Y-89040706D01*
X160471053Y-89040706D02*
X160420545Y-89124886D01*
X160420545Y-89124886D02*
X160370038Y-89175393D01*
X160370038Y-89175393D02*
X160285858Y-89225901D01*
X160285858Y-89225901D02*
X160235351Y-89242737D01*
X160235351Y-89242737D02*
X160168007Y-89242737D01*
X160168007Y-89242737D02*
X160100664Y-89209065D01*
X160100664Y-89209065D02*
X160016484Y-89124886D01*
X160757263Y-89394260D02*
X160521560Y-89629962D01*
X160807770Y-89175393D02*
X160471053Y-89343752D01*
X160471053Y-89343752D02*
X160689919Y-89562619D01*
X160723591Y-89831992D02*
X160790934Y-89899336D01*
X160790934Y-89899336D02*
X160841442Y-89916172D01*
X160841442Y-89916172D02*
X160875114Y-89916172D01*
X160875114Y-89916172D02*
X160959293Y-89899336D01*
X160959293Y-89899336D02*
X161043472Y-89848828D01*
X161043472Y-89848828D02*
X161178159Y-89714141D01*
X161178159Y-89714141D02*
X161194995Y-89663634D01*
X161194995Y-89663634D02*
X161194995Y-89629962D01*
X161194995Y-89629962D02*
X161178159Y-89579454D01*
X161178159Y-89579454D02*
X161110816Y-89512111D01*
X161110816Y-89512111D02*
X161060308Y-89495275D01*
X161060308Y-89495275D02*
X161026636Y-89495275D01*
X161026636Y-89495275D02*
X160976129Y-89512111D01*
X160976129Y-89512111D02*
X160891949Y-89596290D01*
X160891949Y-89596290D02*
X160875114Y-89646798D01*
X160875114Y-89646798D02*
X160875114Y-89680469D01*
X160875114Y-89680469D02*
X160891949Y-89730977D01*
X160891949Y-89730977D02*
X160959293Y-89798321D01*
X160959293Y-89798321D02*
X161009801Y-89815156D01*
X161009801Y-89815156D02*
X161043472Y-89815156D01*
X161043472Y-89815156D02*
X161093980Y-89798321D01*
X124661145Y-124480226D02*
X125014699Y-124126672D01*
X125014699Y-124126672D02*
X125098878Y-124210852D01*
X125098878Y-124210852D02*
X125132550Y-124278195D01*
X125132550Y-124278195D02*
X125132550Y-124345539D01*
X125132550Y-124345539D02*
X125115714Y-124396046D01*
X125115714Y-124396046D02*
X125065206Y-124480226D01*
X125065206Y-124480226D02*
X125014699Y-124530733D01*
X125014699Y-124530733D02*
X124930519Y-124581241D01*
X124930519Y-124581241D02*
X124880012Y-124598077D01*
X124880012Y-124598077D02*
X124812668Y-124598077D01*
X124812668Y-124598077D02*
X124745325Y-124564405D01*
X124745325Y-124564405D02*
X124661145Y-124480226D01*
X125317744Y-124497062D02*
X125351416Y-124497062D01*
X125351416Y-124497062D02*
X125401924Y-124513898D01*
X125401924Y-124513898D02*
X125486103Y-124598077D01*
X125486103Y-124598077D02*
X125502939Y-124648585D01*
X125502939Y-124648585D02*
X125502939Y-124682256D01*
X125502939Y-124682256D02*
X125486103Y-124732764D01*
X125486103Y-124732764D02*
X125452431Y-124766436D01*
X125452431Y-124766436D02*
X125385088Y-124800107D01*
X125385088Y-124800107D02*
X124981027Y-124800107D01*
X124981027Y-124800107D02*
X125199893Y-125018974D01*
X125772313Y-124884287D02*
X125805984Y-124917958D01*
X125805984Y-124917958D02*
X125822820Y-124968466D01*
X125822820Y-124968466D02*
X125822820Y-125002138D01*
X125822820Y-125002138D02*
X125805984Y-125052645D01*
X125805984Y-125052645D02*
X125755477Y-125136825D01*
X125755477Y-125136825D02*
X125671297Y-125221004D01*
X125671297Y-125221004D02*
X125587118Y-125271512D01*
X125587118Y-125271512D02*
X125536610Y-125288348D01*
X125536610Y-125288348D02*
X125502939Y-125288348D01*
X125502939Y-125288348D02*
X125452431Y-125271512D01*
X125452431Y-125271512D02*
X125418759Y-125237840D01*
X125418759Y-125237840D02*
X125401923Y-125187332D01*
X125401923Y-125187332D02*
X125401923Y-125153661D01*
X125401923Y-125153661D02*
X125418759Y-125103153D01*
X125418759Y-125103153D02*
X125469267Y-125018974D01*
X125469267Y-125018974D02*
X125553446Y-124934794D01*
X125553446Y-124934794D02*
X125637626Y-124884287D01*
X125637626Y-124884287D02*
X125688133Y-124867451D01*
X125688133Y-124867451D02*
X125721805Y-124867451D01*
X125721805Y-124867451D02*
X125772313Y-124884287D01*
X169066479Y-129627830D02*
X168788694Y-129212095D01*
X168788694Y-129212095D02*
X168887678Y-129145956D01*
X168887678Y-129145956D02*
X168960297Y-129126069D01*
X168960297Y-129126069D02*
X169026346Y-129139207D01*
X169026346Y-129139207D02*
X169072599Y-129165573D01*
X169072599Y-129165573D02*
X169145307Y-129231533D01*
X169145307Y-129231533D02*
X169184991Y-129290923D01*
X169184991Y-129290923D02*
X169218106Y-129383339D01*
X169218106Y-129383339D02*
X169224764Y-129436161D01*
X169224764Y-129436161D02*
X169211626Y-129502210D01*
X169211626Y-129502210D02*
X169165463Y-129561691D01*
X169165463Y-129561691D02*
X169066479Y-129627830D01*
X169699980Y-129204538D02*
X169462417Y-129363273D01*
X169581198Y-129283905D02*
X169303413Y-128868171D01*
X169303413Y-128868171D02*
X169303503Y-128954017D01*
X169303503Y-128954017D02*
X169290365Y-129020067D01*
X169290365Y-129020067D02*
X169263999Y-129066319D01*
X169560772Y-128696209D02*
X169818132Y-128524246D01*
X169818132Y-128524246D02*
X169785377Y-128775217D01*
X169785377Y-128775217D02*
X169844767Y-128735533D01*
X169844767Y-128735533D02*
X169897589Y-128728874D01*
X169897589Y-128728874D02*
X169930614Y-128735443D01*
X169930614Y-128735443D02*
X169976866Y-128761809D01*
X169976866Y-128761809D02*
X170043006Y-128860794D01*
X170043006Y-128860794D02*
X170049665Y-128913615D01*
X170049665Y-128913615D02*
X170043096Y-128946640D01*
X170043096Y-128946640D02*
X170016730Y-128992893D01*
X170016730Y-128992893D02*
X169897948Y-129072260D01*
X169897948Y-129072260D02*
X169845127Y-129078919D01*
X169845127Y-129078919D02*
X169812102Y-129072350D01*
X162965938Y-67733086D02*
X163157280Y-67271146D01*
X163157280Y-67271146D02*
X163267266Y-67316704D01*
X163267266Y-67316704D02*
X163324146Y-67366036D01*
X163324146Y-67366036D02*
X163349917Y-67428253D01*
X163349917Y-67428253D02*
X163353691Y-67481359D01*
X163353691Y-67481359D02*
X163339242Y-67578459D01*
X163339242Y-67578459D02*
X163311907Y-67644450D01*
X163311907Y-67644450D02*
X163253464Y-67723327D01*
X163253464Y-67723327D02*
X163213244Y-67758210D01*
X163213244Y-67758210D02*
X163151027Y-67783981D01*
X163151027Y-67783981D02*
X163075924Y-67778644D01*
X163075924Y-67778644D02*
X162965938Y-67733086D01*
X163579000Y-67497371D02*
X163610108Y-67484485D01*
X163610108Y-67484485D02*
X163663214Y-67480711D01*
X163663214Y-67480711D02*
X163773200Y-67526269D01*
X163773200Y-67526269D02*
X163808082Y-67566489D01*
X163808082Y-67566489D02*
X163820968Y-67597598D01*
X163820968Y-67597598D02*
X163824742Y-67650703D01*
X163824742Y-67650703D02*
X163806519Y-67694698D01*
X163806519Y-67694698D02*
X163757188Y-67751577D01*
X163757188Y-67751577D02*
X163383884Y-67906205D01*
X163383884Y-67906205D02*
X163669847Y-68024655D01*
X115227409Y-100607142D02*
X114727409Y-100607142D01*
X114727409Y-100607142D02*
X114727409Y-100488094D01*
X114727409Y-100488094D02*
X114751219Y-100416666D01*
X114751219Y-100416666D02*
X114798838Y-100369047D01*
X114798838Y-100369047D02*
X114846457Y-100345237D01*
X114846457Y-100345237D02*
X114941695Y-100321428D01*
X114941695Y-100321428D02*
X115013123Y-100321428D01*
X115013123Y-100321428D02*
X115108361Y-100345237D01*
X115108361Y-100345237D02*
X115155980Y-100369047D01*
X115155980Y-100369047D02*
X115203600Y-100416666D01*
X115203600Y-100416666D02*
X115227409Y-100488094D01*
X115227409Y-100488094D02*
X115227409Y-100607142D01*
X114775028Y-100130951D02*
X114751219Y-100107142D01*
X114751219Y-100107142D02*
X114727409Y-100059523D01*
X114727409Y-100059523D02*
X114727409Y-99940475D01*
X114727409Y-99940475D02*
X114751219Y-99892856D01*
X114751219Y-99892856D02*
X114775028Y-99869047D01*
X114775028Y-99869047D02*
X114822647Y-99845237D01*
X114822647Y-99845237D02*
X114870266Y-99845237D01*
X114870266Y-99845237D02*
X114941695Y-99869047D01*
X114941695Y-99869047D02*
X115227409Y-100154761D01*
X115227409Y-100154761D02*
X115227409Y-99845237D01*
X114894076Y-99416666D02*
X115227409Y-99416666D01*
X114703600Y-99535714D02*
X115060742Y-99654761D01*
X115060742Y-99654761D02*
X115060742Y-99345238D01*
X115331027Y-106277051D02*
X115821420Y-106179505D01*
X115821420Y-106179505D02*
X115844645Y-106296266D01*
X115844645Y-106296266D02*
X115835228Y-106370967D01*
X115835228Y-106370967D02*
X115797814Y-106426961D01*
X115797814Y-106426961D02*
X115755755Y-106459603D01*
X115755755Y-106459603D02*
X115666991Y-106501535D01*
X115666991Y-106501535D02*
X115596935Y-106515470D01*
X115596935Y-106515470D02*
X115498882Y-106510698D01*
X115498882Y-106510698D02*
X115447533Y-106496636D01*
X115447533Y-106496636D02*
X115391539Y-106459222D01*
X115391539Y-106459222D02*
X115354252Y-106393811D01*
X115354252Y-106393811D02*
X115331027Y-106277051D01*
X115867616Y-106655836D02*
X115895613Y-106674543D01*
X115895613Y-106674543D02*
X115928255Y-106716602D01*
X115928255Y-106716602D02*
X115951480Y-106833362D01*
X115951480Y-106833362D02*
X115937418Y-106884711D01*
X115937418Y-106884711D02*
X115918711Y-106912708D01*
X115918711Y-106912708D02*
X115876652Y-106945350D01*
X115876652Y-106945350D02*
X115829948Y-106954640D01*
X115829948Y-106954640D02*
X115755247Y-106945223D01*
X115755247Y-106945223D02*
X115419282Y-106720739D01*
X115419282Y-106720739D02*
X115479667Y-107024316D01*
X116002575Y-107090234D02*
X116062960Y-107393811D01*
X116062960Y-107393811D02*
X115843629Y-107267506D01*
X115843629Y-107267506D02*
X115857564Y-107337562D01*
X115857564Y-107337562D02*
X115843502Y-107388912D01*
X115843502Y-107388912D02*
X115824795Y-107416909D01*
X115824795Y-107416909D02*
X115782736Y-107449551D01*
X115782736Y-107449551D02*
X115665975Y-107472776D01*
X115665975Y-107472776D02*
X115614626Y-107458714D01*
X115614626Y-107458714D02*
X115586629Y-107440007D01*
X115586629Y-107440007D02*
X115553987Y-107397948D01*
X115553987Y-107397948D02*
X115526117Y-107257835D01*
X115526117Y-107257835D02*
X115540179Y-107206486D01*
X115540179Y-107206486D02*
X115558886Y-107178489D01*
X167087552Y-82053819D02*
X167441106Y-81700265D01*
X167441106Y-81700265D02*
X167525285Y-81784445D01*
X167525285Y-81784445D02*
X167558957Y-81851788D01*
X167558957Y-81851788D02*
X167558957Y-81919132D01*
X167558957Y-81919132D02*
X167542121Y-81969639D01*
X167542121Y-81969639D02*
X167491613Y-82053819D01*
X167491613Y-82053819D02*
X167441106Y-82104326D01*
X167441106Y-82104326D02*
X167356926Y-82154834D01*
X167356926Y-82154834D02*
X167306419Y-82171670D01*
X167306419Y-82171670D02*
X167239075Y-82171670D01*
X167239075Y-82171670D02*
X167171732Y-82137998D01*
X167171732Y-82137998D02*
X167087552Y-82053819D01*
X167760987Y-82020147D02*
X167979854Y-82239013D01*
X167979854Y-82239013D02*
X167727315Y-82255849D01*
X167727315Y-82255849D02*
X167777823Y-82306357D01*
X167777823Y-82306357D02*
X167794659Y-82356865D01*
X167794659Y-82356865D02*
X167794659Y-82390536D01*
X167794659Y-82390536D02*
X167777823Y-82441044D01*
X167777823Y-82441044D02*
X167693644Y-82525223D01*
X167693644Y-82525223D02*
X167643136Y-82542059D01*
X167643136Y-82542059D02*
X167609464Y-82542059D01*
X167609464Y-82542059D02*
X167558957Y-82525223D01*
X167558957Y-82525223D02*
X167457941Y-82424208D01*
X167457941Y-82424208D02*
X167441106Y-82373700D01*
X167441106Y-82373700D02*
X167441106Y-82340029D01*
X168165048Y-82659910D02*
X167929346Y-82895612D01*
X168215556Y-82441044D02*
X167878838Y-82609402D01*
X167878838Y-82609402D02*
X168097704Y-82828269D01*
X138803280Y-110338090D02*
X139156834Y-109984536D01*
X139156834Y-109984536D02*
X139241013Y-110068716D01*
X139241013Y-110068716D02*
X139274685Y-110136059D01*
X139274685Y-110136059D02*
X139274685Y-110203403D01*
X139274685Y-110203403D02*
X139257849Y-110253910D01*
X139257849Y-110253910D02*
X139207341Y-110338090D01*
X139207341Y-110338090D02*
X139156834Y-110388597D01*
X139156834Y-110388597D02*
X139072654Y-110439105D01*
X139072654Y-110439105D02*
X139022147Y-110455941D01*
X139022147Y-110455941D02*
X138954803Y-110455941D01*
X138954803Y-110455941D02*
X138887460Y-110422269D01*
X138887460Y-110422269D02*
X138803280Y-110338090D01*
X139678746Y-110506449D02*
X139510387Y-110338090D01*
X139510387Y-110338090D02*
X139325192Y-110489613D01*
X139325192Y-110489613D02*
X139358864Y-110489613D01*
X139358864Y-110489613D02*
X139409372Y-110506449D01*
X139409372Y-110506449D02*
X139493551Y-110590628D01*
X139493551Y-110590628D02*
X139510387Y-110641136D01*
X139510387Y-110641136D02*
X139510387Y-110674807D01*
X139510387Y-110674807D02*
X139493551Y-110725315D01*
X139493551Y-110725315D02*
X139409372Y-110809494D01*
X139409372Y-110809494D02*
X139358864Y-110826330D01*
X139358864Y-110826330D02*
X139325192Y-110826330D01*
X139325192Y-110826330D02*
X139274685Y-110809494D01*
X139274685Y-110809494D02*
X139190505Y-110725315D01*
X139190505Y-110725315D02*
X139173669Y-110674807D01*
X139173669Y-110674807D02*
X139173669Y-110641136D01*
X139813432Y-110641135D02*
X140032299Y-110860002D01*
X140032299Y-110860002D02*
X139779761Y-110876838D01*
X139779761Y-110876838D02*
X139830268Y-110927345D01*
X139830268Y-110927345D02*
X139847104Y-110977853D01*
X139847104Y-110977853D02*
X139847104Y-111011525D01*
X139847104Y-111011525D02*
X139830268Y-111062032D01*
X139830268Y-111062032D02*
X139746089Y-111146212D01*
X139746089Y-111146212D02*
X139695581Y-111163047D01*
X139695581Y-111163047D02*
X139661910Y-111163047D01*
X139661910Y-111163047D02*
X139611402Y-111146212D01*
X139611402Y-111146212D02*
X139510387Y-111045196D01*
X139510387Y-111045196D02*
X139493551Y-110994689D01*
X139493551Y-110994689D02*
X139493551Y-110961017D01*
X142620727Y-66014002D02*
X142523181Y-65523609D01*
X142523181Y-65523609D02*
X142639942Y-65500384D01*
X142639942Y-65500384D02*
X142714643Y-65509801D01*
X142714643Y-65509801D02*
X142770637Y-65547215D01*
X142770637Y-65547215D02*
X142803279Y-65589274D01*
X142803279Y-65589274D02*
X142845211Y-65678038D01*
X142845211Y-65678038D02*
X142859146Y-65748094D01*
X142859146Y-65748094D02*
X142854374Y-65846147D01*
X142854374Y-65846147D02*
X142840312Y-65897496D01*
X142840312Y-65897496D02*
X142802898Y-65953490D01*
X142802898Y-65953490D02*
X142737487Y-65990777D01*
X142737487Y-65990777D02*
X142620727Y-66014002D01*
X142966870Y-65435354D02*
X143270446Y-65374969D01*
X143270446Y-65374969D02*
X143144142Y-65594300D01*
X143144142Y-65594300D02*
X143214198Y-65580365D01*
X143214198Y-65580365D02*
X143265547Y-65594427D01*
X143265547Y-65594427D02*
X143293544Y-65613134D01*
X143293544Y-65613134D02*
X143326186Y-65655193D01*
X143326186Y-65655193D02*
X143349412Y-65771954D01*
X143349412Y-65771954D02*
X143335350Y-65823303D01*
X143335350Y-65823303D02*
X143316642Y-65851300D01*
X143316642Y-65851300D02*
X143274583Y-65883942D01*
X143274583Y-65883942D02*
X143134471Y-65911812D01*
X143134471Y-65911812D02*
X143083122Y-65897750D01*
X143083122Y-65897750D02*
X143055125Y-65879043D01*
X143835032Y-65772462D02*
X143554807Y-65828202D01*
X143694920Y-65800332D02*
X143597374Y-65309939D01*
X143597374Y-65309939D02*
X143564605Y-65389285D01*
X143564605Y-65389285D02*
X143527191Y-65445279D01*
X143527191Y-65445279D02*
X143485132Y-65477921D01*
X149392857Y-115227409D02*
X149392857Y-114727409D01*
X149392857Y-114727409D02*
X149511905Y-114727409D01*
X149511905Y-114727409D02*
X149583333Y-114751219D01*
X149583333Y-114751219D02*
X149630952Y-114798838D01*
X149630952Y-114798838D02*
X149654762Y-114846457D01*
X149654762Y-114846457D02*
X149678571Y-114941695D01*
X149678571Y-114941695D02*
X149678571Y-115013123D01*
X149678571Y-115013123D02*
X149654762Y-115108361D01*
X149654762Y-115108361D02*
X149630952Y-115155980D01*
X149630952Y-115155980D02*
X149583333Y-115203600D01*
X149583333Y-115203600D02*
X149511905Y-115227409D01*
X149511905Y-115227409D02*
X149392857Y-115227409D01*
X150130952Y-114727409D02*
X149892857Y-114727409D01*
X149892857Y-114727409D02*
X149869048Y-114965504D01*
X149869048Y-114965504D02*
X149892857Y-114941695D01*
X149892857Y-114941695D02*
X149940476Y-114917885D01*
X149940476Y-114917885D02*
X150059524Y-114917885D01*
X150059524Y-114917885D02*
X150107143Y-114941695D01*
X150107143Y-114941695D02*
X150130952Y-114965504D01*
X150130952Y-114965504D02*
X150154762Y-115013123D01*
X150154762Y-115013123D02*
X150154762Y-115132171D01*
X150154762Y-115132171D02*
X150130952Y-115179790D01*
X150130952Y-115179790D02*
X150107143Y-115203600D01*
X150107143Y-115203600D02*
X150059524Y-115227409D01*
X150059524Y-115227409D02*
X149940476Y-115227409D01*
X149940476Y-115227409D02*
X149892857Y-115203600D01*
X149892857Y-115203600D02*
X149869048Y-115179790D01*
X150345238Y-114775028D02*
X150369047Y-114751219D01*
X150369047Y-114751219D02*
X150416666Y-114727409D01*
X150416666Y-114727409D02*
X150535714Y-114727409D01*
X150535714Y-114727409D02*
X150583333Y-114751219D01*
X150583333Y-114751219D02*
X150607142Y-114775028D01*
X150607142Y-114775028D02*
X150630952Y-114822647D01*
X150630952Y-114822647D02*
X150630952Y-114870266D01*
X150630952Y-114870266D02*
X150607142Y-114941695D01*
X150607142Y-114941695D02*
X150321428Y-115227409D01*
X150321428Y-115227409D02*
X150630952Y-115227409D01*
X172654545Y-89959014D02*
X173116485Y-89767672D01*
X173116485Y-89767672D02*
X173162042Y-89877658D01*
X173162042Y-89877658D02*
X173167380Y-89952761D01*
X173167380Y-89952761D02*
X173141609Y-90014978D01*
X173141609Y-90014978D02*
X173106726Y-90055198D01*
X173106726Y-90055198D02*
X173027849Y-90113641D01*
X173027849Y-90113641D02*
X172961857Y-90140976D01*
X172961857Y-90140976D02*
X172864757Y-90155425D01*
X172864757Y-90155425D02*
X172811652Y-90151651D01*
X172811652Y-90151651D02*
X172749434Y-90125879D01*
X172749434Y-90125879D02*
X172700103Y-90069000D01*
X172700103Y-90069000D02*
X172654545Y-89959014D01*
X173289604Y-90185618D02*
X173408053Y-90471580D01*
X173408053Y-90471580D02*
X173168296Y-90390493D01*
X173168296Y-90390493D02*
X173195630Y-90456484D01*
X173195630Y-90456484D02*
X173191856Y-90509590D01*
X173191856Y-90509590D02*
X173178970Y-90540698D01*
X173178970Y-90540698D02*
X173144088Y-90580919D01*
X173144088Y-90580919D02*
X173034102Y-90626476D01*
X173034102Y-90626476D02*
X172980996Y-90622702D01*
X172980996Y-90622702D02*
X172949888Y-90609816D01*
X172949888Y-90609816D02*
X172909667Y-90574934D01*
X172909667Y-90574934D02*
X172854998Y-90442951D01*
X172854998Y-90442951D02*
X172858773Y-90389845D01*
X172858773Y-90389845D02*
X172871658Y-90358736D01*
X173581172Y-90889525D02*
X173490057Y-90669554D01*
X173490057Y-90669554D02*
X173260974Y-90738672D01*
X173260974Y-90738672D02*
X173292082Y-90751558D01*
X173292082Y-90751558D02*
X173332303Y-90786441D01*
X173332303Y-90786441D02*
X173377860Y-90896426D01*
X173377860Y-90896426D02*
X173374086Y-90949532D01*
X173374086Y-90949532D02*
X173361200Y-90980641D01*
X173361200Y-90980641D02*
X173326318Y-91020861D01*
X173326318Y-91020861D02*
X173216332Y-91066418D01*
X173216332Y-91066418D02*
X173163226Y-91062644D01*
X173163226Y-91062644D02*
X173132118Y-91049759D01*
X173132118Y-91049759D02*
X173091897Y-91014876D01*
X173091897Y-91014876D02*
X173046340Y-90904890D01*
X173046340Y-90904890D02*
X173050114Y-90851784D01*
X173050114Y-90851784D02*
X173063000Y-90820676D01*
X126460569Y-109093184D02*
X126922509Y-108901842D01*
X126922509Y-108901842D02*
X126968066Y-109011828D01*
X126968066Y-109011828D02*
X126973404Y-109086931D01*
X126973404Y-109086931D02*
X126947633Y-109149148D01*
X126947633Y-109149148D02*
X126912750Y-109189368D01*
X126912750Y-109189368D02*
X126833873Y-109247811D01*
X126833873Y-109247811D02*
X126767881Y-109275146D01*
X126767881Y-109275146D02*
X126670781Y-109289595D01*
X126670781Y-109289595D02*
X126617676Y-109285821D01*
X126617676Y-109285821D02*
X126555458Y-109260049D01*
X126555458Y-109260049D02*
X126506127Y-109203170D01*
X126506127Y-109203170D02*
X126460569Y-109093184D01*
X127041874Y-109625537D02*
X126733914Y-109753098D01*
X127172294Y-109442659D02*
X126796779Y-109469346D01*
X126796779Y-109469346D02*
X126915229Y-109755309D01*
X127277858Y-109759730D02*
X127396307Y-110045693D01*
X127396307Y-110045693D02*
X127156550Y-109964605D01*
X127156550Y-109964605D02*
X127183884Y-110030596D01*
X127183884Y-110030596D02*
X127180110Y-110083702D01*
X127180110Y-110083702D02*
X127167224Y-110114811D01*
X127167224Y-110114811D02*
X127132342Y-110155031D01*
X127132342Y-110155031D02*
X127022356Y-110200588D01*
X127022356Y-110200588D02*
X126969250Y-110196814D01*
X126969250Y-110196814D02*
X126938142Y-110183929D01*
X126938142Y-110183929D02*
X126897921Y-110149046D01*
X126897921Y-110149046D02*
X126843252Y-110017063D01*
X126843252Y-110017063D02*
X126847027Y-109963957D01*
X126847027Y-109963957D02*
X126859912Y-109932849D01*
X159093184Y-123539430D02*
X158901842Y-123077490D01*
X158901842Y-123077490D02*
X159011828Y-123031933D01*
X159011828Y-123031933D02*
X159086931Y-123026595D01*
X159086931Y-123026595D02*
X159149148Y-123052366D01*
X159149148Y-123052366D02*
X159189368Y-123087249D01*
X159189368Y-123087249D02*
X159247811Y-123166126D01*
X159247811Y-123166126D02*
X159275146Y-123232118D01*
X159275146Y-123232118D02*
X159289595Y-123329218D01*
X159289595Y-123329218D02*
X159285821Y-123382323D01*
X159285821Y-123382323D02*
X159260049Y-123444541D01*
X159260049Y-123444541D02*
X159203170Y-123493872D01*
X159203170Y-123493872D02*
X159093184Y-123539430D01*
X159319788Y-122904371D02*
X159605750Y-122785922D01*
X159605750Y-122785922D02*
X159524663Y-123025679D01*
X159524663Y-123025679D02*
X159590654Y-122998345D01*
X159590654Y-122998345D02*
X159643760Y-123002119D01*
X159643760Y-123002119D02*
X159674868Y-123015005D01*
X159674868Y-123015005D02*
X159715089Y-123049887D01*
X159715089Y-123049887D02*
X159760646Y-123159873D01*
X159760646Y-123159873D02*
X159756872Y-123212979D01*
X159756872Y-123212979D02*
X159743986Y-123244087D01*
X159743986Y-123244087D02*
X159709104Y-123284308D01*
X159709104Y-123284308D02*
X159577121Y-123338977D01*
X159577121Y-123338977D02*
X159524015Y-123335202D01*
X159524015Y-123335202D02*
X159492906Y-123322317D01*
X160017063Y-123156747D02*
X160105052Y-123120301D01*
X160105052Y-123120301D02*
X160139934Y-123080080D01*
X160139934Y-123080080D02*
X160152820Y-123048972D01*
X160152820Y-123048972D02*
X160169480Y-122964757D01*
X160169480Y-122964757D02*
X160155031Y-122867657D01*
X160155031Y-122867657D02*
X160082139Y-122691680D01*
X160082139Y-122691680D02*
X160041919Y-122656797D01*
X160041919Y-122656797D02*
X160010810Y-122643912D01*
X160010810Y-122643912D02*
X159957704Y-122640138D01*
X159957704Y-122640138D02*
X159869716Y-122676584D01*
X159869716Y-122676584D02*
X159834833Y-122716804D01*
X159834833Y-122716804D02*
X159821947Y-122747913D01*
X159821947Y-122747913D02*
X159818173Y-122801018D01*
X159818173Y-122801018D02*
X159863731Y-122911004D01*
X159863731Y-122911004D02*
X159903951Y-122945887D01*
X159903951Y-122945887D02*
X159935059Y-122958772D01*
X159935059Y-122958772D02*
X159988165Y-122962547D01*
X159988165Y-122962547D02*
X160076154Y-122926100D01*
X160076154Y-122926100D02*
X160111036Y-122885880D01*
X160111036Y-122885880D02*
X160123922Y-122854772D01*
X160123922Y-122854772D02*
X160127696Y-122801666D01*
X145227409Y-100607142D02*
X144727409Y-100607142D01*
X144727409Y-100607142D02*
X144727409Y-100488094D01*
X144727409Y-100488094D02*
X144751219Y-100416666D01*
X144751219Y-100416666D02*
X144798838Y-100369047D01*
X144798838Y-100369047D02*
X144846457Y-100345237D01*
X144846457Y-100345237D02*
X144941695Y-100321428D01*
X144941695Y-100321428D02*
X145013123Y-100321428D01*
X145013123Y-100321428D02*
X145108361Y-100345237D01*
X145108361Y-100345237D02*
X145155980Y-100369047D01*
X145155980Y-100369047D02*
X145203600Y-100416666D01*
X145203600Y-100416666D02*
X145227409Y-100488094D01*
X145227409Y-100488094D02*
X145227409Y-100607142D01*
X144727409Y-99869047D02*
X144727409Y-100107142D01*
X144727409Y-100107142D02*
X144965504Y-100130951D01*
X144965504Y-100130951D02*
X144941695Y-100107142D01*
X144941695Y-100107142D02*
X144917885Y-100059523D01*
X144917885Y-100059523D02*
X144917885Y-99940475D01*
X144917885Y-99940475D02*
X144941695Y-99892856D01*
X144941695Y-99892856D02*
X144965504Y-99869047D01*
X144965504Y-99869047D02*
X145013123Y-99845237D01*
X145013123Y-99845237D02*
X145132171Y-99845237D01*
X145132171Y-99845237D02*
X145179790Y-99869047D01*
X145179790Y-99869047D02*
X145203600Y-99892856D01*
X145203600Y-99892856D02*
X145227409Y-99940475D01*
X145227409Y-99940475D02*
X145227409Y-100059523D01*
X145227409Y-100059523D02*
X145203600Y-100107142D01*
X145203600Y-100107142D02*
X145179790Y-100130951D01*
X145227409Y-99607142D02*
X145227409Y-99511904D01*
X145227409Y-99511904D02*
X145203600Y-99464285D01*
X145203600Y-99464285D02*
X145179790Y-99440476D01*
X145179790Y-99440476D02*
X145108361Y-99392857D01*
X145108361Y-99392857D02*
X145013123Y-99369047D01*
X145013123Y-99369047D02*
X144822647Y-99369047D01*
X144822647Y-99369047D02*
X144775028Y-99392857D01*
X144775028Y-99392857D02*
X144751219Y-99416666D01*
X144751219Y-99416666D02*
X144727409Y-99464285D01*
X144727409Y-99464285D02*
X144727409Y-99559523D01*
X144727409Y-99559523D02*
X144751219Y-99607142D01*
X144751219Y-99607142D02*
X144775028Y-99630952D01*
X144775028Y-99630952D02*
X144822647Y-99654761D01*
X144822647Y-99654761D02*
X144941695Y-99654761D01*
X144941695Y-99654761D02*
X144989314Y-99630952D01*
X144989314Y-99630952D02*
X145013123Y-99607142D01*
X145013123Y-99607142D02*
X145036933Y-99559523D01*
X145036933Y-99559523D02*
X145036933Y-99464285D01*
X145036933Y-99464285D02*
X145013123Y-99416666D01*
X145013123Y-99416666D02*
X144989314Y-99392857D01*
X144989314Y-99392857D02*
X144941695Y-99369047D01*
X149392857Y-125227409D02*
X149392857Y-124727409D01*
X149392857Y-124727409D02*
X149511905Y-124727409D01*
X149511905Y-124727409D02*
X149583333Y-124751219D01*
X149583333Y-124751219D02*
X149630952Y-124798838D01*
X149630952Y-124798838D02*
X149654762Y-124846457D01*
X149654762Y-124846457D02*
X149678571Y-124941695D01*
X149678571Y-124941695D02*
X149678571Y-125013123D01*
X149678571Y-125013123D02*
X149654762Y-125108361D01*
X149654762Y-125108361D02*
X149630952Y-125155980D01*
X149630952Y-125155980D02*
X149583333Y-125203600D01*
X149583333Y-125203600D02*
X149511905Y-125227409D01*
X149511905Y-125227409D02*
X149392857Y-125227409D01*
X150107143Y-124894076D02*
X150107143Y-125227409D01*
X149988095Y-124703600D02*
X149869048Y-125060742D01*
X149869048Y-125060742D02*
X150178571Y-125060742D01*
X150464285Y-124727409D02*
X150511904Y-124727409D01*
X150511904Y-124727409D02*
X150559523Y-124751219D01*
X150559523Y-124751219D02*
X150583333Y-124775028D01*
X150583333Y-124775028D02*
X150607142Y-124822647D01*
X150607142Y-124822647D02*
X150630952Y-124917885D01*
X150630952Y-124917885D02*
X150630952Y-125036933D01*
X150630952Y-125036933D02*
X150607142Y-125132171D01*
X150607142Y-125132171D02*
X150583333Y-125179790D01*
X150583333Y-125179790D02*
X150559523Y-125203600D01*
X150559523Y-125203600D02*
X150511904Y-125227409D01*
X150511904Y-125227409D02*
X150464285Y-125227409D01*
X150464285Y-125227409D02*
X150416666Y-125203600D01*
X150416666Y-125203600D02*
X150392857Y-125179790D01*
X150392857Y-125179790D02*
X150369047Y-125132171D01*
X150369047Y-125132171D02*
X150345238Y-125036933D01*
X150345238Y-125036933D02*
X150345238Y-124917885D01*
X150345238Y-124917885D02*
X150369047Y-124822647D01*
X150369047Y-124822647D02*
X150392857Y-124775028D01*
X150392857Y-124775028D02*
X150416666Y-124751219D01*
X150416666Y-124751219D02*
X150464285Y-124727409D01*
X185227409Y-100369047D02*
X184727409Y-100369047D01*
X184727409Y-100369047D02*
X184727409Y-100249999D01*
X184727409Y-100249999D02*
X184751219Y-100178571D01*
X184751219Y-100178571D02*
X184798838Y-100130952D01*
X184798838Y-100130952D02*
X184846457Y-100107142D01*
X184846457Y-100107142D02*
X184941695Y-100083333D01*
X184941695Y-100083333D02*
X185013123Y-100083333D01*
X185013123Y-100083333D02*
X185108361Y-100107142D01*
X185108361Y-100107142D02*
X185155980Y-100130952D01*
X185155980Y-100130952D02*
X185203600Y-100178571D01*
X185203600Y-100178571D02*
X185227409Y-100249999D01*
X185227409Y-100249999D02*
X185227409Y-100369047D01*
X184941695Y-99797618D02*
X184917885Y-99845237D01*
X184917885Y-99845237D02*
X184894076Y-99869047D01*
X184894076Y-99869047D02*
X184846457Y-99892856D01*
X184846457Y-99892856D02*
X184822647Y-99892856D01*
X184822647Y-99892856D02*
X184775028Y-99869047D01*
X184775028Y-99869047D02*
X184751219Y-99845237D01*
X184751219Y-99845237D02*
X184727409Y-99797618D01*
X184727409Y-99797618D02*
X184727409Y-99702380D01*
X184727409Y-99702380D02*
X184751219Y-99654761D01*
X184751219Y-99654761D02*
X184775028Y-99630952D01*
X184775028Y-99630952D02*
X184822647Y-99607142D01*
X184822647Y-99607142D02*
X184846457Y-99607142D01*
X184846457Y-99607142D02*
X184894076Y-99630952D01*
X184894076Y-99630952D02*
X184917885Y-99654761D01*
X184917885Y-99654761D02*
X184941695Y-99702380D01*
X184941695Y-99702380D02*
X184941695Y-99797618D01*
X184941695Y-99797618D02*
X184965504Y-99845237D01*
X184965504Y-99845237D02*
X184989314Y-99869047D01*
X184989314Y-99869047D02*
X185036933Y-99892856D01*
X185036933Y-99892856D02*
X185132171Y-99892856D01*
X185132171Y-99892856D02*
X185179790Y-99869047D01*
X185179790Y-99869047D02*
X185203600Y-99845237D01*
X185203600Y-99845237D02*
X185227409Y-99797618D01*
X185227409Y-99797618D02*
X185227409Y-99702380D01*
X185227409Y-99702380D02*
X185203600Y-99654761D01*
X185203600Y-99654761D02*
X185179790Y-99630952D01*
X185179790Y-99630952D02*
X185132171Y-99607142D01*
X185132171Y-99607142D02*
X185036933Y-99607142D01*
X185036933Y-99607142D02*
X184989314Y-99630952D01*
X184989314Y-99630952D02*
X184965504Y-99654761D01*
X184965504Y-99654761D02*
X184941695Y-99702380D01*
X130176563Y-71424958D02*
X129898778Y-71009223D01*
X129898778Y-71009223D02*
X129997762Y-70943084D01*
X129997762Y-70943084D02*
X130070381Y-70923197D01*
X130070381Y-70923197D02*
X130136430Y-70936335D01*
X130136430Y-70936335D02*
X130182683Y-70962701D01*
X130182683Y-70962701D02*
X130255391Y-71028661D01*
X130255391Y-71028661D02*
X130295075Y-71088051D01*
X130295075Y-71088051D02*
X130328190Y-71180467D01*
X130328190Y-71180467D02*
X130334848Y-71233289D01*
X130334848Y-71233289D02*
X130321710Y-71299338D01*
X130321710Y-71299338D02*
X130275547Y-71358819D01*
X130275547Y-71358819D02*
X130176563Y-71424958D01*
X130321172Y-70784260D02*
X130327741Y-70751235D01*
X130327741Y-70751235D02*
X130354107Y-70704982D01*
X130354107Y-70704982D02*
X130453091Y-70638843D01*
X130453091Y-70638843D02*
X130505913Y-70632184D01*
X130505913Y-70632184D02*
X130538937Y-70638753D01*
X130538937Y-70638753D02*
X130585190Y-70665119D01*
X130585190Y-70665119D02*
X130611646Y-70704713D01*
X130611646Y-70704713D02*
X130631532Y-70777331D01*
X130631532Y-70777331D02*
X130552704Y-71173628D01*
X130552704Y-71173628D02*
X130810064Y-71001666D01*
X131008032Y-70869388D02*
X131087220Y-70816476D01*
X131087220Y-70816476D02*
X131113586Y-70770224D01*
X131113586Y-70770224D02*
X131120155Y-70737199D01*
X131120155Y-70737199D02*
X131120065Y-70651353D01*
X131120065Y-70651353D02*
X131086950Y-70558937D01*
X131086950Y-70558937D02*
X130981128Y-70400562D01*
X130981128Y-70400562D02*
X130934875Y-70374196D01*
X130934875Y-70374196D02*
X130901850Y-70367627D01*
X130901850Y-70367627D02*
X130849028Y-70374286D01*
X130849028Y-70374286D02*
X130769841Y-70427197D01*
X130769841Y-70427197D02*
X130743475Y-70473450D01*
X130743475Y-70473450D02*
X130736906Y-70506475D01*
X130736906Y-70506475D02*
X130743565Y-70559296D01*
X130743565Y-70559296D02*
X130809704Y-70658281D01*
X130809704Y-70658281D02*
X130855957Y-70684647D01*
X130855957Y-70684647D02*
X130888981Y-70691216D01*
X130888981Y-70691216D02*
X130941803Y-70684557D01*
X130941803Y-70684557D02*
X131020991Y-70631646D01*
X131020991Y-70631646D02*
X131047357Y-70585393D01*
X131047357Y-70585393D02*
X131053926Y-70552368D01*
X131053926Y-70552368D02*
X131047267Y-70499547D01*
D11*
%TO.C,D48*%
X148900000Y-76000000D02*
X148900000Y-74000000D01*
X148900000Y-76000000D02*
X150550000Y-76000000D01*
X150550000Y-76000000D02*
X151100000Y-75450000D01*
X151100000Y-74000000D02*
X148900000Y-74000000D01*
X151100000Y-75450000D02*
X151100000Y-74000000D01*
X150500000Y-74600000D02*
X150050000Y-74600000D01*
X150050000Y-74000000D01*
X150500000Y-74000000D01*
X150500000Y-74600000D01*
G36*
X150500000Y-74600000D02*
G01*
X150050000Y-74600000D01*
X150050000Y-74000000D01*
X150500000Y-74000000D01*
X150500000Y-74600000D01*
G37*
X150500000Y-75450001D02*
X150500000Y-76000000D01*
X150050001Y-76000000D01*
X150050000Y-75450000D01*
X150500000Y-75450001D01*
G36*
X150500000Y-75450001D02*
G01*
X150500000Y-76000000D01*
X150050001Y-76000000D01*
X150050000Y-75450000D01*
X150500000Y-75450001D01*
G37*
%TO.C,D9*%
X183239400Y-107172503D02*
X183671532Y-107819234D01*
X183561299Y-105554207D02*
X183239400Y-107172503D01*
X183561299Y-105554207D02*
X185522870Y-105944388D01*
X183671532Y-107819234D02*
X185093671Y-108102115D01*
X185093671Y-108102115D02*
X185522870Y-105944388D01*
X183876377Y-106789410D02*
X183788586Y-107230763D01*
X183249155Y-107123463D01*
X183336945Y-106682110D01*
X183876377Y-106789410D01*
G36*
X183876377Y-106789410D02*
G01*
X183788586Y-107230763D01*
X183249155Y-107123463D01*
X183336945Y-106682110D01*
X183876377Y-106789410D01*
G37*
X185298516Y-107072291D02*
X185210725Y-107513644D01*
X184622254Y-107396590D01*
X184710045Y-106955236D01*
X185298516Y-107072291D01*
G36*
X185298516Y-107072291D02*
G01*
X185210725Y-107513644D01*
X184622254Y-107396590D01*
X184710045Y-106955236D01*
X185298516Y-107072291D01*
G37*
%TO.C,D47*%
X139799331Y-78247844D02*
X139033964Y-76400084D01*
X139799331Y-78247844D02*
X141323732Y-77616416D01*
X141066499Y-75558180D02*
X139033964Y-76400084D01*
X141323732Y-77616416D02*
X141621390Y-76897806D01*
X141621390Y-76897806D02*
X141066499Y-75558180D01*
X140741780Y-76342119D02*
X140326035Y-76514326D01*
X140096426Y-75959999D01*
X140512171Y-75787791D01*
X140741780Y-76342119D01*
G36*
X140741780Y-76342119D02*
G01*
X140326035Y-76514326D01*
X140096426Y-75959999D01*
X140512171Y-75787791D01*
X140741780Y-76342119D01*
G37*
X141277538Y-77635550D02*
X140861793Y-77807757D01*
X140651316Y-77299624D01*
X141067063Y-77127417D01*
X141277538Y-77635550D01*
G36*
X141277538Y-77635550D02*
G01*
X140861793Y-77807757D01*
X140651316Y-77299624D01*
X141067063Y-77127417D01*
X141277538Y-77635550D01*
G37*
%TO.C,D50*%
X164000000Y-98900000D02*
X164000000Y-100550000D01*
X164000000Y-98900000D02*
X166000000Y-98900000D01*
X164000000Y-100550000D02*
X164549999Y-101100000D01*
X164549999Y-101100000D02*
X166000000Y-101100000D01*
X166000000Y-101100000D02*
X166000000Y-98900000D01*
X164549999Y-100500000D02*
X164000000Y-100500000D01*
X164000000Y-100050001D01*
X164550000Y-100050000D01*
X164549999Y-100500000D01*
G36*
X164549999Y-100500000D02*
G01*
X164000000Y-100500000D01*
X164000000Y-100050001D01*
X164550000Y-100050000D01*
X164549999Y-100500000D01*
G37*
X166000000Y-100500000D02*
X165400000Y-100500000D01*
X165400000Y-100050000D01*
X166000000Y-100050000D01*
X166000000Y-100500000D01*
G36*
X166000000Y-100500000D02*
G01*
X165400000Y-100500000D01*
X165400000Y-100050000D01*
X166000000Y-100050000D01*
X166000000Y-100500000D01*
G37*
%TO.C,D41*%
X139033963Y-123599916D02*
X141066498Y-124441819D01*
X139588854Y-122260290D02*
X139033963Y-123599916D01*
X140307464Y-121962633D02*
X139588854Y-122260290D01*
X141831865Y-122594060D02*
X140307464Y-121962633D01*
X141831865Y-122594060D02*
X141066498Y-124441819D01*
X140233647Y-123447406D02*
X140004037Y-124001733D01*
X139588291Y-123829526D01*
X139817901Y-123275198D01*
X140233647Y-123447406D01*
G36*
X140233647Y-123447406D02*
G01*
X140004037Y-124001733D01*
X139588291Y-123829526D01*
X139817901Y-123275198D01*
X140233647Y-123447406D01*
G37*
X140769403Y-122153974D02*
X140558928Y-122662108D01*
X140143182Y-122489900D01*
X140353658Y-121981767D01*
X140769403Y-122153974D01*
G36*
X140769403Y-122153974D02*
G01*
X140558928Y-122662108D01*
X140143182Y-122489900D01*
X140353658Y-121981767D01*
X140769403Y-122153974D01*
G37*
%TO.C,D54*%
X134000000Y-98900000D02*
X134000000Y-101100000D01*
X135450001Y-98900000D02*
X134000000Y-98900000D01*
X136000000Y-99450000D02*
X135450001Y-98900000D01*
X136000000Y-101100000D02*
X134000000Y-101100000D01*
X136000000Y-101100000D02*
X136000000Y-99450000D01*
X134600000Y-99950000D02*
X134000000Y-99950000D01*
X134000000Y-99500000D01*
X134600000Y-99500000D01*
X134600000Y-99950000D01*
G36*
X134600000Y-99950000D02*
G01*
X134000000Y-99950000D01*
X134000000Y-99500000D01*
X134600000Y-99500000D01*
X134600000Y-99950000D01*
G37*
X136000000Y-99949999D02*
X135450000Y-99950000D01*
X135450001Y-99500000D01*
X136000000Y-99500000D01*
X136000000Y-99949999D01*
G36*
X136000000Y-99949999D02*
G01*
X135450000Y-99950000D01*
X135450001Y-99500000D01*
X136000000Y-99500000D01*
X136000000Y-99949999D01*
G37*
%TO.C,D57*%
X154000000Y-98900000D02*
X154000000Y-100550000D01*
X154000000Y-98900000D02*
X156000000Y-98900000D01*
X154000000Y-100550000D02*
X154549999Y-101100000D01*
X154549999Y-101100000D02*
X156000000Y-101100000D01*
X156000000Y-101100000D02*
X156000000Y-98900000D01*
X154549999Y-100500000D02*
X154000000Y-100500000D01*
X154000000Y-100050001D01*
X154550000Y-100050000D01*
X154549999Y-100500000D01*
G36*
X154549999Y-100500000D02*
G01*
X154000000Y-100500000D01*
X154000000Y-100050001D01*
X154550000Y-100050000D01*
X154549999Y-100500000D01*
G37*
X156000000Y-100500000D02*
X155400000Y-100500000D01*
X155400000Y-100050000D01*
X156000000Y-100050000D01*
X156000000Y-100500000D01*
G36*
X156000000Y-100500000D02*
G01*
X155400000Y-100500000D01*
X155400000Y-100050000D01*
X156000000Y-100050000D01*
X156000000Y-100500000D01*
G37*
%TO.C,D33*%
X158168135Y-77405940D02*
X158933502Y-75558181D01*
X158168135Y-77405940D02*
X159692536Y-78037367D01*
X159692536Y-78037367D02*
X160411146Y-77739710D01*
X160411146Y-77739710D02*
X160966037Y-76400084D01*
X160966037Y-76400084D02*
X158933502Y-75558181D01*
X159856818Y-77510100D02*
X159646342Y-78018233D01*
X159230597Y-77846026D01*
X159441072Y-77337892D01*
X159856818Y-77510100D01*
G36*
X159856818Y-77510100D02*
G01*
X159646342Y-78018233D01*
X159230597Y-77846026D01*
X159441072Y-77337892D01*
X159856818Y-77510100D01*
G37*
X160411709Y-76170474D02*
X160182099Y-76724802D01*
X159766353Y-76552594D01*
X159995963Y-75998267D01*
X160411709Y-76170474D01*
G36*
X160411709Y-76170474D02*
G01*
X160182099Y-76724802D01*
X159766353Y-76552594D01*
X159995963Y-75998267D01*
X160411709Y-76170474D01*
G37*
%TO.C,D37*%
X171962633Y-109692536D02*
X172260290Y-110411146D01*
X172260290Y-110411146D02*
X173599916Y-110966037D01*
X172594060Y-108168135D02*
X171962633Y-109692536D01*
X172594060Y-108168135D02*
X174441819Y-108933502D01*
X173599916Y-110966037D02*
X174441819Y-108933502D01*
X172662108Y-109441072D02*
X172489900Y-109856818D01*
X171981767Y-109646342D01*
X172153974Y-109230597D01*
X172662108Y-109441072D01*
G36*
X172662108Y-109441072D02*
G01*
X172489900Y-109856818D01*
X171981767Y-109646342D01*
X172153974Y-109230597D01*
X172662108Y-109441072D01*
G37*
X174001733Y-109995963D02*
X173829526Y-110411709D01*
X173275198Y-110182099D01*
X173447406Y-109766353D01*
X174001733Y-109995963D01*
G36*
X174001733Y-109995963D02*
G01*
X173829526Y-110411709D01*
X173275198Y-110182099D01*
X173447406Y-109766353D01*
X174001733Y-109995963D01*
G37*
%TO.C,D5*%
X177658839Y-80195996D02*
X178575530Y-81567921D01*
X177658839Y-80195996D02*
X179321779Y-79084855D01*
X178575530Y-81567921D02*
X179338402Y-81719665D01*
X179338402Y-81719665D02*
X180544033Y-80914088D01*
X180544033Y-80914088D02*
X179321779Y-79084855D01*
X179005059Y-81220784D02*
X178547752Y-81526347D01*
X178297745Y-81152186D01*
X178755053Y-80846622D01*
X179005059Y-81220784D01*
G36*
X179005059Y-81220784D02*
G01*
X178547752Y-81526347D01*
X178297745Y-81152186D01*
X178755053Y-80846622D01*
X179005059Y-81220784D01*
G37*
X180210691Y-80415207D02*
X179711809Y-80748549D01*
X179461802Y-80374387D01*
X179960685Y-80041045D01*
X180210691Y-80415207D01*
G36*
X180210691Y-80415207D02*
G01*
X179711809Y-80748549D01*
X179461802Y-80374387D01*
X179960685Y-80041045D01*
X180210691Y-80415207D01*
G37*
%TO.C,D60*%
X148900000Y-96000000D02*
X148900000Y-94000000D01*
X148900000Y-96000000D02*
X150550000Y-96000000D01*
X150550000Y-96000000D02*
X151100000Y-95450001D01*
X151100000Y-94000000D02*
X148900000Y-94000000D01*
X151100000Y-95450001D02*
X151100000Y-94000000D01*
X150500000Y-94600000D02*
X150050000Y-94600000D01*
X150050000Y-94000000D01*
X150500000Y-94000000D01*
X150500000Y-94600000D01*
G36*
X150500000Y-94600000D02*
G01*
X150050000Y-94600000D01*
X150050000Y-94000000D01*
X150500000Y-94000000D01*
X150500000Y-94600000D01*
G37*
X150500000Y-95450001D02*
X150500000Y-96000000D01*
X150050001Y-96000000D01*
X150050000Y-95450000D01*
X150500000Y-95450001D01*
G36*
X150500000Y-95450001D02*
G01*
X150500000Y-96000000D01*
X150050001Y-96000000D01*
X150050000Y-95450000D01*
X150500000Y-95450001D01*
G37*
%TO.C,D19*%
X129084855Y-129321779D02*
X130914088Y-130544034D01*
X129890432Y-128116148D02*
X129084855Y-129321779D01*
X130653304Y-127964404D02*
X129890432Y-128116148D01*
X132025229Y-128881095D02*
X130653304Y-127964404D01*
X132025229Y-128881095D02*
X130914088Y-130544034D01*
X130291241Y-129406247D02*
X129957898Y-129905128D01*
X129583737Y-129655121D01*
X129917079Y-129156240D01*
X130291241Y-129406247D01*
G36*
X130291241Y-129406247D02*
G01*
X129957898Y-129905128D01*
X129583737Y-129655121D01*
X129917079Y-129156240D01*
X130291241Y-129406247D01*
G37*
X131069039Y-128242189D02*
X130763475Y-128699497D01*
X130389314Y-128449490D01*
X130694878Y-127992183D01*
X131069039Y-128242189D01*
G36*
X131069039Y-128242189D02*
G01*
X130763475Y-128699497D01*
X130389314Y-128449490D01*
X130694878Y-127992183D01*
X131069039Y-128242189D01*
G37*
%TO.C,D21*%
X119455967Y-119085912D02*
X120678221Y-120915145D01*
X120661598Y-118280335D02*
X119455967Y-119085912D01*
X121424470Y-118432079D02*
X120661598Y-118280335D01*
X122341161Y-119804004D02*
X120678221Y-120915145D01*
X122341161Y-119804004D02*
X121424470Y-118432079D01*
X120538198Y-119625613D02*
X120039315Y-119958955D01*
X119789309Y-119584793D01*
X120288191Y-119251451D01*
X120538198Y-119625613D01*
G36*
X120538198Y-119625613D02*
G01*
X120039315Y-119958955D01*
X119789309Y-119584793D01*
X120288191Y-119251451D01*
X120538198Y-119625613D01*
G37*
X121702255Y-118847814D02*
X121244947Y-119153378D01*
X120994941Y-118779216D01*
X121452248Y-118473653D01*
X121702255Y-118847814D01*
G36*
X121702255Y-118847814D02*
G01*
X121244947Y-119153378D01*
X120994941Y-118779216D01*
X121452248Y-118473653D01*
X121702255Y-118847814D01*
G37*
%TO.C,D44*%
X124000000Y-98900000D02*
X124000000Y-101100000D01*
X125450000Y-98900000D02*
X124000000Y-98900000D01*
X126000000Y-99450000D02*
X125450000Y-98900000D01*
X126000000Y-101100000D02*
X124000000Y-101100000D01*
X126000000Y-101100000D02*
X126000000Y-99450000D01*
X124600000Y-99950000D02*
X124000000Y-99950000D01*
X124000000Y-99500000D01*
X124600000Y-99500000D01*
X124600000Y-99950000D01*
G36*
X124600000Y-99950000D02*
G01*
X124000000Y-99950000D01*
X124000000Y-99500000D01*
X124600000Y-99500000D01*
X124600000Y-99950000D01*
G37*
X126000000Y-99949999D02*
X125450000Y-99950000D01*
X125450001Y-99500000D01*
X126000000Y-99500000D01*
X126000000Y-99949999D01*
G36*
X126000000Y-99949999D02*
G01*
X125450000Y-99950000D01*
X125450001Y-99500000D01*
X126000000Y-99500000D01*
X126000000Y-99949999D01*
G37*
%TO.C,D11*%
X177964404Y-119346696D02*
X178116148Y-120109568D01*
X178116148Y-120109568D02*
X179321779Y-120915145D01*
X178881095Y-117974771D02*
X177964404Y-119346696D01*
X178881095Y-117974771D02*
X180544034Y-119085912D01*
X179321779Y-120915145D02*
X180544034Y-119085912D01*
X178699497Y-119236525D02*
X178449490Y-119610686D01*
X177992183Y-119305122D01*
X178242189Y-118930961D01*
X178699497Y-119236525D01*
G36*
X178699497Y-119236525D02*
G01*
X178449490Y-119610686D01*
X177992183Y-119305122D01*
X178242189Y-118930961D01*
X178699497Y-119236525D01*
G37*
X179905128Y-120042102D02*
X179655121Y-120416263D01*
X179156240Y-120082921D01*
X179406247Y-119708759D01*
X179905128Y-120042102D01*
G36*
X179905128Y-120042102D02*
G01*
X179655121Y-120416263D01*
X179156240Y-120082921D01*
X179406247Y-119708759D01*
X179905128Y-120042102D01*
G37*
%TO.C,D42*%
X130837406Y-117606959D02*
X132393041Y-119162593D01*
X131862711Y-116581653D02*
X130837406Y-117606959D01*
X132640528Y-116581653D02*
X131862711Y-116581653D01*
X133807254Y-117748379D02*
X132393041Y-119162593D01*
X133807254Y-117748379D02*
X132640528Y-116581653D01*
X132004132Y-117925156D02*
X131579868Y-118349420D01*
X131261671Y-118031223D01*
X131685934Y-117606958D01*
X132004132Y-117925156D01*
G36*
X132004132Y-117925156D02*
G01*
X131579868Y-118349420D01*
X131261671Y-118031223D01*
X131685934Y-117606958D01*
X132004132Y-117925156D01*
G37*
X132994081Y-116935206D02*
X132605173Y-117324116D01*
X132286975Y-117005917D01*
X132675884Y-116617010D01*
X132994081Y-116935206D01*
G36*
X132994081Y-116935206D02*
G01*
X132605173Y-117324116D01*
X132286975Y-117005917D01*
X132675884Y-116617010D01*
X132994081Y-116935206D01*
G37*
%TO.C,D45*%
X126400084Y-89033963D02*
X125558181Y-91066498D01*
X127405940Y-91831865D02*
X125558181Y-91066498D01*
X127405940Y-91831865D02*
X128037367Y-90307464D01*
X127739710Y-89588854D02*
X126400084Y-89033963D01*
X128037367Y-90307464D02*
X127739710Y-89588854D01*
X126724802Y-89817901D02*
X126552594Y-90233647D01*
X125998267Y-90004037D01*
X126170474Y-89588291D01*
X126724802Y-89817901D01*
G36*
X126724802Y-89817901D02*
G01*
X126552594Y-90233647D01*
X125998267Y-90004037D01*
X126170474Y-89588291D01*
X126724802Y-89817901D01*
G37*
X128018233Y-90353658D02*
X127846026Y-90769403D01*
X127337892Y-90558928D01*
X127510100Y-90143182D01*
X128018233Y-90353658D01*
G36*
X128018233Y-90353658D02*
G01*
X127846026Y-90769403D01*
X127337892Y-90558928D01*
X127510100Y-90143182D01*
X128018233Y-90353658D01*
G37*
%TO.C,D28*%
X125180551Y-76736187D02*
X123766338Y-75321973D01*
X125180551Y-76736187D02*
X126347278Y-75569461D01*
X125321973Y-73766339D02*
X123766338Y-75321973D01*
X126347278Y-74791644D02*
X125321973Y-73766339D01*
X126347278Y-75569461D02*
X126347278Y-74791644D01*
X125321973Y-74614867D02*
X125003775Y-74933065D01*
X124579511Y-74508800D01*
X124897709Y-74190603D01*
X125321973Y-74614867D01*
G36*
X125321973Y-74614867D02*
G01*
X125003775Y-74933065D01*
X124579511Y-74508800D01*
X124897709Y-74190603D01*
X125321973Y-74614867D01*
G37*
X126311922Y-75604816D02*
X125993724Y-75923014D01*
X125604816Y-75534105D01*
X125923014Y-75215908D01*
X126311922Y-75604816D01*
G36*
X126311922Y-75604816D02*
G01*
X125993724Y-75923014D01*
X125604816Y-75534105D01*
X125923014Y-75215908D01*
X126311922Y-75604816D01*
G37*
%TO.C,D12*%
X173652722Y-124430539D02*
X173652722Y-125208356D01*
X173652722Y-125208356D02*
X174678027Y-126233661D01*
X174678027Y-126233661D02*
X176233662Y-124678027D01*
X174819449Y-123263813D02*
X173652722Y-124430539D01*
X174819449Y-123263813D02*
X176233662Y-124678027D01*
X174395184Y-124465895D02*
X174076986Y-124784092D01*
X173688078Y-124395184D01*
X174006276Y-124076986D01*
X174395184Y-124465895D01*
G36*
X174395184Y-124465895D02*
G01*
X174076986Y-124784092D01*
X173688078Y-124395184D01*
X174006276Y-124076986D01*
X174395184Y-124465895D01*
G37*
X175420489Y-125491200D02*
X175102291Y-125809397D01*
X174678027Y-125385133D01*
X174996225Y-125066935D01*
X175420489Y-125491200D01*
G36*
X175420489Y-125491200D02*
G01*
X175102291Y-125809397D01*
X174678027Y-125385133D01*
X174996225Y-125066935D01*
X175420489Y-125491200D01*
G37*
%TO.C,D32*%
X148900000Y-66000000D02*
X148900000Y-64000000D01*
X148900000Y-66000000D02*
X150550000Y-66000000D01*
X150550000Y-66000000D02*
X151100000Y-65450000D01*
X151100000Y-64000000D02*
X148900000Y-64000000D01*
X151100000Y-65450000D02*
X151100000Y-64000000D01*
X150500000Y-64600000D02*
X150050000Y-64600000D01*
X150050000Y-64000000D01*
X150500000Y-64000000D01*
X150500000Y-64600000D01*
G36*
X150500000Y-64600000D02*
G01*
X150050000Y-64600000D01*
X150050000Y-64000000D01*
X150500000Y-64000000D01*
X150500000Y-64600000D01*
G37*
X150500000Y-66000000D02*
X150050000Y-66000000D01*
X150050000Y-65450000D01*
X150500000Y-65450000D01*
X150500000Y-66000000D01*
G36*
X150500000Y-66000000D02*
G01*
X150050000Y-66000000D01*
X150050000Y-65450000D01*
X150500000Y-65450000D01*
X150500000Y-66000000D01*
G37*
%TO.C,D58*%
X148900000Y-104549999D02*
X148900000Y-106000000D01*
X148900000Y-106000000D02*
X151100000Y-106000000D01*
X149450000Y-104000000D02*
X148900000Y-104549999D01*
X151100000Y-104000000D02*
X149450000Y-104000000D01*
X151100000Y-104000000D02*
X151100000Y-106000000D01*
X149950000Y-104550000D02*
X149500000Y-104549999D01*
X149500000Y-104000000D01*
X149949999Y-104000000D01*
X149950000Y-104550000D01*
G36*
X149950000Y-104550000D02*
G01*
X149500000Y-104549999D01*
X149500000Y-104000000D01*
X149949999Y-104000000D01*
X149950000Y-104550000D01*
G37*
X149950000Y-106000000D02*
X149500000Y-106000000D01*
X149500000Y-105400000D01*
X149950000Y-105400000D01*
X149950000Y-106000000D01*
G36*
X149950000Y-106000000D02*
G01*
X149500000Y-106000000D01*
X149500000Y-105400000D01*
X149950000Y-105400000D01*
X149950000Y-106000000D01*
G37*
%TO.C,D1*%
X155554207Y-66438701D02*
X155944388Y-64477130D01*
X155554207Y-66438701D02*
X157172503Y-66760600D01*
X157172503Y-66760600D02*
X157819234Y-66328468D01*
X157819234Y-66328468D02*
X158102115Y-64906329D01*
X158102115Y-64906329D02*
X155944388Y-64477130D01*
X157230763Y-66211414D02*
X157123463Y-66750845D01*
X156682110Y-66663055D01*
X156789410Y-66123623D01*
X157230763Y-66211414D01*
G36*
X157230763Y-66211414D02*
G01*
X157123463Y-66750845D01*
X156682110Y-66663055D01*
X156789410Y-66123623D01*
X157230763Y-66211414D01*
G37*
X157513644Y-64789275D02*
X157396590Y-65377746D01*
X156955236Y-65289955D01*
X157072291Y-64701484D01*
X157513644Y-64789275D01*
G36*
X157513644Y-64789275D02*
G01*
X157396590Y-65377746D01*
X156955236Y-65289955D01*
X157072291Y-64701484D01*
X157513644Y-64789275D01*
G37*
%TO.C,D46*%
X132251621Y-83807254D02*
X130837407Y-82393041D01*
X132251621Y-83807254D02*
X133418347Y-82640528D01*
X132393041Y-80837406D02*
X130837407Y-82393041D01*
X133418347Y-81862711D02*
X132393041Y-80837406D01*
X133418347Y-82640528D02*
X133418347Y-81862711D01*
X132393042Y-81685934D02*
X132074844Y-82004132D01*
X131650580Y-81579868D01*
X131968777Y-81261671D01*
X132393042Y-81685934D01*
G36*
X132393042Y-81685934D02*
G01*
X132074844Y-82004132D01*
X131650580Y-81579868D01*
X131968777Y-81261671D01*
X132393042Y-81685934D01*
G37*
X133382990Y-82675884D02*
X133064794Y-82994081D01*
X132675884Y-82605173D01*
X132994083Y-82286975D01*
X133382990Y-82675884D01*
G36*
X133382990Y-82675884D02*
G01*
X133064794Y-82994081D01*
X132675884Y-82605173D01*
X132994083Y-82286975D01*
X133382990Y-82675884D01*
G37*
%TO.C,D14*%
X162205445Y-132340990D02*
X162760336Y-133680615D01*
X162503102Y-131622381D02*
X162205445Y-132340990D01*
X162760336Y-133680615D02*
X164792871Y-132838712D01*
X164027504Y-130990953D02*
X162503102Y-131622381D01*
X164027504Y-130990953D02*
X164792871Y-132838712D01*
X163175518Y-131939173D02*
X162759772Y-132111380D01*
X162549297Y-131603246D01*
X162965042Y-131431039D01*
X163175518Y-131939173D01*
G36*
X163175518Y-131939173D02*
G01*
X162759772Y-132111380D01*
X162549297Y-131603246D01*
X162965042Y-131431039D01*
X163175518Y-131939173D01*
G37*
X163730409Y-133278798D02*
X163314664Y-133451005D01*
X163085053Y-132896678D01*
X163500800Y-132724470D01*
X163730409Y-133278798D01*
G36*
X163730409Y-133278798D02*
G01*
X163314664Y-133451005D01*
X163085053Y-132896678D01*
X163500800Y-132724470D01*
X163730409Y-133278798D01*
G37*
%TO.C,D51*%
X159510586Y-110288404D02*
X159510586Y-111066221D01*
X159510586Y-111066221D02*
X160535891Y-112091526D01*
X160535891Y-112091526D02*
X162091526Y-110535891D01*
X160677313Y-109121678D02*
X159510586Y-110288404D01*
X160677313Y-109121678D02*
X162091526Y-110535891D01*
X160253049Y-110323759D02*
X159934850Y-110641957D01*
X159545942Y-110253049D01*
X159864139Y-109934851D01*
X160253049Y-110323759D01*
G36*
X160253049Y-110323759D02*
G01*
X159934850Y-110641957D01*
X159545942Y-110253049D01*
X159864139Y-109934851D01*
X160253049Y-110323759D01*
G37*
X161278353Y-111349064D02*
X160960155Y-111667262D01*
X160535891Y-111242998D01*
X160854089Y-110924800D01*
X161278353Y-111349064D01*
G36*
X161278353Y-111349064D02*
G01*
X160960155Y-111667262D01*
X160535891Y-111242998D01*
X160854089Y-110924800D01*
X161278353Y-111349064D01*
G37*
%TO.C,D17*%
X141897885Y-135093671D02*
X144055612Y-135522870D01*
X142180766Y-133671532D02*
X141897885Y-135093671D01*
X142827497Y-133239400D02*
X142180766Y-133671532D01*
X144445793Y-133561299D02*
X142827497Y-133239400D01*
X144445793Y-133561299D02*
X144055612Y-135522870D01*
X143044764Y-134710045D02*
X142927709Y-135298516D01*
X142486356Y-135210725D01*
X142603410Y-134622254D01*
X143044764Y-134710045D01*
G36*
X143044764Y-134710045D02*
G01*
X142927709Y-135298516D01*
X142486356Y-135210725D01*
X142603410Y-134622254D01*
X143044764Y-134710045D01*
G37*
X143317890Y-133336945D02*
X143210590Y-133876377D01*
X142769237Y-133788586D01*
X142876537Y-133249155D01*
X143317890Y-133336945D01*
G36*
X143317890Y-133336945D02*
G01*
X143210590Y-133876377D01*
X142769237Y-133788586D01*
X142876537Y-133249155D01*
X143317890Y-133336945D01*
G37*
%TO.C,D6*%
X180990953Y-85972496D02*
X181622381Y-87496898D01*
X180990953Y-85972496D02*
X182838712Y-85207129D01*
X181622381Y-87496898D02*
X182340990Y-87794555D01*
X182340990Y-87794555D02*
X183680615Y-87239664D01*
X183680615Y-87239664D02*
X182838712Y-85207129D01*
X182111380Y-87240228D02*
X181603246Y-87450703D01*
X181431039Y-87034958D01*
X181939173Y-86824482D01*
X182111380Y-87240228D01*
G36*
X182111380Y-87240228D02*
G01*
X181603246Y-87450703D01*
X181431039Y-87034958D01*
X181939173Y-86824482D01*
X182111380Y-87240228D01*
G37*
X183451005Y-86685336D02*
X182896678Y-86914947D01*
X182724470Y-86499200D01*
X183278798Y-86269591D01*
X183451005Y-86685336D01*
G36*
X183451005Y-86685336D02*
G01*
X182896678Y-86914947D01*
X182724470Y-86499200D01*
X183278798Y-86269591D01*
X183451005Y-86685336D01*
G37*
%TO.C,D3*%
X167974771Y-71118905D02*
X169085912Y-69455966D01*
X167974771Y-71118905D02*
X169346696Y-72035596D01*
X169346696Y-72035596D02*
X170109568Y-71883852D01*
X170109568Y-71883852D02*
X170915145Y-70678221D01*
X170915145Y-70678221D02*
X169085912Y-69455966D01*
X169610686Y-71550510D02*
X169305122Y-72007817D01*
X168930961Y-71757811D01*
X169236525Y-71300503D01*
X169610686Y-71550510D01*
G36*
X169610686Y-71550510D02*
G01*
X169305122Y-72007817D01*
X168930961Y-71757811D01*
X169236525Y-71300503D01*
X169610686Y-71550510D01*
G37*
X170416263Y-70344879D02*
X170082921Y-70843760D01*
X169708759Y-70593753D01*
X170042102Y-70094872D01*
X170416263Y-70344879D01*
G36*
X170416263Y-70344879D02*
G01*
X170082921Y-70843760D01*
X169708759Y-70593753D01*
X170042102Y-70094872D01*
X170416263Y-70344879D01*
G37*
%TO.C,D56*%
X148900000Y-86000000D02*
X148900000Y-84000000D01*
X148900000Y-86000000D02*
X150550000Y-86000000D01*
X150550000Y-86000000D02*
X151100000Y-85450001D01*
X151100000Y-84000000D02*
X148900000Y-84000000D01*
X151100000Y-85450001D02*
X151100000Y-84000000D01*
X150500000Y-84600000D02*
X150050000Y-84600000D01*
X150050000Y-84000000D01*
X150500000Y-84000000D01*
X150500000Y-84600000D01*
G36*
X150500000Y-84600000D02*
G01*
X150050000Y-84600000D01*
X150050000Y-84000000D01*
X150500000Y-84000000D01*
X150500000Y-84600000D01*
G37*
X150500000Y-85450001D02*
X150500000Y-86000000D01*
X150050001Y-86000000D01*
X150050000Y-85450000D01*
X150500000Y-85450001D01*
G36*
X150500000Y-85450001D02*
G01*
X150500000Y-86000000D01*
X150050001Y-86000000D01*
X150050000Y-85450000D01*
X150500000Y-85450001D01*
G37*
%TO.C,D26*%
X117161288Y-85207129D02*
X116319384Y-87239664D01*
X118167144Y-88005031D02*
X116319384Y-87239664D01*
X118167144Y-88005031D02*
X118798572Y-86480629D01*
X118500914Y-85762020D02*
X117161288Y-85207129D01*
X118798572Y-86480629D02*
X118500914Y-85762020D01*
X117486006Y-85991067D02*
X117313798Y-86406813D01*
X116759470Y-86177202D01*
X116931678Y-85761457D01*
X117486006Y-85991067D01*
G36*
X117486006Y-85991067D02*
G01*
X117313798Y-86406813D01*
X116759470Y-86177202D01*
X116931678Y-85761457D01*
X117486006Y-85991067D01*
G37*
X118779437Y-86526824D02*
X118607230Y-86942569D01*
X118099096Y-86732093D01*
X118271304Y-86316348D01*
X118779437Y-86526824D01*
G36*
X118779437Y-86526824D02*
G01*
X118607230Y-86942569D01*
X118099096Y-86732093D01*
X118271304Y-86316348D01*
X118779437Y-86526824D01*
G37*
%TO.C,D25*%
X114906329Y-91897885D02*
X114477130Y-94055612D01*
X116328468Y-92180766D02*
X114906329Y-91897885D01*
X116438701Y-94445793D02*
X114477130Y-94055612D01*
X116438701Y-94445793D02*
X116760600Y-92827497D01*
X116760600Y-92827497D02*
X116328468Y-92180766D01*
X115377746Y-92603410D02*
X115289955Y-93044764D01*
X114701484Y-92927709D01*
X114789275Y-92486356D01*
X115377746Y-92603410D01*
G36*
X115377746Y-92603410D02*
G01*
X115289955Y-93044764D01*
X114701484Y-92927709D01*
X114789275Y-92486356D01*
X115377746Y-92603410D01*
G37*
X116750845Y-92876537D02*
X116663055Y-93317890D01*
X116123623Y-93210590D01*
X116211414Y-92769237D01*
X116750845Y-92876537D01*
G36*
X116750845Y-92876537D02*
G01*
X116663055Y-93317890D01*
X116123623Y-93210590D01*
X116211414Y-92769237D01*
X116750845Y-92876537D01*
G37*
%TO.C,D27*%
X120678221Y-79084855D02*
X119455966Y-80914088D01*
X121118905Y-82025229D02*
X119455966Y-80914088D01*
X121118905Y-82025229D02*
X122035596Y-80653304D01*
X121883852Y-79890432D02*
X120678221Y-79084855D01*
X122035596Y-80653304D02*
X121883852Y-79890432D01*
X120843760Y-79917079D02*
X120593753Y-80291241D01*
X120094872Y-79957898D01*
X120344879Y-79583737D01*
X120843760Y-79917079D01*
G36*
X120843760Y-79917079D02*
G01*
X120593753Y-80291241D01*
X120094872Y-79957898D01*
X120344879Y-79583737D01*
X120843760Y-79917079D01*
G37*
X122007817Y-80694878D02*
X121757811Y-81069039D01*
X121300503Y-80763475D01*
X121550510Y-80389314D01*
X122007817Y-80694878D01*
G36*
X122007817Y-80694878D02*
G01*
X121757811Y-81069039D01*
X121300503Y-80763475D01*
X121550510Y-80389314D01*
X122007817Y-80694878D01*
G37*
%TO.C,D55*%
X139322687Y-90878322D02*
X137908474Y-89464109D01*
X139322687Y-90878322D02*
X140489414Y-89711596D01*
X139464109Y-87908474D02*
X137908474Y-89464109D01*
X140489414Y-88933779D02*
X139464109Y-87908474D01*
X140489414Y-89711596D02*
X140489414Y-88933779D01*
X139464109Y-88757002D02*
X139145911Y-89075200D01*
X138721647Y-88650936D01*
X139039845Y-88332738D01*
X139464109Y-88757002D01*
G36*
X139464109Y-88757002D02*
G01*
X139145911Y-89075200D01*
X138721647Y-88650936D01*
X139039845Y-88332738D01*
X139464109Y-88757002D01*
G37*
X140454058Y-89746951D02*
X140135861Y-90065149D01*
X139746951Y-89676241D01*
X140065150Y-89358043D01*
X140454058Y-89746951D01*
G36*
X140454058Y-89746951D02*
G01*
X140135861Y-90065149D01*
X139746951Y-89676241D01*
X140065150Y-89358043D01*
X140454058Y-89746951D01*
G37*
%TO.C,D4*%
X173263813Y-75180551D02*
X174430539Y-76347278D01*
X173263813Y-75180551D02*
X174678027Y-73766338D01*
X174430539Y-76347278D02*
X175208356Y-76347278D01*
X175208356Y-76347278D02*
X176233661Y-75321973D01*
X176233661Y-75321973D02*
X174678027Y-73766338D01*
X174784092Y-75923014D02*
X174395184Y-76311922D01*
X174076986Y-75993724D01*
X174465895Y-75604816D01*
X174784092Y-75923014D01*
G36*
X174784092Y-75923014D02*
G01*
X174395184Y-76311922D01*
X174076986Y-75993724D01*
X174465895Y-75604816D01*
X174784092Y-75923014D01*
G37*
X175809397Y-74897709D02*
X175385133Y-75321973D01*
X175066935Y-75003775D01*
X175491200Y-74579511D01*
X175809397Y-74897709D01*
G36*
X175809397Y-74897709D02*
G01*
X175385133Y-75321973D01*
X175066935Y-75003775D01*
X175491200Y-74579511D01*
X175809397Y-74897709D01*
G37*
%TO.C,D22*%
X116319385Y-112760336D02*
X117161288Y-114792871D01*
X117659010Y-112205445D02*
X116319385Y-112760336D01*
X118377619Y-112503102D02*
X117659010Y-112205445D01*
X119009047Y-114027504D02*
X117161288Y-114792871D01*
X119009047Y-114027504D02*
X118377619Y-112503102D01*
X117275530Y-113500800D02*
X116721202Y-113730409D01*
X116548995Y-113314664D01*
X117103322Y-113085053D01*
X117275530Y-113500800D01*
G36*
X117275530Y-113500800D02*
G01*
X116721202Y-113730409D01*
X116548995Y-113314664D01*
X117103322Y-113085053D01*
X117275530Y-113500800D01*
G37*
X118568961Y-112965042D02*
X118060827Y-113175518D01*
X117888620Y-112759772D01*
X118396754Y-112549297D01*
X118568961Y-112965042D01*
G36*
X118568961Y-112965042D02*
G01*
X118060827Y-113175518D01*
X117888620Y-112759772D01*
X118396754Y-112549297D01*
X118568961Y-112965042D01*
G37*
%TO.C,D30*%
X135972496Y-69009047D02*
X135207129Y-67161288D01*
X135972496Y-69009047D02*
X137496898Y-68377619D01*
X137239664Y-66319385D02*
X135207129Y-67161288D01*
X137496898Y-68377619D02*
X137794555Y-67659010D01*
X137794555Y-67659010D02*
X137239664Y-66319385D01*
X136914947Y-67103322D02*
X136499200Y-67275530D01*
X136269591Y-66721202D01*
X136685336Y-66548995D01*
X136914947Y-67103322D01*
G36*
X136914947Y-67103322D02*
G01*
X136499200Y-67275530D01*
X136269591Y-66721202D01*
X136685336Y-66548995D01*
X136914947Y-67103322D01*
G37*
X137450703Y-68396754D02*
X137034958Y-68568961D01*
X136824482Y-68060827D01*
X137240228Y-67888620D01*
X137450703Y-68396754D01*
G36*
X137450703Y-68396754D02*
G01*
X137034958Y-68568961D01*
X136824482Y-68060827D01*
X137240228Y-67888620D01*
X137450703Y-68396754D01*
G37*
%TO.C,D10*%
X181201428Y-113519371D02*
X181499086Y-114237980D01*
X181499086Y-114237980D02*
X182838712Y-114792871D01*
X181832856Y-111994969D02*
X181201428Y-113519371D01*
X181832856Y-111994969D02*
X183680616Y-112760336D01*
X182838712Y-114792871D02*
X183680616Y-112760336D01*
X181900904Y-113267907D02*
X181728696Y-113683652D01*
X181220563Y-113473176D01*
X181392770Y-113057431D01*
X181900904Y-113267907D01*
G36*
X181900904Y-113267907D02*
G01*
X181728696Y-113683652D01*
X181220563Y-113473176D01*
X181392770Y-113057431D01*
X181900904Y-113267907D01*
G37*
X183240530Y-113822798D02*
X183068322Y-114238543D01*
X182513994Y-114008933D01*
X182686202Y-113593187D01*
X183240530Y-113822798D01*
G36*
X183240530Y-113822798D02*
G01*
X183068322Y-114238543D01*
X182513994Y-114008933D01*
X182686202Y-113593187D01*
X183240530Y-113822798D01*
G37*
%TO.C,D18*%
X135207129Y-132838712D02*
X137239664Y-133680616D01*
X135762020Y-131499086D02*
X135207129Y-132838712D01*
X136480629Y-131201428D02*
X135762020Y-131499086D01*
X138005031Y-131832856D02*
X136480629Y-131201428D01*
X138005031Y-131832856D02*
X137239664Y-133680616D01*
X136406813Y-132686202D02*
X136177202Y-133240530D01*
X135761457Y-133068322D01*
X135991067Y-132513994D01*
X136406813Y-132686202D01*
G36*
X136406813Y-132686202D02*
G01*
X136177202Y-133240530D01*
X135761457Y-133068322D01*
X135991067Y-132513994D01*
X136406813Y-132686202D01*
G37*
X136942569Y-131392770D02*
X136732093Y-131900904D01*
X136316348Y-131728696D01*
X136526824Y-131220563D01*
X136942569Y-131392770D01*
G36*
X136942569Y-131392770D02*
G01*
X136732093Y-131900904D01*
X136316348Y-131728696D01*
X136526824Y-131220563D01*
X136942569Y-131392770D01*
G37*
%TO.C,D36*%
X174000000Y-98900000D02*
X174000000Y-100550000D01*
X174000000Y-98900000D02*
X176000000Y-98900000D01*
X174000000Y-100550000D02*
X174550000Y-101100000D01*
X174550000Y-101100000D02*
X176000000Y-101100000D01*
X176000000Y-101100000D02*
X176000000Y-98900000D01*
X174549999Y-100500000D02*
X174000000Y-100500000D01*
X174000000Y-100050001D01*
X174550000Y-100050000D01*
X174549999Y-100500000D01*
G36*
X174549999Y-100500000D02*
G01*
X174000000Y-100500000D01*
X174000000Y-100050001D01*
X174550000Y-100050000D01*
X174549999Y-100500000D01*
G37*
X176000000Y-100500000D02*
X175400000Y-100500000D01*
X175400000Y-100050000D01*
X176000000Y-100050000D01*
X176000000Y-100500000D01*
G36*
X176000000Y-100500000D02*
G01*
X175400000Y-100500000D01*
X175400000Y-100050000D01*
X176000000Y-100050000D01*
X176000000Y-100500000D01*
G37*
%TO.C,D7*%
X183132100Y-92288065D02*
X183454000Y-93906361D01*
X183132100Y-92288065D02*
X185093671Y-91897884D01*
X183454000Y-93906361D02*
X184100731Y-94338492D01*
X184100731Y-94338492D02*
X185522870Y-94055611D01*
X185522870Y-94055611D02*
X185093671Y-91897884D01*
X183983676Y-93750021D02*
X183444245Y-93857320D01*
X183356454Y-93415968D01*
X183895886Y-93308668D01*
X183983676Y-93750021D01*
G36*
X183983676Y-93750021D02*
G01*
X183444245Y-93857320D01*
X183356454Y-93415968D01*
X183895886Y-93308668D01*
X183983676Y-93750021D01*
G37*
X185405815Y-93467140D02*
X184817344Y-93584195D01*
X184729554Y-93142841D01*
X185318025Y-93025787D01*
X185405815Y-93467140D01*
G36*
X185405815Y-93467140D02*
G01*
X184817344Y-93584195D01*
X184729554Y-93142841D01*
X185318025Y-93025787D01*
X185405815Y-93467140D01*
G37*
%TO.C,D38*%
X166581653Y-117359472D02*
X166581653Y-118137289D01*
X166581653Y-118137289D02*
X167606959Y-119162594D01*
X167606959Y-119162594D02*
X169162593Y-117606959D01*
X167748379Y-116192746D02*
X166581653Y-117359472D01*
X167748379Y-116192746D02*
X169162593Y-117606959D01*
X167324116Y-117394827D02*
X167005917Y-117713025D01*
X166617010Y-117324116D01*
X166935206Y-117005919D01*
X167324116Y-117394827D01*
G36*
X167324116Y-117394827D02*
G01*
X167005917Y-117713025D01*
X166617010Y-117324116D01*
X166935206Y-117005919D01*
X167324116Y-117394827D01*
G37*
X168349420Y-118420132D02*
X168031223Y-118738329D01*
X167606958Y-118314066D01*
X167925156Y-117995868D01*
X168349420Y-118420132D01*
G36*
X168349420Y-118420132D02*
G01*
X168031223Y-118738329D01*
X167606958Y-118314066D01*
X167925156Y-117995868D01*
X168349420Y-118420132D01*
G37*
%TO.C,D15*%
X155661508Y-134100731D02*
X155944389Y-135522870D01*
X155944389Y-135522870D02*
X158102116Y-135093671D01*
X156093639Y-133454000D02*
X155661508Y-134100731D01*
X157711935Y-133132100D02*
X156093639Y-133454000D01*
X157711935Y-133132100D02*
X158102116Y-135093671D01*
X156691332Y-133895886D02*
X156249979Y-133983676D01*
X156142680Y-133444245D01*
X156584032Y-133356454D01*
X156691332Y-133895886D01*
G36*
X156691332Y-133895886D02*
G01*
X156249979Y-133983676D01*
X156142680Y-133444245D01*
X156584032Y-133356454D01*
X156691332Y-133895886D01*
G37*
X156974213Y-135318025D02*
X156532860Y-135405815D01*
X156415805Y-134817344D01*
X156857159Y-134729554D01*
X156974213Y-135318025D01*
G36*
X156974213Y-135318025D02*
G01*
X156532860Y-135405815D01*
X156415805Y-134817344D01*
X156857159Y-134729554D01*
X156974213Y-135318025D01*
G37*
%TO.C,D16*%
X148900000Y-134550000D02*
X148900000Y-136000000D01*
X148900000Y-136000000D02*
X151100000Y-136000000D01*
X149450000Y-134000000D02*
X148900000Y-134550000D01*
X151100000Y-134000000D02*
X149450000Y-134000000D01*
X151100000Y-134000000D02*
X151100000Y-136000000D01*
X149950000Y-134550000D02*
X149500000Y-134550000D01*
X149500000Y-134000000D01*
X149950000Y-134000000D01*
X149950000Y-134550000D01*
G36*
X149950000Y-134550000D02*
G01*
X149500000Y-134550000D01*
X149500000Y-134000000D01*
X149950000Y-134000000D01*
X149950000Y-134550000D01*
G37*
X149950000Y-136000000D02*
X149500000Y-136000000D01*
X149500000Y-135400000D01*
X149950000Y-135400000D01*
X149950000Y-136000000D01*
G36*
X149950000Y-136000000D02*
G01*
X149500000Y-136000000D01*
X149500000Y-135400000D01*
X149950000Y-135400000D01*
X149950000Y-136000000D01*
G37*
%TO.C,D49*%
X159121678Y-89322687D02*
X160288404Y-90489414D01*
X159121678Y-89322687D02*
X160535891Y-87908474D01*
X160288404Y-90489414D02*
X161066221Y-90489414D01*
X161066221Y-90489414D02*
X162091526Y-89464109D01*
X162091526Y-89464109D02*
X160535891Y-87908474D01*
X160641957Y-90065150D02*
X160253049Y-90454058D01*
X159934851Y-90135861D01*
X160323759Y-89746951D01*
X160641957Y-90065150D01*
G36*
X160641957Y-90065150D02*
G01*
X160253049Y-90454058D01*
X159934851Y-90135861D01*
X160323759Y-89746951D01*
X160641957Y-90065150D01*
G37*
X161667262Y-89039845D02*
X161242998Y-89464109D01*
X160924800Y-89145911D01*
X161349064Y-88721647D01*
X161667262Y-89039845D01*
G36*
X161667262Y-89039845D02*
G01*
X161242998Y-89464109D01*
X160924800Y-89145911D01*
X161349064Y-88721647D01*
X161667262Y-89039845D01*
G37*
%TO.C,D20*%
X123766339Y-124678027D02*
X125321973Y-126233662D01*
X124791644Y-123652722D02*
X123766339Y-124678027D01*
X125569461Y-123652722D02*
X124791644Y-123652722D01*
X126736187Y-124819449D02*
X125321973Y-126233662D01*
X126736187Y-124819449D02*
X125569461Y-123652722D01*
X124933065Y-124996225D02*
X124508800Y-125420489D01*
X124190603Y-125102291D01*
X124614867Y-124678027D01*
X124933065Y-124996225D01*
G36*
X124933065Y-124996225D02*
G01*
X124508800Y-125420489D01*
X124190603Y-125102291D01*
X124614867Y-124678027D01*
X124933065Y-124996225D01*
G37*
X125923014Y-124006276D02*
X125534105Y-124395184D01*
X125215908Y-124076986D01*
X125604816Y-123688078D01*
X125923014Y-124006276D01*
G36*
X125923014Y-124006276D02*
G01*
X125534105Y-124395184D01*
X125215908Y-124076986D01*
X125604816Y-123688078D01*
X125923014Y-124006276D01*
G37*
%TO.C,D13*%
X168280335Y-129338402D02*
X169085912Y-130544033D01*
X168432079Y-128575530D02*
X168280335Y-129338402D01*
X169085912Y-130544033D02*
X170915145Y-129321779D01*
X169804004Y-127658839D02*
X168432079Y-128575530D01*
X169804004Y-127658839D02*
X170915145Y-129321779D01*
X169153378Y-128755053D02*
X168779216Y-129005059D01*
X168473653Y-128547752D01*
X168847814Y-128297745D01*
X169153378Y-128755053D01*
G36*
X169153378Y-128755053D02*
G01*
X168779216Y-129005059D01*
X168473653Y-128547752D01*
X168847814Y-128297745D01*
X169153378Y-128755053D01*
G37*
X169958955Y-129960685D02*
X169584793Y-130210691D01*
X169251451Y-129711809D01*
X169625613Y-129461802D01*
X169958955Y-129960685D01*
G36*
X169958955Y-129960685D02*
G01*
X169584793Y-130210691D01*
X169251451Y-129711809D01*
X169625613Y-129461802D01*
X169958955Y-129960685D01*
G37*
%TO.C,D2*%
X161994969Y-68167144D02*
X162760336Y-66319384D01*
X161994969Y-68167144D02*
X163519371Y-68798572D01*
X163519371Y-68798572D02*
X164237980Y-68500914D01*
X164237980Y-68500914D02*
X164792871Y-67161288D01*
X164792871Y-67161288D02*
X162760336Y-66319384D01*
X163683652Y-68271304D02*
X163473176Y-68779437D01*
X163057431Y-68607230D01*
X163267907Y-68099096D01*
X163683652Y-68271304D01*
G36*
X163683652Y-68271304D02*
G01*
X163473176Y-68779437D01*
X163057431Y-68607230D01*
X163267907Y-68099096D01*
X163683652Y-68271304D01*
G37*
X164238543Y-66931678D02*
X164008933Y-67486006D01*
X163593187Y-67313798D01*
X163822798Y-66759470D01*
X164238543Y-66931678D01*
G36*
X164238543Y-66931678D02*
G01*
X164008933Y-67486006D01*
X163593187Y-67313798D01*
X163822798Y-66759470D01*
X164238543Y-66931678D01*
G37*
%TO.C,D24*%
X114000000Y-98900000D02*
X114000000Y-101100000D01*
X115450000Y-98900000D02*
X114000000Y-98900000D01*
X116000000Y-99450000D02*
X115450000Y-98900000D01*
X116000000Y-101100000D02*
X114000000Y-101100000D01*
X116000000Y-101100000D02*
X116000000Y-99450000D01*
X114600000Y-99950000D02*
X114000000Y-99950000D01*
X114000000Y-99500000D01*
X114600000Y-99500000D01*
X114600000Y-99950000D01*
G36*
X114600000Y-99950000D02*
G01*
X114000000Y-99950000D01*
X114000000Y-99500000D01*
X114600000Y-99500000D01*
X114600000Y-99950000D01*
G37*
X116000000Y-99950000D02*
X115450000Y-99950000D01*
X115450000Y-99500000D01*
X116000000Y-99500000D01*
X116000000Y-99950000D01*
G36*
X116000000Y-99950000D02*
G01*
X115450000Y-99950000D01*
X115450000Y-99500000D01*
X116000000Y-99500000D01*
X116000000Y-99950000D01*
G37*
%TO.C,D23*%
X114477130Y-105944389D02*
X114906329Y-108102116D01*
X115899269Y-105661508D02*
X114477130Y-105944389D01*
X116546000Y-106093639D02*
X115899269Y-105661508D01*
X116867900Y-107711935D02*
X114906329Y-108102116D01*
X116867900Y-107711935D02*
X116546000Y-106093639D01*
X115270446Y-106857159D02*
X114681975Y-106974213D01*
X114594185Y-106532860D01*
X115182656Y-106415805D01*
X115270446Y-106857159D01*
G36*
X115270446Y-106857159D02*
G01*
X114681975Y-106974213D01*
X114594185Y-106532860D01*
X115182656Y-106415805D01*
X115270446Y-106857159D01*
G37*
X116643546Y-106584032D02*
X116104114Y-106691332D01*
X116016324Y-106249979D01*
X116555755Y-106142680D01*
X116643546Y-106584032D01*
G36*
X116643546Y-106584032D02*
G01*
X116104114Y-106691332D01*
X116016324Y-106249979D01*
X116555755Y-106142680D01*
X116643546Y-106584032D01*
G37*
%TO.C,D34*%
X166192746Y-82251621D02*
X167359472Y-83418347D01*
X166192746Y-82251621D02*
X167606959Y-80837407D01*
X167359472Y-83418347D02*
X168137289Y-83418347D01*
X168137289Y-83418347D02*
X169162594Y-82393041D01*
X169162594Y-82393041D02*
X167606959Y-80837407D01*
X167713025Y-82994083D02*
X167324116Y-83382990D01*
X167005919Y-83064794D01*
X167394827Y-82675884D01*
X167713025Y-82994083D01*
G36*
X167713025Y-82994083D02*
G01*
X167324116Y-83382990D01*
X167005919Y-83064794D01*
X167394827Y-82675884D01*
X167713025Y-82994083D01*
G37*
X168738329Y-81968777D02*
X168314066Y-82393042D01*
X167995868Y-82074844D01*
X168420132Y-81650580D01*
X168738329Y-81968777D01*
G36*
X168738329Y-81968777D02*
G01*
X168314066Y-82393042D01*
X167995868Y-82074844D01*
X168420132Y-81650580D01*
X168738329Y-81968777D01*
G37*
%TO.C,D53*%
X137908474Y-110535891D02*
X139464109Y-112091526D01*
X138933779Y-109510586D02*
X137908474Y-110535891D01*
X139711596Y-109510586D02*
X138933779Y-109510586D01*
X140878322Y-110677313D02*
X139464109Y-112091526D01*
X140878322Y-110677313D02*
X139711596Y-109510586D01*
X139075200Y-110854089D02*
X138650936Y-111278353D01*
X138332738Y-110960155D01*
X138757002Y-110535891D01*
X139075200Y-110854089D01*
G36*
X139075200Y-110854089D02*
G01*
X138650936Y-111278353D01*
X138332738Y-110960155D01*
X138757002Y-110535891D01*
X139075200Y-110854089D01*
G37*
X140065149Y-109864139D02*
X139676241Y-110253049D01*
X139358043Y-109934850D01*
X139746951Y-109545942D01*
X140065149Y-109864139D01*
G36*
X140065149Y-109864139D02*
G01*
X139676241Y-110253049D01*
X139358043Y-109934850D01*
X139746951Y-109545942D01*
X140065149Y-109864139D01*
G37*
%TO.C,D31*%
X142288065Y-66867900D02*
X141897884Y-64906329D01*
X142288065Y-66867900D02*
X143906361Y-66546000D01*
X143906361Y-66546000D02*
X144338492Y-65899269D01*
X144055611Y-64477130D02*
X141897884Y-64906329D01*
X144338492Y-65899269D02*
X144055611Y-64477130D01*
X143584195Y-65182656D02*
X143142841Y-65270446D01*
X143025787Y-64681975D01*
X143467140Y-64594185D01*
X143584195Y-65182656D01*
G36*
X143584195Y-65182656D02*
G01*
X143142841Y-65270446D01*
X143025787Y-64681975D01*
X143467140Y-64594185D01*
X143584195Y-65182656D01*
G37*
X143857320Y-66555755D02*
X143415968Y-66643546D01*
X143308668Y-66104114D01*
X143750021Y-66016324D01*
X143857320Y-66555755D01*
G36*
X143857320Y-66555755D02*
G01*
X143415968Y-66643546D01*
X143308668Y-66104114D01*
X143750021Y-66016324D01*
X143857320Y-66555755D01*
G37*
%TO.C,D52*%
X148900000Y-114549999D02*
X148900000Y-116000000D01*
X148900000Y-116000000D02*
X151100000Y-116000000D01*
X149450000Y-114000000D02*
X148900000Y-114549999D01*
X151100000Y-114000000D02*
X149450000Y-114000000D01*
X151100000Y-114000000D02*
X151100000Y-116000000D01*
X149950000Y-114550000D02*
X149500000Y-114549999D01*
X149500000Y-114000000D01*
X149949999Y-114000000D01*
X149950000Y-114550000D01*
G36*
X149950000Y-114550000D02*
G01*
X149500000Y-114549999D01*
X149500000Y-114000000D01*
X149949999Y-114000000D01*
X149950000Y-114550000D01*
G37*
X149950000Y-116000000D02*
X149500000Y-116000000D01*
X149500000Y-115400000D01*
X149950000Y-115400000D01*
X149950000Y-116000000D01*
G36*
X149950000Y-116000000D02*
G01*
X149500000Y-116000000D01*
X149500000Y-115400000D01*
X149950000Y-115400000D01*
X149950000Y-116000000D01*
G37*
%TO.C,D35*%
X171752156Y-89799331D02*
X172383584Y-91323732D01*
X171752156Y-89799331D02*
X173599916Y-89033964D01*
X172383584Y-91323732D02*
X173102194Y-91621390D01*
X173102194Y-91621390D02*
X174441820Y-91066499D01*
X174441820Y-91066499D02*
X173599916Y-89033964D01*
X172872583Y-91067063D02*
X172364450Y-91277538D01*
X172192243Y-90861793D01*
X172700376Y-90651316D01*
X172872583Y-91067063D01*
G36*
X172872583Y-91067063D02*
G01*
X172364450Y-91277538D01*
X172192243Y-90861793D01*
X172700376Y-90651316D01*
X172872583Y-91067063D01*
G37*
X174212209Y-90512171D02*
X173657881Y-90741780D01*
X173485674Y-90326035D01*
X174040001Y-90096426D01*
X174212209Y-90512171D01*
G36*
X174212209Y-90512171D02*
G01*
X173657881Y-90741780D01*
X173485674Y-90326035D01*
X174040001Y-90096426D01*
X174212209Y-90512171D01*
G37*
%TO.C,D43*%
X125558180Y-108933501D02*
X126400084Y-110966036D01*
X126897806Y-108378610D02*
X125558180Y-108933501D01*
X127616416Y-108676268D02*
X126897806Y-108378610D01*
X128247844Y-110200669D02*
X126400084Y-110966036D01*
X128247844Y-110200669D02*
X127616416Y-108676268D01*
X126514326Y-109673965D02*
X125959999Y-109903574D01*
X125787791Y-109487829D01*
X126342119Y-109258220D01*
X126514326Y-109673965D01*
G36*
X126514326Y-109673965D02*
G01*
X125959999Y-109903574D01*
X125787791Y-109487829D01*
X126342119Y-109258220D01*
X126514326Y-109673965D01*
G37*
X127807757Y-109138207D02*
X127299624Y-109348684D01*
X127127417Y-108932937D01*
X127635550Y-108722462D01*
X127807757Y-109138207D01*
G36*
X127807757Y-109138207D02*
G01*
X127299624Y-109348684D01*
X127127417Y-108932937D01*
X127635550Y-108722462D01*
X127807757Y-109138207D01*
G37*
%TO.C,D39*%
X158378610Y-123102194D02*
X158933501Y-124441820D01*
X158676268Y-122383584D02*
X158378610Y-123102194D01*
X158933501Y-124441820D02*
X160966036Y-123599916D01*
X160200669Y-121752156D02*
X158676268Y-122383584D01*
X160200669Y-121752156D02*
X160966036Y-123599916D01*
X159348684Y-122700376D02*
X158932937Y-122872583D01*
X158722462Y-122364450D01*
X159138207Y-122192243D01*
X159348684Y-122700376D01*
G36*
X159348684Y-122700376D02*
G01*
X158932937Y-122872583D01*
X158722462Y-122364450D01*
X159138207Y-122192243D01*
X159348684Y-122700376D01*
G37*
X159903574Y-124040001D02*
X159487829Y-124212209D01*
X159258220Y-123657881D01*
X159673965Y-123485674D01*
X159903574Y-124040001D01*
G36*
X159903574Y-124040001D02*
G01*
X159487829Y-124212209D01*
X159258220Y-123657881D01*
X159673965Y-123485674D01*
X159903574Y-124040001D01*
G37*
%TO.C,D59*%
X144000000Y-98900000D02*
X144000000Y-101100000D01*
X145450001Y-98900000D02*
X144000000Y-98900000D01*
X146000000Y-99450000D02*
X145450001Y-98900000D01*
X146000000Y-101100000D02*
X144000000Y-101100000D01*
X146000000Y-101100000D02*
X146000000Y-99450000D01*
X144600000Y-99950000D02*
X144000000Y-99950000D01*
X144000000Y-99500000D01*
X144600000Y-99500000D01*
X144600000Y-99950000D01*
G36*
X144600000Y-99950000D02*
G01*
X144000000Y-99950000D01*
X144000000Y-99500000D01*
X144600000Y-99500000D01*
X144600000Y-99950000D01*
G37*
X146000000Y-99949999D02*
X145450000Y-99950000D01*
X145450001Y-99500000D01*
X146000000Y-99500000D01*
X146000000Y-99949999D01*
G36*
X146000000Y-99949999D02*
G01*
X145450000Y-99950000D01*
X145450001Y-99500000D01*
X146000000Y-99500000D01*
X146000000Y-99949999D01*
G37*
%TO.C,D40*%
X148900000Y-124550000D02*
X148900000Y-126000000D01*
X148900000Y-126000000D02*
X151100000Y-126000000D01*
X149450000Y-124000000D02*
X148900000Y-124550000D01*
X151100000Y-124000000D02*
X149450000Y-124000000D01*
X151100000Y-124000000D02*
X151100000Y-126000000D01*
X149950000Y-124550000D02*
X149500000Y-124549999D01*
X149500000Y-124000000D01*
X149949999Y-124000000D01*
X149950000Y-124550000D01*
G36*
X149950000Y-124550000D02*
G01*
X149500000Y-124549999D01*
X149500000Y-124000000D01*
X149949999Y-124000000D01*
X149950000Y-124550000D01*
G37*
X149950000Y-126000000D02*
X149500000Y-126000000D01*
X149500000Y-125400000D01*
X149950000Y-125400000D01*
X149950000Y-126000000D01*
G36*
X149950000Y-126000000D02*
G01*
X149500000Y-126000000D01*
X149500000Y-125400000D01*
X149950000Y-125400000D01*
X149950000Y-126000000D01*
G37*
%TO.C,D8*%
X184000000Y-98900000D02*
X184000000Y-100550000D01*
X184000000Y-98900000D02*
X186000000Y-98900000D01*
X184000000Y-100550000D02*
X184550000Y-101100000D01*
X184550000Y-101100000D02*
X186000000Y-101100000D01*
X186000000Y-101100000D02*
X186000000Y-98900000D01*
X184550000Y-100500000D02*
X184000000Y-100500000D01*
X184000000Y-100050000D01*
X184550000Y-100050000D01*
X184550000Y-100500000D01*
G36*
X184550000Y-100500000D02*
G01*
X184000000Y-100500000D01*
X184000000Y-100050000D01*
X184550000Y-100050000D01*
X184550000Y-100500000D01*
G37*
X186000000Y-100500000D02*
X185400000Y-100500000D01*
X185400000Y-100050000D01*
X186000000Y-100050000D01*
X186000000Y-100500000D01*
G36*
X186000000Y-100500000D02*
G01*
X185400000Y-100500000D01*
X185400000Y-100050000D01*
X186000000Y-100050000D01*
X186000000Y-100500000D01*
G37*
%TO.C,D29*%
X130195996Y-72341161D02*
X129084855Y-70678221D01*
X130195996Y-72341161D02*
X131567921Y-71424470D01*
X130914088Y-69455967D02*
X129084855Y-70678221D01*
X131567921Y-71424470D02*
X131719665Y-70661598D01*
X131719665Y-70661598D02*
X130914088Y-69455967D01*
X130748549Y-70288191D02*
X130374387Y-70538198D01*
X130041045Y-70039315D01*
X130415207Y-69789309D01*
X130748549Y-70288191D01*
G36*
X130748549Y-70288191D02*
G01*
X130374387Y-70538198D01*
X130041045Y-70039315D01*
X130415207Y-69789309D01*
X130748549Y-70288191D01*
G37*
X131526347Y-71452248D02*
X131152186Y-71702255D01*
X130846622Y-71244947D01*
X131220784Y-70994941D01*
X131526347Y-71452248D01*
G36*
X131526347Y-71452248D02*
G01*
X131152186Y-71702255D01*
X130846622Y-71244947D01*
X131220784Y-70994941D01*
X131526347Y-71452248D01*
G37*
%TD*%
M02*
